ScheherazadeNew-Bold.ufo
<glyph name="exclam" format="2">
  <advance width="619"/>
  <unicode hex="0021"/>
  <outline>
    <contour>
      <point x="459" y="1099" type="curve" smooth="yes" name="hr02"/>
      <point x="459" y="1188"/>
      <point x="426" y="1286"/>
      <point x="310" y="1286" type="curve" smooth="yes"/>
      <point x="196" y="1286"/>
      <point x="160" y="1188"/>
      <point x="160" y="1099" type="curve" smooth="yes"/>
      <point x="160" y="989"/>
      <point x="186" y="872"/>
      <point x="212" y="733" type="curve" smooth="yes"/>
      <point x="236" y="604"/>
      <point x="259" y="581"/>
      <point x="259" y="278" type="curve" smooth="yes" name="hr01"/>
      <point x="259" y="265"/>
      <point x="284" y="257"/>
      <point x="313" y="257" type="curve" smooth="yes"/>
      <point x="340" y="257"/>
      <point x="361" y="264"/>
      <point x="361" y="278" type="curve" smooth="yes"/>
      <point x="361" y="581"/>
      <point x="387" y="601"/>
      <point x="411" y="735" type="curve" smooth="yes"/>
      <point x="436" y="872"/>
      <point x="459" y="993"/>
    </contour>
    <contour>
      <point x="451" y="58" type="curve" smooth="yes"/>
      <point x="451" y="135"/>
      <point x="389" y="198"/>
      <point x="311" y="198" type="curve" smooth="yes"/>
      <point x="233" y="198"/>
      <point x="170" y="135"/>
      <point x="170" y="58" type="curve" smooth="yes"/>
      <point x="170" y="-19"/>
      <point x="233" y="-82"/>
      <point x="311" y="-82" type="curve" smooth="yes"/>
      <point x="389" y="-82"/>
      <point x="451" y="-19"/>
    </contour>
  </outline>
</glyph>
<glyph name="quotedbl" format="2">
  <advance width="1024"/>
  <unicode hex="0022"/>
  <outline>
    <contour>
      <point x="864" y="1120" type="curve" smooth="yes"/>
      <point x="864" y="1194"/>
      <point x="804" y="1253"/>
      <point x="730" y="1253" type="curve" smooth="yes"/>
      <point x="654" y="1253"/>
      <point x="595" y="1194"/>
      <point x="595" y="1120" type="curve" smooth="yes"/>
      <point x="595" y="1068"/>
      <point x="696" y="653"/>
      <point x="696" y="653" type="curve"/>
      <point x="762" y="653" type="line"/>
      <point x="762" y="653"/>
      <point x="864" y="1068"/>
    </contour>
    <contour>
      <point x="428" y="1120" type="curve" smooth="yes"/>
      <point x="428" y="1194"/>
      <point x="367" y="1253"/>
      <point x="293" y="1253" type="curve" smooth="yes"/>
      <point x="217" y="1253"/>
      <point x="158" y="1194"/>
      <point x="158" y="1120" type="curve" smooth="yes"/>
      <point x="158" y="1068"/>
      <point x="259" y="653"/>
      <point x="259" y="653" type="curve"/>
      <point x="325" y="653" type="line"/>
      <point x="325" y="653"/>
      <point x="428" y="1068"/>
    </contour>
  </outline>
</glyph>
<glyph name="numbersign" format="2">
  <advance width="925"/>
  <unicode hex="0023"/>
  <outline>
    <contour>
      <point x="889" y="359" type="line"/>
      <point x="889" y="484" type="line"/>
      <point x="690" y="484" type="line"/>
      <point x="740" y="738" type="line"/>
      <point x="889" y="738" type="line"/>
      <point x="889" y="864" type="line"/>
      <point x="766" y="864" type="line"/>
      <point x="845" y="1253" type="line"/>
      <point x="716" y="1253" type="line"/>
      <point x="640" y="864" type="line"/>
      <point x="385" y="864" type="line"/>
      <point x="463" y="1253" type="line"/>
      <point x="337" y="1253" type="line"/>
      <point x="258" y="864" type="line"/>
      <point x="36" y="864" type="line"/>
      <point x="36" y="738" type="line"/>
      <point x="232" y="738" type="line"/>
      <point x="184" y="484" type="line"/>
      <point x="36" y="484" type="line"/>
      <point x="36" y="359" type="line"/>
      <point x="157" y="359" type="line"/>
      <point x="80" y="-26" type="line"/>
      <point x="205" y="-26" type="line"/>
      <point x="286" y="359" type="line"/>
      <point x="538" y="359" type="line"/>
      <point x="460" y="-26" type="line"/>
      <point x="588" y="-26" type="line"/>
      <point x="665" y="359" type="line"/>
    </contour>
    <contour>
      <point x="616" y="738" type="line"/>
      <point x="563" y="484" type="line"/>
      <point x="312" y="484" type="line"/>
      <point x="362" y="738" type="line"/>
    </contour>
  </outline>
</glyph>
<glyph name="percent" format="2">
  <advance width="1567"/>
  <unicode hex="0025"/>
  <outline>
    <contour>
      <point x="1488" y="451" type="curve" smooth="yes"/>
      <point x="1488" y="563"/>
      <point x="1450" y="698"/>
      <point x="1255" y="698" type="curve" smooth="yes"/>
      <point x="1019" y="698"/>
      <point x="812" y="440"/>
      <point x="812" y="239" type="curve" smooth="yes"/>
      <point x="812" y="52"/>
      <point x="906" y="-29"/>
      <point x="1057" y="-29" type="curve" smooth="yes"/>
      <point x="1330" y="-29"/>
      <point x="1488" y="248"/>
    </contour>
    <contour>
      <point x="1259" y="1259" type="line"/>
      <point x="1091" y="1259" type="line"/>
      <point x="1027" y="1178"/>
      <point x="934" y="1138"/>
      <point x="830" y="1138" type="curve" smooth="yes"/>
      <point x="695" y="1138"/>
      <point x="690" y="1234"/>
      <point x="533" y="1234" type="curve" smooth="yes"/>
      <point x="298" y="1234"/>
      <point x="78" y="1020"/>
      <point x="78" y="773" type="curve" smooth="yes"/>
      <point x="78" y="606"/>
      <point x="175" y="506"/>
      <point x="335" y="506" type="curve" smooth="yes"/>
      <point x="578" y="506"/>
      <point x="752" y="772"/>
      <point x="752" y="986" type="curve" smooth="yes"/>
      <point x="752" y="1025"/>
      <point x="749" y="1061"/>
      <point x="738" y="1091" type="curve"/>
      <point x="775" y="1079"/>
      <point x="808" y="1073"/>
      <point x="838" y="1073" type="curve" smooth="yes"/>
      <point x="892" y="1073"/>
      <point x="940" y="1092"/>
      <point x="1010" y="1124" type="curve"/>
      <point x="331" y="-26" type="line" name="hr01"/>
      <point x="503" y="-26" type="line"/>
    </contour>
    <contour>
      <point x="1418" y="432" type="curve" smooth="yes"/>
      <point x="1418" y="271"/>
      <point x="1248" y="46"/>
      <point x="1128" y="46" type="curve" smooth="yes" name="hr02"/>
      <point x="1048" y="46"/>
      <point x="998" y="92"/>
      <point x="998" y="160" type="curve" smooth="yes"/>
      <point x="998" y="395"/>
      <point x="1201" y="628"/>
      <point x="1301" y="628" type="curve" smooth="yes"/>
      <point x="1370" y="628"/>
      <point x="1418" y="574"/>
    </contour>
    <contour>
      <point x="686" y="966" type="curve" smooth="yes"/>
      <point x="686" y="829"/>
      <point x="526" y="582"/>
      <point x="396" y="582" type="curve" smooth="yes"/>
      <point x="316" y="582"/>
      <point x="264" y="642"/>
      <point x="264" y="710" type="curve" smooth="yes"/>
      <point x="264" y="853"/>
      <point x="337" y="991"/>
      <point x="421" y="1076" type="curve" smooth="yes"/>
      <point x="474" y="1129"/>
      <point x="530" y="1162"/>
      <point x="576" y="1162" type="curve" smooth="yes"/>
      <point x="603" y="1162"/>
      <point x="619" y="1145"/>
      <point x="653" y="1117" type="curve"/>
      <point x="673" y="1085"/>
      <point x="686" y="1036"/>
    </contour>
  </outline>
</glyph>
<glyph name="quotesingle" format="2">
  <advance width="421"/>
  <unicode hex="0027"/>
  <outline>
    <contour>
      <point x="346" y="1120" type="curve" smooth="yes"/>
      <point x="346" y="1194"/>
      <point x="286" y="1253"/>
      <point x="211" y="1253" type="curve" smooth="yes"/>
      <point x="136" y="1253"/>
      <point x="77" y="1194"/>
      <point x="77" y="1120" type="curve" smooth="yes"/>
      <point x="77" y="1102"/>
      <point x="89" y="1038"/>
      <point x="104" y="964" type="curve" smooth="yes"/>
      <point x="172" y="653" type="line"/>
      <point x="248" y="653" type="line"/>
      <point x="319" y="968" type="line" smooth="yes"/>
      <point x="336" y="1040"/>
      <point x="346" y="1102"/>
    </contour>
  </outline>
</glyph>
<glyph name="parenleft" format="2">
  <advance width="811"/>
  <unicode hex="0028"/>
  <outline>
    <contour>
      <point x="734" y="-491" type="curve"/>
      <point x="734" y="-439" type="line"/>
      <point x="617" y="-373"/>
      <point x="540" y="-275"/>
      <point x="491" y="-147" type="curve" smooth="yes"/>
      <point x="430" y="11"/>
      <point x="412" y="215"/>
      <point x="412" y="457" type="curve" smooth="yes"/>
      <point x="412" y="687"/>
      <point x="429" y="883"/>
      <point x="483" y="1041" type="curve" smooth="yes"/>
      <point x="532" y="1184"/>
      <point x="610" y="1291"/>
      <point x="734" y="1361" type="curve"/>
      <point x="734" y="1407" type="line"/>
      <point x="610" y="1364"/>
      <point x="498" y="1287"/>
      <point x="405" y="1185" type="curve" smooth="yes"/>
      <point x="234" y="1001"/>
      <point x="125" y="741"/>
      <point x="125" y="457" type="curve" smooth="yes"/>
      <point x="125" y="175"/>
      <point x="232" y="-84"/>
      <point x="399" y="-266" type="curve" smooth="yes"/>
      <point x="493" y="-369"/>
      <point x="609" y="-448"/>
    </contour>
  </outline>
</glyph>
<glyph name="parenright" format="2">
  <advance width="811"/>
  <unicode hex="0029"/>
  <outline>
    <contour>
      <point x="77" y="-439" type="curve"/>
      <point x="77" y="-491" type="line"/>
      <point x="202" y="-448"/>
      <point x="318" y="-369"/>
      <point x="412" y="-266" type="curve" smooth="yes"/>
      <point x="579" y="-84"/>
      <point x="686" y="175"/>
      <point x="686" y="457" type="curve" smooth="yes"/>
      <point x="686" y="741"/>
      <point x="577" y="1001"/>
      <point x="406" y="1185" type="curve" smooth="yes"/>
      <point x="313" y="1287"/>
      <point x="201" y="1364"/>
      <point x="77" y="1407" type="curve"/>
      <point x="77" y="1361" type="line"/>
      <point x="201" y="1291"/>
      <point x="279" y="1184"/>
      <point x="328" y="1041" type="curve" smooth="yes"/>
      <point x="382" y="883"/>
      <point x="399" y="687"/>
      <point x="399" y="457" type="curve" smooth="yes"/>
      <point x="399" y="215"/>
      <point x="381" y="11"/>
      <point x="320" y="-147" type="curve" smooth="yes"/>
      <point x="271" y="-275"/>
      <point x="194" y="-373"/>
    </contour>
  </outline>
</glyph>
<glyph name="plus" format="2">
  <advance width="1165"/>
  <unicode hex="002B"/>
  <outline>
    <contour>
      <point x="1117" y="468" type="line"/>
      <point x="1117" y="590" type="line"/>
      <point x="643" y="590" type="line"/>
      <point x="643" y="1069" type="line"/>
      <point x="522" y="1069" type="line"/>
      <point x="522" y="590" type="line"/>
      <point x="48" y="590" type="line"/>
      <point x="48" y="468" type="line"/>
      <point x="522" y="468" type="line"/>
      <point x="522" y="0" type="line"/>
      <point x="643" y="0" type="line"/>
      <point x="643" y="468" type="line"/>
    </contour>
  </outline>
</glyph>
<glyph name="comma" format="2">
  <advance width="481"/>
  <unicode hex="002C"/>
  <outline>
    <contour>
      <point x="415" y="52" type="curve" smooth="yes"/>
      <point x="415" y="202"/>
      <point x="328" y="277"/>
      <point x="221" y="277" type="curve" smooth="yes"/>
      <point x="139" y="277"/>
      <point x="71" y="211"/>
      <point x="71" y="128" type="curve" smooth="yes"/>
      <point x="71" y="46"/>
      <point x="139" y="-12"/>
      <point x="221" y="-12" type="curve" smooth="yes"/>
      <point x="258" y="-12"/>
      <point x="271" y="8"/>
      <point x="286" y="8" type="curve" smooth="yes"/>
      <point x="301" y="8"/>
      <point x="305" y="-11"/>
      <point x="305" y="-24" type="curve" smooth="yes" name="hr01"/>
      <point x="305" y="-89"/>
      <point x="264" y="-221"/>
      <point x="106" y="-286" type="curve"/>
      <point x="106" y="-325" type="line"/>
      <point x="290" y="-271"/>
      <point x="415" y="-136"/>
    </contour>
  </outline>
</glyph>
<glyph name="hyphen" format="2">
  <advance width="635"/>
  <unicode hex="002D"/>
  <outline>
    <contour>
      <point x="599" y="335" type="line"/>
      <point x="599" y="515" type="line"/>
      <point x="36" y="515" type="line"/>
      <point x="36" y="335" type="line"/>
    </contour>
  </outline>
</glyph>
<glyph name="period" format="2">
  <advance width="709"/>
  <unicode hex="002E"/>
  <outline>
    <contour>
      <point x="460" y="128" type="curve" smooth="yes"/>
      <point x="460" y="211"/>
      <point x="391" y="277"/>
      <point x="308" y="277" type="curve" smooth="yes"/>
      <point x="227" y="277"/>
      <point x="158" y="211"/>
      <point x="158" y="128" type="curve" smooth="yes"/>
      <point x="158" y="46"/>
      <point x="227" y="-22"/>
      <point x="308" y="-22" type="curve" smooth="yes"/>
      <point x="391" y="-22"/>
      <point x="460" y="46"/>
    </contour>
  </outline>
</glyph>
<glyph name="slash" format="2">
  <advance width="533"/>
  <unicode hex="002F"/>
  <guideline x="327" y="614" angle="72.4701"/>
  <outline>
    <contour>
      <point x="529" y="1253" type="line"/>
      <point x="412" y="1253" type="line"/>
      <point x="7" y="-26" type="line"/>
      <point x="125" y="-26" type="line"/>
    </contour>
  </outline>
</glyph>
<glyph name="zero" format="2">
  <advance width="944"/>
  <unicode hex="0030"/>
  <outline>
    <contour>
      <point x="868" y="613" type="curve" smooth="yes"/>
      <point x="868" y="907"/>
      <point x="763" y="1253"/>
      <point x="473" y="1253" type="curve" smooth="yes"/>
      <point x="182" y="1253"/>
      <point x="77" y="907"/>
      <point x="77" y="613" type="curve" smooth="yes"/>
      <point x="77" y="319"/>
      <point x="182" y="-26"/>
      <point x="473" y="-26" type="curve" smooth="yes"/>
      <point x="763" y="-26"/>
      <point x="868" y="319"/>
    </contour>
    <contour>
      <point x="590" y="649" type="curve" smooth="yes"/>
      <point x="590" y="392"/>
      <point x="570" y="64"/>
      <point x="473" y="64" type="curve" smooth="yes"/>
      <point x="374" y="64"/>
      <point x="349" y="320"/>
      <point x="349" y="577" type="curve" smooth="yes"/>
      <point x="349" y="834"/>
      <point x="374" y="1163"/>
      <point x="473" y="1163" type="curve" smooth="yes"/>
      <point x="570" y="1163"/>
      <point x="590" y="906"/>
    </contour>
  </outline>
</glyph>
<glyph name="two" format="2">
  <advance width="944"/>
  <unicode hex="0032"/>
  <outline>
    <contour>
      <point x="893" y="355" type="line"/>
      <point x="821" y="355" type="line"/>
      <point x="773" y="252"/>
      <point x="674" y="236"/>
      <point x="558" y="236" type="curve" smooth="yes"/>
      <point x="335" y="236" type="line"/>
      <point x="406" y="305"/>
      <point x="494" y="370"/>
      <point x="572" y="458" type="curve" smooth="yes"/>
      <point x="685" y="586"/>
      <point x="800" y="724"/>
      <point x="800" y="931" type="curve" smooth="yes"/>
      <point x="800" y="1100"/>
      <point x="656" y="1253"/>
      <point x="444" y="1253" type="curve" smooth="yes"/>
      <point x="214" y="1253"/>
      <point x="101" y="1064"/>
      <point x="61" y="860" type="curve"/>
      <point x="134" y="860" type="line"/>
      <point x="174" y="985"/>
      <point x="250" y="1039"/>
      <point x="358" y="1039" type="curve" smooth="yes"/>
      <point x="466" y="1039"/>
      <point x="552" y="964"/>
      <point x="552" y="842" type="curve" smooth="yes"/>
      <point x="552" y="596"/>
      <point x="385" y="430"/>
      <point x="66" y="72" type="curve"/>
      <point x="66" y="0" type="line"/>
      <point x="766" y="0" type="line"/>
    </contour>
  </outline>
</glyph>
<glyph name="three" format="2">
  <advance width="944"/>
  <unicode hex="0033"/>
  <outline>
    <contour>
      <point x="847" y="430" type="curve" smooth="yes"/>
      <point x="847" y="602"/>
      <point x="743" y="698"/>
      <point x="629" y="749" type="curve"/>
      <point x="716" y="803"/>
      <point x="787" y="884"/>
      <point x="787" y="997" type="curve" smooth="yes" name="hr01"/>
      <point x="787" y="1157"/>
      <point x="631" y="1253"/>
      <point x="478" y="1253" type="curve" smooth="yes"/>
      <point x="262" y="1253"/>
      <point x="161" y="1092"/>
      <point x="91" y="937" type="curve"/>
      <point x="148" y="913" type="line"/>
      <point x="197" y="1000"/>
      <point x="275" y="1072"/>
      <point x="361" y="1072" type="curve" smooth="yes"/>
      <point x="464" y="1072"/>
      <point x="542" y="991"/>
      <point x="542" y="888" type="curve" smooth="yes"/>
      <point x="542" y="750"/>
      <point x="406" y="683"/>
      <point x="253" y="671" type="curve"/>
      <point x="253" y="599" type="line"/>
      <point x="476" y="581"/>
      <point x="618" y="449"/>
      <point x="618" y="251" type="curve" smooth="yes" name="hr02"/>
      <point x="618" y="155"/>
      <point x="552" y="91"/>
      <point x="457" y="91" type="curve" smooth="yes"/>
      <point x="304" y="91"/>
      <point x="260" y="220"/>
      <point x="158" y="220" type="curve" smooth="yes" name="hr03"/>
      <point x="90" y="220"/>
      <point x="58" y="169"/>
      <point x="58" y="114" type="curve" smooth="yes"/>
      <point x="58" y="1"/>
      <point x="220" y="-26"/>
      <point x="344" y="-26" type="curve" smooth="yes"/>
      <point x="632" y="-26"/>
      <point x="847" y="166"/>
    </contour>
  </outline>
</glyph>
<glyph name="six" format="2">
  <advance width="944"/>
  <unicode hex="0036"/>
  <outline>
    <contour>
      <point x="877" y="1182" type="curve"/>
      <point x="877" y="1253" type="line"/>
      <point x="852" y="1253" type="line" smooth="yes"/>
      <point x="374" y="1253"/>
      <point x="71" y="881"/>
      <point x="71" y="473" type="curve" smooth="yes"/>
      <point x="71" y="236"/>
      <point x="220" y="-26"/>
      <point x="469" y="-26" type="curve" smooth="yes"/>
      <point x="726" y="-26"/>
      <point x="871" y="188"/>
      <point x="871" y="422" type="curve" smooth="yes"/>
      <point x="871" y="610"/>
      <point x="757" y="782"/>
      <point x="553" y="782" type="curve" smooth="yes"/>
      <point x="481" y="782"/>
      <point x="420" y="766"/>
      <point x="367" y="730" type="curve"/>
      <point x="414" y="929"/>
      <point x="556" y="1158"/>
    </contour>
    <contour>
      <point x="616" y="310" type="curve" smooth="yes"/>
      <point x="616" y="119"/>
      <point x="562" y="58"/>
      <point x="511" y="58" type="curve" smooth="yes"/>
      <point x="425" y="58"/>
      <point x="350" y="169"/>
      <point x="350" y="461" type="curve" smooth="yes"/>
      <point x="350" y="505"/>
      <point x="356" y="632"/>
      <point x="356" y="632" type="curve"/>
      <point x="366" y="637"/>
      <point x="410" y="660"/>
      <point x="452" y="660" type="curve" smooth="yes"/>
      <point x="583" y="660"/>
      <point x="616" y="484"/>
    </contour>
  </outline>
</glyph>
<glyph name="seven" format="2">
  <advance width="944"/>
  <unicode hex="0037"/>
  <outline>
    <contour>
      <point x="856" y="1154" type="line"/>
      <point x="856" y="1226" type="line"/>
      <point x="208" y="1226" type="line"/>
      <point x="53" y="847" type="line"/>
      <point x="121" y="827" type="line"/>
      <point x="204" y="967"/>
      <point x="212" y="988"/>
      <point x="379" y="988" type="curve" smooth="yes"/>
      <point x="654" y="988" type="line"/>
      <point x="319" y="-26" type="line"/>
      <point x="461" y="-26" type="line"/>
    </contour>
  </outline>
</glyph>
<glyph name="nine" format="2">
  <advance width="944"/>
  <unicode hex="0039"/>
  <outline>
    <contour>
      <point x="886" y="754" type="curve" smooth="yes"/>
      <point x="886" y="990"/>
      <point x="738" y="1253"/>
      <point x="488" y="1253" type="curve" smooth="yes"/>
      <point x="206" y="1253"/>
      <point x="85" y="1038"/>
      <point x="85" y="804" type="curve" smooth="yes"/>
      <point x="85" y="617"/>
      <point x="199" y="444"/>
      <point x="404" y="444" type="curve" smooth="yes"/>
      <point x="475" y="444"/>
      <point x="536" y="461"/>
      <point x="590" y="497" type="curve"/>
      <point x="529" y="271"/>
      <point x="395" y="64"/>
      <point x="80" y="46" type="curve"/>
      <point x="80" y="-26" type="line"/>
      <point x="110" y="-26" type="line" smooth="yes"/>
      <point x="584" y="-26"/>
      <point x="886" y="347"/>
    </contour>
    <contour>
      <point x="610" y="757" type="curve" smooth="yes"/>
      <point x="610" y="706"/>
      <point x="600" y="594"/>
      <point x="600" y="594" type="curve"/>
      <point x="600" y="594"/>
      <point x="546" y="566"/>
      <point x="504" y="566" type="curve" smooth="yes"/>
      <point x="398" y="566"/>
      <point x="342" y="719"/>
      <point x="342" y="917" type="curve" smooth="yes"/>
      <point x="342" y="1108"/>
      <point x="395" y="1169"/>
      <point x="445" y="1169" type="curve" smooth="yes"/>
      <point x="538" y="1169"/>
      <point x="610" y="1036"/>
    </contour>
  </outline>
</glyph>
<glyph name="colon" format="2">
  <advance width="1016"/>
  <unicode hex="003A"/>
  <outline>
    <contour>
      <point x="690" y="870" type="curve" smooth="yes"/>
      <point x="690" y="970"/>
      <point x="608" y="1051"/>
      <point x="508" y="1051" type="curve" smooth="yes"/>
      <point x="409" y="1051"/>
      <point x="326" y="970"/>
      <point x="326" y="870" type="curve" smooth="yes"/>
      <point x="326" y="771"/>
      <point x="409" y="689"/>
      <point x="508" y="689" type="curve" smooth="yes"/>
      <point x="608" y="689"/>
      <point x="690" y="771"/>
    </contour>
    <contour>
      <point x="690" y="155" type="curve" smooth="yes"/>
      <point x="690" y="255"/>
      <point x="608" y="335"/>
      <point x="508" y="335" type="curve" smooth="yes"/>
      <point x="409" y="335"/>
      <point x="326" y="255"/>
      <point x="326" y="155" type="curve" smooth="yes"/>
      <point x="326" y="55"/>
      <point x="409" y="-26"/>
      <point x="508" y="-26" type="curve" smooth="yes"/>
      <point x="608" y="-26"/>
      <point x="690" y="55"/>
    </contour>
  </outline>
</glyph>
<glyph name="semicolon" format="2">
  <advance width="670"/>
  <unicode hex="003B"/>
  <outline>
    <contour>
      <point x="555" y="870" type="curve" smooth="yes"/>
      <point x="555" y="970"/>
      <point x="474" y="1051"/>
      <point x="374" y="1051" type="curve" smooth="yes"/>
      <point x="274" y="1051"/>
      <point x="193" y="970"/>
      <point x="193" y="870" type="curve" smooth="yes"/>
      <point x="193" y="771"/>
      <point x="274" y="689"/>
      <point x="374" y="689" type="curve" smooth="yes"/>
      <point x="474" y="689"/>
      <point x="555" y="771"/>
    </contour>
    <contour>
      <point x="583" y="62" type="curve" smooth="yes"/>
      <point x="583" y="244"/>
      <point x="477" y="335"/>
      <point x="348" y="335" type="curve" smooth="yes"/>
      <point x="249" y="335"/>
      <point x="167" y="255"/>
      <point x="167" y="155" type="curve" smooth="yes"/>
      <point x="167" y="55"/>
      <point x="249" y="-15"/>
      <point x="348" y="-15" type="curve" smooth="yes"/>
      <point x="393" y="-15"/>
      <point x="409" y="10"/>
      <point x="426" y="10" type="curve" smooth="yes"/>
      <point x="445" y="10"/>
      <point x="450" y="-13"/>
      <point x="450" y="-29" type="curve" smooth="yes" name="hr01"/>
      <point x="450" y="-107"/>
      <point x="400" y="-267"/>
      <point x="209" y="-345" type="curve"/>
      <point x="209" y="-393" type="line"/>
      <point x="432" y="-328"/>
      <point x="583" y="-164"/>
    </contour>
  </outline>
</glyph>
<glyph name="less" format="2">
  <advance width="1782"/>
  <unicode hex="003C"/>
  <outline>
    <contour>
      <point x="356" y="480" type="line"/>
      <point x="1426" y="70" type="line"/>
      <point x="1426" y="210" type="line"/>
      <point x="545" y="534" type="line"/>
      <point x="1426" y="859" type="line"/>
      <point x="1426" y="1000" type="line"/>
      <point x="356" y="590" type="line"/>
    </contour>
  </outline>
</glyph>
<glyph name="equal" format="2">
  <advance width="1123"/>
  <unicode hex="003D"/>
  <outline>
    <contour>
      <point x="1063" y="642" type="line"/>
      <point x="1063" y="764" type="line"/>
      <point x="60" y="764" type="line"/>
      <point x="60" y="642" type="line"/>
    </contour>
    <contour>
      <point x="1063" y="306" type="line"/>
      <point x="1063" y="428" type="line"/>
      <point x="60" y="428" type="line"/>
      <point x="60" y="306" type="line"/>
    </contour>
  </outline>
</glyph>
<glyph name="question" format="2">
  <advance width="864"/>
  <unicode hex="003F"/>
  <outline>
    <contour>
      <point x="791" y="966" type="curve" smooth="yes"/>
      <point x="791" y="1164"/>
      <point x="636" y="1253"/>
      <point x="446" y="1253" type="curve" smooth="yes"/>
      <point x="176" y="1253"/>
      <point x="84" y="1088"/>
      <point x="84" y="960" type="curve" smooth="yes"/>
      <point x="84" y="881"/>
      <point x="140" y="823"/>
      <point x="223" y="823" type="curve" smooth="yes"/>
      <point x="283" y="823"/>
      <point x="322" y="871"/>
      <point x="322" y="926" type="curve" smooth="yes"/>
      <point x="322" y="991"/>
      <point x="266" y="1064"/>
      <point x="266" y="1100" type="curve" smooth="yes"/>
      <point x="266" y="1141"/>
      <point x="324" y="1170"/>
      <point x="382" y="1170" type="curve" smooth="yes" name="hr01"/>
      <point x="481" y="1170"/>
      <point x="533" y="1098"/>
      <point x="533" y="956" type="curve" smooth="yes"/>
      <point x="533" y="874"/>
      <point x="517" y="794"/>
      <point x="468" y="694" type="curve" smooth="yes"/>
      <point x="404" y="564"/>
      <point x="376" y="481"/>
      <point x="376" y="365" type="curve"/>
      <point x="448" y="365" type="line"/>
      <point x="448" y="582"/>
      <point x="791" y="750"/>
    </contour>
    <contour>
      <point x="548" y="110" type="curve" name="hr02"/>
      <point x="548" y="187"/>
      <point x="485" y="250"/>
      <point x="409" y="250" type="curve" smooth="yes"/>
      <point x="334" y="250"/>
      <point x="272" y="187"/>
      <point x="272" y="110" type="curve" smooth="yes"/>
      <point x="272" y="36"/>
      <point x="334" y="-26"/>
      <point x="409" y="-26" type="curve" smooth="yes"/>
      <point x="485" y="-26"/>
      <point x="548" y="36"/>
    </contour>
  </outline>
</glyph>
<glyph name="at" format="2">
  <advance width="1723"/>
  <unicode hex="0040"/>
  <outline>
    <contour>
      <point x="1627" y="150" type="line"/>
      <point x="1520" y="-144"/>
      <point x="1237" y="-349"/>
      <point x="892" y="-349" type="curve" smooth="yes"/>
      <point x="500" y="-349"/>
      <point x="176" y="-78"/>
      <point x="176" y="350" type="curve" smooth="yes"/>
      <point x="176" y="804"/>
      <point x="488" y="1196"/>
      <point x="984" y="1196" type="curve" smooth="yes"/>
      <point x="1328" y="1196"/>
      <point x="1558" y="953"/>
      <point x="1558" y="638" type="curve" smooth="yes"/>
      <point x="1558" y="454"/>
      <point x="1492" y="314"/>
      <point x="1411" y="218" type="curve" smooth="yes"/>
      <point x="1325" y="116"/>
      <point x="1223" y="65"/>
      <point x="1171" y="65" type="curve" smooth="yes"/>
      <point x="1121" y="65"/>
      <point x="1094" y="103"/>
      <point x="1094" y="138" type="curve" smooth="yes"/>
      <point x="1094" y="227"/>
      <point x="1136" y="340"/>
      <point x="1291" y="858" type="curve"/>
      <point x="1069" y="838" type="line"/>
      <point x="1036" y="734" type="line"/>
      <point x="1033" y="766"/>
      <point x="1019" y="871"/>
      <point x="911" y="871" type="curve" smooth="yes"/>
      <point x="701" y="871"/>
      <point x="439" y="514"/>
      <point x="439" y="203" type="curve" smooth="yes"/>
      <point x="439" y="106"/>
      <point x="481" y="0"/>
      <point x="587" y="0" type="curve" smooth="yes"/>
      <point x="732" y="0"/>
      <point x="818" y="146"/>
      <point x="905" y="286" type="curve"/>
      <point x="892" y="239"/>
      <point x="882" y="198"/>
      <point x="882" y="163" type="curve" smooth="yes"/>
      <point x="882" y="44"/>
      <point x="966" y="0"/>
      <point x="1067" y="0" type="curve" smooth="yes"/>
      <point x="1386" y="0"/>
      <point x="1609" y="302"/>
      <point x="1609" y="636" type="curve" smooth="yes"/>
      <point x="1609" y="990"/>
      <point x="1384" y="1253"/>
      <point x="954" y="1253" type="curve" smooth="yes"/>
      <point x="416" y="1253"/>
      <point x="84" y="870"/>
      <point x="84" y="392" type="curve" smooth="yes"/>
      <point x="84" y="-90"/>
      <point x="442" y="-401"/>
      <point x="882" y="-401" type="curve" smooth="yes"/>
      <point x="1262" y="-401"/>
      <point x="1554" y="-184"/>
      <point x="1682" y="150" type="curve"/>
    </contour>
    <contour>
      <point x="995" y="683" type="curve" smooth="yes"/>
      <point x="995" y="466"/>
      <point x="818" y="168"/>
      <point x="720" y="168" type="curve" smooth="yes" name="hr01"/>
      <point x="690" y="168"/>
      <point x="673" y="212"/>
      <point x="673" y="248" type="curve" smooth="yes"/>
      <point x="673" y="382"/>
      <point x="803" y="806"/>
      <point x="932" y="806" type="curve" smooth="yes"/>
      <point x="980" y="806"/>
      <point x="995" y="737"/>
    </contour>
  </outline>
</glyph>
<glyph name="C" format="2">
  <advance width="1339"/>
  <unicode hex="0043"/>
  <anchor x="751" y="-86" name="below"/>
  <outline>
    <contour>
      <point x="1201" y="349" type="line"/>
      <point x="1118" y="221"/>
      <point x="986" y="82"/>
      <point x="793" y="82" type="curve" smooth="yes"/>
      <point x="558" y="82"/>
      <point x="397" y="278"/>
      <point x="397" y="589" type="curve" smooth="yes"/>
      <point x="397" y="900"/>
      <point x="509" y="1150"/>
      <point x="760" y="1150" type="curve" smooth="yes"/>
      <point x="924" y="1150"/>
      <point x="1102" y="1013"/>
      <point x="1154" y="782" type="curve"/>
      <point x="1226" y="782" type="line"/>
      <point x="1199" y="1255" type="line" name="hr01"/>
      <point x="1129" y="1255" type="line"/>
      <point x="1114" y="1206"/>
      <point x="1111" y="1164"/>
      <point x="1061" y="1164" type="curve"/>
      <point x="1025" y="1164"/>
      <point x="904" y="1253"/>
      <point x="716" y="1253" type="curve" smooth="yes" name="hr02"/>
      <point x="299" y="1253"/>
      <point x="85" y="910"/>
      <point x="85" y="589" type="curve" smooth="yes"/>
      <point x="85" y="269"/>
      <point x="294" y="-26"/>
      <point x="733" y="-26" type="curve" smooth="yes"/>
      <point x="1042" y="-26"/>
      <point x="1192" y="169"/>
      <point x="1267" y="298" type="curve"/>
    </contour>
  </outline>
</glyph>
<glyph name="D" format="2">
  <advance width="1326"/>
  <unicode hex="0044"/>
  <outline>
    <contour>
      <point x="1250" y="613" type="curve" smooth="yes"/>
      <point x="1250" y="950"/>
      <point x="1024" y="1226"/>
      <point x="638" y="1226" type="curve" smooth="yes"/>
      <point x="25" y="1226" type="line"/>
      <point x="25" y="1154" type="line" name="hr01"/>
      <point x="173" y="1154"/>
      <point x="198" y="1110"/>
      <point x="198" y="984" type="curve" smooth="yes"/>
      <point x="198" y="242" type="line" smooth="yes"/>
      <point x="198" y="116"/>
      <point x="173" y="72"/>
      <point x="25" y="72" type="curve"/>
      <point x="25" y="0" type="line"/>
      <point x="638" y="0" type="line" smooth="yes"/>
      <point x="1024" y="0"/>
      <point x="1250" y="264"/>
    </contour>
    <contour>
      <point x="924" y="613" type="curve" smooth="yes"/>
      <point x="924" y="370"/>
      <point x="851" y="104"/>
      <point x="599" y="104" type="curve" smooth="yes" name="hr02"/>
      <point x="547" y="104"/>
      <point x="504" y="110"/>
      <point x="484" y="122" type="curve"/>
      <point x="484" y="1115" type="line"/>
      <point x="484" y="1115"/>
      <point x="512" y="1120"/>
      <point x="554" y="1120" type="curve" smooth="yes"/>
      <point x="844" y="1120"/>
      <point x="924" y="847"/>
    </contour>
  </outline>
</glyph>
<glyph name="E" format="2">
  <advance width="1218"/>
  <unicode hex="0045"/>
  <anchor x="636" y="1308" name="above"/>
  <outline>
    <contour>
      <point x="1133" y="355" type="line"/>
      <point x="1058" y="355" type="line"/>
      <point x="960" y="181"/>
      <point x="910" y="103"/>
      <point x="696" y="103" type="curve" smooth="yes"/>
      <point x="599" y="103" type="line" smooth="yes"/>
      <point x="498" y="103"/>
      <point x="496" y="158"/>
      <point x="496" y="253" type="curve" smooth="yes"/>
      <point x="496" y="572" type="line"/>
      <point x="606" y="572" type="line" smooth="yes"/>
      <point x="758" y="572"/>
      <point x="780" y="520"/>
      <point x="800" y="377" type="curve"/>
      <point x="872" y="377" type="line"/>
      <point x="872" y="889" type="line"/>
      <point x="800" y="889" type="line"/>
      <point x="780" y="746"/>
      <point x="756" y="677"/>
      <point x="606" y="677" type="curve" smooth="yes"/>
      <point x="496" y="677" type="line"/>
      <point x="496" y="1120" type="line"/>
      <point x="725" y="1120" type="line" smooth="yes"/>
      <point x="907" y="1120"/>
      <point x="922" y="1054"/>
      <point x="964" y="896" type="curve"/>
      <point x="1033" y="896" type="line"/>
      <point x="1019" y="1226" type="line"/>
      <point x="40" y="1226" type="line"/>
      <point x="40" y="1156" type="line" name="hr01"/>
      <point x="197" y="1156"/>
      <point x="214" y="1117"/>
      <point x="214" y="965" type="curve" smooth="yes"/>
      <point x="214" y="265" type="line" smooth="yes"/>
      <point x="214" y="115"/>
      <point x="192" y="72"/>
      <point x="40" y="72" type="curve"/>
      <point x="40" y="0" type="line"/>
      <point x="1007" y="0" type="line"/>
    </contour>
  </outline>
</glyph>
<glyph name="F" format="2">
  <advance width="1127"/>
  <unicode hex="0046"/>
  <outline>
    <contour>
      <point x="1033" y="896" type="line"/>
      <point x="1020" y="1226" type="line"/>
      <point x="37" y="1226" type="line"/>
      <point x="37" y="1154" type="line" name="hr01"/>
      <point x="185" y="1154"/>
      <point x="211" y="1110"/>
      <point x="211" y="984" type="curve" smooth="yes"/>
      <point x="211" y="242" type="line" smooth="yes"/>
      <point x="211" y="116"/>
      <point x="185" y="72"/>
      <point x="37" y="72" type="curve"/>
      <point x="37" y="0" type="line"/>
      <point x="671" y="0" type="line"/>
      <point x="671" y="72" type="line"/>
      <point x="514" y="72"/>
      <point x="496" y="124"/>
      <point x="496" y="242" type="curve" smooth="yes"/>
      <point x="496" y="572" type="line"/>
      <point x="608" y="572" type="line" smooth="yes"/>
      <point x="758" y="572"/>
      <point x="780" y="520"/>
      <point x="799" y="377" type="curve"/>
      <point x="872" y="377" type="line"/>
      <point x="872" y="889" type="line"/>
      <point x="800" y="889" type="line"/>
      <point x="780" y="746"/>
      <point x="756" y="677"/>
      <point x="608" y="677" type="curve" smooth="yes"/>
      <point x="496" y="677" type="line"/>
      <point x="496" y="1120" type="line" name="hr02"/>
      <point x="724" y="1120" type="line" smooth="yes"/>
      <point x="907" y="1120"/>
      <point x="922" y="1054"/>
      <point x="962" y="896" type="curve"/>
    </contour>
  </outline>
</glyph>
<glyph name="I" format="2">
  <advance width="706"/>
  <unicode hex="0049"/>
  <anchor x="358" y="1308" name="above"/>
  <outline>
    <contour>
      <point x="668" y="0" type="line"/>
      <point x="668" y="72" type="line"/>
      <point x="521" y="72"/>
      <point x="496" y="104"/>
      <point x="496" y="230" type="curve" smooth="yes"/>
      <point x="496" y="984" type="line" smooth="yes"/>
      <point x="496" y="1110"/>
      <point x="521" y="1154"/>
      <point x="668" y="1154" type="curve"/>
      <point x="668" y="1226" type="line"/>
      <point x="37" y="1226" type="line"/>
      <point x="37" y="1154" type="line"/>
      <point x="185" y="1154"/>
      <point x="211" y="1110"/>
      <point x="211" y="984" type="curve" smooth="yes"/>
      <point x="211" y="230" type="line" smooth="yes"/>
      <point x="211" y="104"/>
      <point x="185" y="72"/>
      <point x="37" y="72" type="curve"/>
      <point x="37" y="0" type="line"/>
    </contour>
  </outline>
</glyph>
<glyph name="J" format="2">
  <advance width="926"/>
  <unicode hex="004A"/>
  <outline>
    <contour>
      <point x="917" y="1226" type="line"/>
      <point x="272" y="1226" type="line"/>
      <point x="272" y="1154" type="line"/>
      <point x="420" y="1154"/>
      <point x="458" y="1110"/>
      <point x="458" y="984" type="curve" smooth="yes"/>
      <point x="458" y="248" type="line" smooth="yes"/>
      <point x="458" y="140"/>
      <point x="427" y="68"/>
      <point x="374" y="68" type="curve" smooth="yes"/>
      <point x="254" y="68"/>
      <point x="341" y="307"/>
      <point x="154" y="307" type="curve" smooth="yes" name="hr01"/>
      <point x="94" y="307"/>
      <point x="44" y="258"/>
      <point x="44" y="179" type="curve" smooth="yes"/>
      <point x="44" y="64"/>
      <point x="150" y="-26"/>
      <point x="331" y="-26" type="curve" smooth="yes"/>
      <point x="515" y="-26"/>
      <point x="743" y="101"/>
      <point x="743" y="490" type="curve" smooth="yes"/>
      <point x="743" y="984" type="line" smooth="yes"/>
      <point x="743" y="1110"/>
      <point x="768" y="1154"/>
      <point x="917" y="1154" type="curve"/>
    </contour>
  </outline>
</glyph>
<glyph name="K" format="2">
  <advance width="1439"/>
  <unicode hex="004B"/>
  <outline>
    <contour>
      <point x="1462" y="0" type="line"/>
      <point x="1462" y="72" type="line"/>
      <point x="1400" y="72"/>
      <point x="1304" y="106"/>
      <point x="1194" y="221" type="curve" smooth="yes"/>
      <point x="721" y="713" type="line"/>
      <point x="1076" y="1078" type="line" smooth="yes"/>
      <point x="1146" y="1133"/>
      <point x="1180" y="1154"/>
      <point x="1289" y="1154" type="curve"/>
      <point x="1289" y="1226" type="line"/>
      <point x="776" y="1226" type="line"/>
      <point x="776" y="1154" type="line"/>
      <point x="858" y="1154"/>
      <point x="894" y="1150"/>
      <point x="894" y="1102" type="curve" smooth="yes"/>
      <point x="894" y="1051"/>
      <point x="496" y="696"/>
      <point x="496" y="696" type="curve"/>
      <point x="496" y="984" type="line" smooth="yes"/>
      <point x="496" y="1110"/>
      <point x="518" y="1154"/>
      <point x="638" y="1154" type="curve"/>
      <point x="638" y="1226" type="line"/>
      <point x="37" y="1226" type="line"/>
      <point x="37" y="1154" type="line"/>
      <point x="185" y="1154"/>
      <point x="211" y="1110"/>
      <point x="211" y="984" type="curve" smooth="yes" name="hr01"/>
      <point x="211" y="242" type="line" smooth="yes"/>
      <point x="211" y="116"/>
      <point x="185" y="72"/>
      <point x="37" y="72" type="curve"/>
      <point x="37" y="0" type="line"/>
      <point x="644" y="0" type="line"/>
      <point x="644" y="72" type="line"/>
      <point x="521" y="72"/>
      <point x="496" y="116"/>
      <point x="496" y="242" type="curve" smooth="yes"/>
      <point x="496" y="517" type="line"/>
      <point x="528" y="545" type="line"/>
      <point x="854" y="199" type="line" smooth="yes"/>
      <point x="876" y="173"/>
      <point x="882" y="146"/>
      <point x="882" y="126" type="curve" smooth="yes"/>
      <point x="882" y="94"/>
      <point x="853" y="72"/>
      <point x="786" y="72" type="curve"/>
      <point x="786" y="0" type="line"/>
    </contour>
  </outline>
</glyph>
<glyph name="L" format="2">
  <advance width="1218"/>
  <unicode hex="004C"/>
  <outline>
    <contour>
      <point x="1192" y="430" type="line"/>
      <point x="1120" y="430" type="line"/>
      <point x="1020" y="174"/>
      <point x="916" y="107"/>
      <point x="788" y="107" type="curve" smooth="yes"/>
      <point x="694" y="107" type="line" smooth="yes"/>
      <point x="510" y="107"/>
      <point x="493" y="134"/>
      <point x="493" y="242" type="curve" smooth="yes"/>
      <point x="493" y="984" type="line" smooth="yes"/>
      <point x="493" y="1110"/>
      <point x="533" y="1154"/>
      <point x="680" y="1154" type="curve"/>
      <point x="680" y="1226" type="line"/>
      <point x="36" y="1226" type="line"/>
      <point x="36" y="1154" type="line"/>
      <point x="184" y="1154"/>
      <point x="209" y="1110"/>
      <point x="209" y="984" type="curve" smooth="yes"/>
      <point x="209" y="242" type="line" smooth="yes"/>
      <point x="209" y="116"/>
      <point x="184" y="72"/>
      <point x="36" y="72" type="curve" name="hr01"/>
      <point x="36" y="0" type="line"/>
      <point x="1061" y="0" type="line"/>
    </contour>
  </outline>
</glyph>
<glyph name="M" format="2">
  <advance width="1741"/>
  <unicode hex="004D"/>
  <outline>
    <contour>
      <point x="1708" y="0" type="line"/>
      <point x="1708" y="72" type="line"/>
      <point x="1560" y="72"/>
      <point x="1532" y="92"/>
      <point x="1532" y="218" type="curve" smooth="yes"/>
      <point x="1532" y="996" type="line" smooth="yes"/>
      <point x="1532" y="1122"/>
      <point x="1560" y="1154"/>
      <point x="1708" y="1154" type="curve"/>
      <point x="1708" y="1226" type="line"/>
      <point x="1228" y="1226" type="line"/>
      <point x="860" y="419" type="line"/>
      <point x="532" y="1226" type="line"/>
      <point x="37" y="1226" type="line"/>
      <point x="37" y="1154" type="line"/>
      <point x="185" y="1154"/>
      <point x="187" y="1122"/>
      <point x="187" y="996" type="curve" smooth="yes"/>
      <point x="187" y="218" type="line" smooth="yes"/>
      <point x="187" y="84"/>
      <point x="127" y="72"/>
      <point x="13" y="72" type="curve"/>
      <point x="13" y="0" type="line"/>
      <point x="480" y="0" type="line"/>
      <point x="480" y="72" type="line"/>
      <point x="361" y="72"/>
      <point x="301" y="84"/>
      <point x="301" y="218" type="curve" smooth="yes"/>
      <point x="301" y="1038" type="line"/>
      <point x="744" y="0" type="line"/>
      <point x="802" y="0" type="line"/>
      <point x="1248" y="1007" type="line"/>
      <point x="1248" y="218" type="line" smooth="yes"/>
      <point x="1248" y="92"/>
      <point x="1199" y="72"/>
      <point x="1051" y="72" type="curve"/>
      <point x="1051" y="0" type="line"/>
    </contour>
  </outline>
</glyph>
<glyph name="N" format="2">
  <advance width="1296"/>
  <unicode hex="004E"/>
  <anchor x="661" y="1308" name="above"/>
  <outline>
    <contour>
      <point x="1262" y="1154" type="curve"/>
      <point x="1262" y="1226" type="line"/>
      <point x="857" y="1226" type="line"/>
      <point x="857" y="1154" type="line"/>
      <point x="977" y="1154"/>
      <point x="1009" y="1133"/>
      <point x="1009" y="1022" type="curve" smooth="yes"/>
      <point x="1009" y="480" type="line"/>
      <point x="433" y="1226" type="line"/>
      <point x="30" y="1226" type="line"/>
      <point x="30" y="1156" type="line"/>
      <point x="109" y="1156"/>
      <point x="114" y="1147"/>
      <point x="187" y="1052" type="curve"/>
      <point x="187" y="204" type="line" smooth="yes"/>
      <point x="187" y="94"/>
      <point x="144" y="72"/>
      <point x="30" y="72" type="curve"/>
      <point x="30" y="0" type="line"/>
      <point x="466" y="0" type="line"/>
      <point x="466" y="72" type="line"/>
      <point x="346" y="72"/>
      <point x="301" y="94"/>
      <point x="301" y="204" type="curve" smooth="yes"/>
      <point x="301" y="907" type="line"/>
      <point x="1018" y="-19" type="line" name="hr01"/>
      <point x="1123" y="-19" type="line"/>
      <point x="1123" y="1022" type="line" smooth="yes"/>
      <point x="1123" y="1133"/>
      <point x="1148" y="1154"/>
    </contour>
  </outline>
</glyph>
<glyph name="O" format="2">
  <advance width="1435"/>
  <unicode hex="004F"/>
  <anchor x="712" y="1308" name="above"/>
  <outline>
    <contour>
      <point x="1369" y="613" type="curve" smooth="yes"/>
      <point x="1369" y="961"/>
      <point x="1121" y="1253"/>
      <point x="716" y="1253" type="curve" smooth="yes"/>
      <point x="341" y="1253"/>
      <point x="66" y="970"/>
      <point x="66" y="613" type="curve" smooth="yes"/>
      <point x="66" y="266"/>
      <point x="314" y="-29"/>
      <point x="719" y="-29" type="curve" smooth="yes"/>
      <point x="1123" y="-29"/>
      <point x="1369" y="270"/>
    </contour>
    <contour>
      <point x="1043" y="607" type="curve" smooth="yes"/>
      <point x="1043" y="377"/>
      <point x="973" y="65"/>
      <point x="716" y="65" type="curve" smooth="yes"/>
      <point x="460" y="65"/>
      <point x="392" y="407"/>
      <point x="392" y="620" type="curve" smooth="yes"/>
      <point x="392" y="853"/>
      <point x="460" y="1162"/>
      <point x="716" y="1162" type="curve" smooth="yes"/>
      <point x="973" y="1162"/>
      <point x="1043" y="852"/>
    </contour>
  </outline>
</glyph>
<glyph name="P" format="2">
  <advance width="1127"/>
  <unicode hex="0050"/>
  <outline>
    <contour>
      <point x="1072" y="893" type="curve" smooth="yes"/>
      <point x="1072" y="1094"/>
      <point x="907" y="1226"/>
      <point x="629" y="1226" type="curve" smooth="yes"/>
      <point x="43" y="1226" type="line"/>
      <point x="43" y="1154" type="line" name="hr01"/>
      <point x="191" y="1154"/>
      <point x="211" y="1136"/>
      <point x="211" y="1022" type="curve" smooth="yes"/>
      <point x="211" y="228" type="line" smooth="yes"/>
      <point x="211" y="102"/>
      <point x="191" y="72"/>
      <point x="43" y="72" type="curve"/>
      <point x="43" y="0" type="line"/>
      <point x="665" y="0" type="line"/>
      <point x="665" y="72" type="line"/>
      <point x="522" y="72"/>
      <point x="496" y="102"/>
      <point x="496" y="220" type="curve" smooth="yes"/>
      <point x="496" y="542" type="line"/>
      <point x="496" y="542"/>
      <point x="536" y="538"/>
      <point x="578" y="538" type="curve" smooth="yes"/>
      <point x="932" y="538"/>
      <point x="1072" y="704"/>
    </contour>
    <contour>
      <point x="770" y="893" type="curve" smooth="yes"/>
      <point x="770" y="754"/>
      <point x="720" y="642"/>
      <point x="536" y="642" type="curve" smooth="yes"/>
      <point x="516" y="642"/>
      <point x="496" y="647"/>
      <point x="496" y="647" type="curve"/>
      <point x="496" y="1115" type="line"/>
      <point x="496" y="1115"/>
      <point x="518" y="1120"/>
      <point x="536" y="1120" type="curve" smooth="yes" name="hr02"/>
      <point x="721" y="1120"/>
      <point x="770" y="1028"/>
    </contour>
  </outline>
</glyph>
<glyph name="Q" format="2">
  <advance width="1435"/>
  <unicode hex="0051"/>
  <outline>
    <contour>
      <point x="1369" y="613" type="curve" smooth="yes"/>
      <point x="1369" y="970"/>
      <point x="1114" y="1253"/>
      <point x="716" y="1253" type="curve" smooth="yes"/>
      <point x="328" y="1253"/>
      <point x="66" y="970"/>
      <point x="66" y="613" type="curve" smooth="yes"/>
      <point x="66" y="301"/>
      <point x="266" y="71"/>
      <point x="522" y="-7" type="curve"/>
      <point x="691" y="-228"/>
      <point x="992" y="-389"/>
      <point x="1364" y="-389" type="curve"/>
      <point x="1364" y="-317" type="line"/>
      <point x="1129" y="-292"/>
      <point x="997" y="-162"/>
      <point x="904" y="-8" type="curve"/>
      <point x="1147" y="56"/>
      <point x="1369" y="326"/>
    </contour>
    <contour>
      <point x="1043" y="613" type="curve" smooth="yes"/>
      <point x="1043" y="356"/>
      <point x="966" y="65"/>
      <point x="716" y="65" type="curve" smooth="yes"/>
      <point x="469" y="65"/>
      <point x="392" y="356"/>
      <point x="392" y="613" type="curve" smooth="yes"/>
      <point x="392" y="870"/>
      <point x="455" y="1162"/>
      <point x="716" y="1162" type="curve" smooth="yes"/>
      <point x="994" y="1162"/>
      <point x="1043" y="870"/>
    </contour>
  </outline>
</glyph>
<glyph name="R" format="2">
  <advance width="1333"/>
  <unicode hex="0052"/>
  <outline>
    <contour>
      <point x="1421" y="0" type="line"/>
      <point x="1421" y="72" type="line"/>
      <point x="1310" y="76"/>
      <point x="1237" y="130"/>
      <point x="1121" y="268" type="curve" smooth="yes"/>
      <point x="856" y="582" type="line"/>
      <point x="992" y="610"/>
      <point x="1098" y="716"/>
      <point x="1098" y="911" type="curve" smooth="yes"/>
      <point x="1098" y="1196"/>
      <point x="822" y="1226"/>
      <point x="542" y="1226" type="curve" smooth="yes"/>
      <point x="34" y="1226" type="line"/>
      <point x="34" y="1154" type="line" name="hr01"/>
      <point x="182" y="1154"/>
      <point x="202" y="1124"/>
      <point x="202" y="1010" type="curve" smooth="yes"/>
      <point x="202" y="240" type="line" smooth="yes"/>
      <point x="202" y="114"/>
      <point x="182" y="72"/>
      <point x="34" y="72" type="curve"/>
      <point x="34" y="0" type="line"/>
      <point x="656" y="0" type="line"/>
      <point x="656" y="72" type="line"/>
      <point x="514" y="72"/>
      <point x="486" y="114"/>
      <point x="486" y="232" type="curve" smooth="yes"/>
      <point x="486" y="553" type="line"/>
      <point x="493" y="553"/>
      <point x="505" y="552"/>
      <point x="515" y="552" type="curve" smooth="yes"/>
      <point x="527" y="552"/>
      <point x="536" y="553"/>
      <point x="540" y="554" type="curve"/>
      <point x="938" y="0" type="line"/>
    </contour>
    <contour>
      <point x="800" y="893" type="curve" smooth="yes"/>
      <point x="800" y="748"/>
      <point x="696" y="654"/>
      <point x="586" y="654" type="curve" smooth="yes"/>
      <point x="550" y="654"/>
      <point x="503" y="656"/>
      <point x="486" y="660" type="curve"/>
      <point x="486" y="1115" type="line"/>
      <point x="486" y="1115"/>
      <point x="512" y="1120"/>
      <point x="571" y="1120" type="curve" smooth="yes" name="hr02"/>
      <point x="776" y="1120"/>
      <point x="800" y="1004"/>
    </contour>
  </outline>
</glyph>
<glyph name="S" format="2">
  <advance width="1031"/>
  <unicode hex="0053"/>
  <anchor x="524" y="1308" name="above"/>
  <outline>
    <contour>
      <point x="958" y="347" type="curve" smooth="yes"/>
      <point x="958" y="728"/>
      <point x="305" y="751"/>
      <point x="305" y="1003" type="curve" smooth="yes"/>
      <point x="305" y="1100"/>
      <point x="389" y="1165"/>
      <point x="486" y="1165" type="curve" smooth="yes"/>
      <point x="643" y="1165"/>
      <point x="799" y="1022"/>
      <point x="821" y="797" type="curve"/>
      <point x="896" y="797" type="line" name="hr01"/>
      <point x="896" y="1253" type="line"/>
      <point x="827" y="1253" type="line"/>
      <point x="820" y="1208"/>
      <point x="805" y="1171"/>
      <point x="773" y="1171" type="curve" smooth="yes"/>
      <point x="707" y="1171"/>
      <point x="640" y="1253"/>
      <point x="481" y="1253" type="curve" smooth="yes"/>
      <point x="256" y="1253"/>
      <point x="97" y="1109"/>
      <point x="97" y="905" type="curve" smooth="yes"/>
      <point x="97" y="527"/>
      <point x="737" y="515"/>
      <point x="737" y="228" type="curve" smooth="yes"/>
      <point x="737" y="121"/>
      <point x="640" y="58"/>
      <point x="533" y="58" type="curve" smooth="yes"/>
      <point x="298" y="58"/>
      <point x="174" y="265"/>
      <point x="156" y="436" type="curve"/>
      <point x="85" y="436" type="line"/>
      <point x="85" y="-26" type="line"/>
      <point x="152" y="-26" type="line"/>
      <point x="175" y="16"/>
      <point x="200" y="44"/>
      <point x="245" y="44" type="curve" smooth="yes"/>
      <point x="324" y="44"/>
      <point x="346" y="-26"/>
      <point x="528" y="-26" type="curve" smooth="yes"/>
      <point x="768" y="-26"/>
      <point x="958" y="125"/>
    </contour>
  </outline>
</glyph>
<glyph name="T" format="2">
  <advance width="1235"/>
  <unicode hex="0054"/>
  <outline>
    <contour>
      <point x="1181" y="859" type="line"/>
      <point x="1169" y="1226" type="line"/>
      <point x="54" y="1226" type="line"/>
      <point x="42" y="859" type="line"/>
      <point x="115" y="859" type="line"/>
      <point x="131" y="1052"/>
      <point x="215" y="1120"/>
      <point x="384" y="1120" type="curve" smooth="yes"/>
      <point x="474" y="1120" type="line"/>
      <point x="474" y="230" type="line" smooth="yes"/>
      <point x="474" y="104"/>
      <point x="445" y="72"/>
      <point x="298" y="72" type="curve"/>
      <point x="298" y="0" type="line"/>
      <point x="936" y="0" type="line"/>
      <point x="936" y="72" type="line"/>
      <point x="787" y="72"/>
      <point x="758" y="104"/>
      <point x="758" y="230" type="curve" smooth="yes"/>
      <point x="758" y="1120" type="line"/>
      <point x="836" y="1120" type="line" smooth="yes"/>
      <point x="1008" y="1120"/>
      <point x="1091" y="1038"/>
      <point x="1109" y="859" type="curve"/>
    </contour>
  </outline>
</glyph>
<glyph name="V" format="2">
  <advance width="1339"/>
  <unicode hex="0056"/>
  <outline>
    <contour>
      <point x="1320" y="1226" type="line"/>
      <point x="870" y="1226" type="line"/>
      <point x="870" y="1154" type="line"/>
      <point x="929" y="1150"/>
      <point x="1019" y="1114"/>
      <point x="1019" y="1044" type="curve" smooth="yes"/>
      <point x="1019" y="1018"/>
      <point x="1007" y="973"/>
      <point x="992" y="936" type="curve" smooth="yes"/>
      <point x="764" y="378" type="line"/>
      <point x="490" y="985" type="line" smooth="yes"/>
      <point x="476" y="1013"/>
      <point x="454" y="1079"/>
      <point x="454" y="1097" type="curve" smooth="yes"/>
      <point x="454" y="1136"/>
      <point x="490" y="1154"/>
      <point x="602" y="1154" type="curve"/>
      <point x="602" y="1226" type="line"/>
      <point x="-4" y="1226" type="line"/>
      <point x="-4" y="1154" type="line"/>
      <point x="104" y="1135"/>
      <point x="124" y="1115"/>
      <point x="169" y="1010" type="curve" smooth="yes"/>
      <point x="635" y="-26" type="line"/>
      <point x="725" y="-26" type="line"/>
      <point x="1140" y="997" type="line" smooth="yes"/>
      <point x="1178" y="1091"/>
      <point x="1217" y="1130"/>
      <point x="1320" y="1154" type="curve"/>
    </contour>
  </outline>
</glyph>
<glyph name="W" format="2">
  <advance width="1884"/>
  <unicode hex="0057"/>
  <outline>
    <contour>
      <point x="1865" y="1226" type="line"/>
      <point x="1512" y="1226" type="line"/>
      <point x="1512" y="1154" type="line"/>
      <point x="1577" y="1154"/>
      <point x="1616" y="1142"/>
      <point x="1616" y="1079" type="curve" smooth="yes"/>
      <point x="1616" y="1049"/>
      <point x="1586" y="968"/>
      <point x="1567" y="922" type="curve" smooth="yes"/>
      <point x="1358" y="434" type="line"/>
      <point x="1127" y="1028" type="line" smooth="yes"/>
      <point x="1116" y="1057"/>
      <point x="1110" y="1080"/>
      <point x="1110" y="1098" type="curve" smooth="yes"/>
      <point x="1110" y="1141"/>
      <point x="1184" y="1154"/>
      <point x="1277" y="1154" type="curve"/>
      <point x="1277" y="1226" type="line"/>
      <point x="670" y="1226" type="line"/>
      <point x="670" y="1154" type="line"/>
      <point x="780" y="1154"/>
      <point x="810" y="1076"/>
      <point x="890" y="859" type="curve"/>
      <point x="701" y="418" type="line"/>
      <point x="484" y="990" type="line" smooth="yes"/>
      <point x="468" y="1028"/>
      <point x="462" y="1061"/>
      <point x="462" y="1085" type="curve" smooth="yes"/>
      <point x="462" y="1134"/>
      <point x="527" y="1154"/>
      <point x="602" y="1154" type="curve"/>
      <point x="602" y="1226" type="line"/>
      <point x="-4" y="1226" type="line"/>
      <point x="-4" y="1154" type="line"/>
      <point x="118" y="1154"/>
      <point x="134" y="1108"/>
      <point x="187" y="971" type="curve" smooth="yes"/>
      <point x="568" y="-26" type="line"/>
      <point x="641" y="-26" type="line"/>
      <point x="950" y="706" type="line"/>
      <point x="1240" y="-26" type="line"/>
      <point x="1313" y="-26" type="line"/>
      <point x="1704" y="968" type="line" smooth="yes"/>
      <point x="1760" y="1114"/>
      <point x="1790" y="1154"/>
      <point x="1865" y="1154" type="curve"/>
    </contour>
  </outline>
</glyph>
<glyph name="X" format="2">
  <advance width="1339"/>
  <unicode hex="0058"/>
  <outline>
    <contour>
      <point x="1386" y="0" type="line"/>
      <point x="1386" y="72" type="line"/>
      <point x="1279" y="72"/>
      <point x="1210" y="134"/>
      <point x="1174" y="186" type="curve" smooth="yes"/>
      <point x="818" y="692" type="line"/>
      <point x="1070" y="1003" type="line" smooth="yes"/>
      <point x="1153" y="1105"/>
      <point x="1193" y="1154"/>
      <point x="1289" y="1154" type="curve"/>
      <point x="1289" y="1226" type="line"/>
      <point x="826" y="1226" type="line"/>
      <point x="826" y="1154" type="line"/>
      <point x="905" y="1154"/>
      <point x="972" y="1129"/>
      <point x="972" y="1086" type="curve" smooth="yes"/>
      <point x="972" y="1062"/>
      <point x="955" y="1037"/>
      <point x="743" y="778" type="curve"/>
      <point x="538" y="1088"/>
      <point x="548" y="1080"/>
      <point x="548" y="1102" type="curve" smooth="yes"/>
      <point x="548" y="1139"/>
      <point x="586" y="1154"/>
      <point x="672" y="1154" type="curve"/>
      <point x="672" y="1226" type="line"/>
      <point x="40" y="1226" type="line"/>
      <point x="40" y="1154" type="line"/>
      <point x="89" y="1154"/>
      <point x="146" y="1139"/>
      <point x="215" y="1040" type="curve"/>
      <point x="215" y="1040"/>
      <point x="343" y="860"/>
      <point x="541" y="566" type="curve"/>
      <point x="271" y="220" type="line" smooth="yes"/>
      <point x="193" y="120"/>
      <point x="114" y="90"/>
      <point x="0" y="72" type="curve"/>
      <point x="0" y="0" type="line"/>
      <point x="532" y="0" type="line"/>
      <point x="532" y="72" type="line"/>
      <point x="425" y="72"/>
      <point x="396" y="114"/>
      <point x="396" y="146" type="curve" smooth="yes"/>
      <point x="396" y="188"/>
      <point x="409" y="216"/>
      <point x="474" y="290" type="curve" smooth="yes"/>
      <point x="616" y="454" type="line"/>
      <point x="726" y="308"/>
      <point x="805" y="180"/>
      <point x="805" y="139" type="curve" smooth="yes"/>
      <point x="805" y="101"/>
      <point x="768" y="72"/>
      <point x="690" y="72" type="curve"/>
      <point x="690" y="0" type="line"/>
    </contour>
  </outline>
</glyph>
<glyph name="Y" format="2">
  <advance width="1339"/>
  <unicode hex="0059"/>
  <anchor x="684" y="1308" name="above"/>
  <outline>
    <contour>
      <point x="1316" y="1154" type="curve"/>
      <point x="1316" y="1226" type="line"/>
      <point x="892" y="1226" type="line"/>
      <point x="892" y="1154" type="line"/>
      <point x="977" y="1154"/>
      <point x="1009" y="1134"/>
      <point x="1009" y="1103" type="curve" smooth="yes"/>
      <point x="1009" y="1074"/>
      <point x="997" y="1036"/>
      <point x="972" y="994" type="curve" smooth="yes"/>
      <point x="755" y="624" type="line"/>
      <point x="541" y="954"/>
      <point x="470" y="1067"/>
      <point x="470" y="1105" type="curve" smooth="yes"/>
      <point x="470" y="1141"/>
      <point x="518" y="1154"/>
      <point x="604" y="1154" type="curve"/>
      <point x="604" y="1226" type="line"/>
      <point x="16" y="1226" type="line"/>
      <point x="16" y="1154" type="line"/>
      <point x="95" y="1154"/>
      <point x="134" y="1108"/>
      <point x="217" y="968" type="curve" smooth="yes"/>
      <point x="526" y="448" type="line"/>
      <point x="526" y="230" type="line" smooth="yes"/>
      <point x="526" y="104"/>
      <point x="470" y="72"/>
      <point x="323" y="72" type="curve"/>
      <point x="323" y="0" type="line"/>
      <point x="1010" y="0" type="line"/>
      <point x="1010" y="72" type="line"/>
      <point x="863" y="72"/>
      <point x="811" y="104"/>
      <point x="811" y="230" type="curve" smooth="yes"/>
      <point x="811" y="496" type="line"/>
      <point x="1075" y="943" type="line" smooth="yes"/>
      <point x="1189" y="1138"/>
      <point x="1235" y="1154"/>
    </contour>
  </outline>
</glyph>
<glyph name="backslash" format="2">
  <advance width="533"/>
  <unicode hex="005C"/>
  <outline>
    <contour>
      <point x="529" y="-26" type="line"/>
      <point x="126" y="1253" type="line"/>
      <point x="11" y="1253" type="line"/>
      <point x="414" y="-26" type="line"/>
    </contour>
  </outline>
</glyph>
<glyph name="bracketright" format="2">
  <advance width="635"/>
  <unicode hex="005D"/>
  <outline>
    <contour>
      <point x="112" y="-194" type="line"/>
      <point x="128" y="-290" type="line"/>
      <point x="496" y="-241" type="line"/>
      <point x="496" y="1256" type="line"/>
      <point x="128" y="1304" type="line"/>
      <point x="112" y="1210" type="line"/>
      <point x="292" y="1175" type="line"/>
      <point x="292" y="-157" type="line"/>
    </contour>
  </outline>
</glyph>
<glyph name="asciicircum" format="2">
  <advance width="1782"/>
  <unicode hex="005E"/>
  <outline>
    <contour>
      <point x="1369" y="18" type="line"/>
      <point x="946" y="1123" type="line"/>
      <point x="836" y="1123" type="line"/>
      <point x="414" y="18" type="line"/>
      <point x="560" y="18" type="line"/>
      <point x="892" y="916" type="line"/>
      <point x="1223" y="18" type="line"/>
    </contour>
  </outline>
</glyph>
<glyph name="grave" format="2">
  <advance width="635"/>
  <unicode hex="0060"/>
  <anchor x="323" y="912" name="_above"/>
  <outline>
    <contour>
      <point x="480" y="961" type="line"/>
      <point x="239" y="1246" type="line" smooth="yes"/>
      <point x="198" y="1294"/>
      <point x="151" y="1316"/>
      <point x="103" y="1316" type="curve" smooth="yes"/>
      <point x="49" y="1316"/>
      <point x="16" y="1274"/>
      <point x="16" y="1222" type="curve" smooth="yes"/>
      <point x="16" y="1180"/>
      <point x="44" y="1148"/>
      <point x="106" y="1112" type="curve" smooth="yes"/>
      <point x="362" y="961" type="line"/>
    </contour>
  </outline>
</glyph>
<glyph name="a" format="2">
  <advance width="919"/>
  <unicode hex="0061"/>
  <anchor x="425" y="922" name="above"/>
  <outline>
    <contour>
      <point x="919" y="208" type="line"/>
      <point x="902" y="190"/>
      <point x="847" y="146"/>
      <point x="821" y="146" type="curve" smooth="yes"/>
      <point x="794" y="146"/>
      <point x="785" y="168"/>
      <point x="781" y="191" type="curve" smooth="yes"/>
      <point x="776" y="222"/>
      <point x="776" y="277"/>
      <point x="776" y="324" type="curve" smooth="yes"/>
      <point x="776" y="570" type="line" smooth="yes"/>
      <point x="776" y="776"/>
      <point x="682" y="853"/>
      <point x="425" y="853" type="curve" smooth="yes"/>
      <point x="283" y="853"/>
      <point x="86" y="774"/>
      <point x="86" y="632" type="curve" smooth="yes"/>
      <point x="86" y="563"/>
      <point x="132" y="520"/>
      <point x="198" y="520" type="curve" smooth="yes"/>
      <point x="290" y="520"/>
      <point x="318" y="590"/>
      <point x="318" y="644" type="curve" smooth="yes"/>
      <point x="318" y="748"/>
      <point x="343" y="775"/>
      <point x="406" y="775" type="curve" smooth="yes" name="hr01"/>
      <point x="482" y="775"/>
      <point x="516" y="694"/>
      <point x="516" y="582" type="curve" smooth="yes"/>
      <point x="516" y="548" type="line"/>
      <point x="353" y="490"/>
      <point x="66" y="379"/>
      <point x="66" y="197" type="curve" smooth="yes"/>
      <point x="66" y="64"/>
      <point x="136" y="-17"/>
      <point x="258" y="-17" type="curve" smooth="yes"/>
      <point x="361" y="-17"/>
      <point x="437" y="40"/>
      <point x="516" y="108" type="curve"/>
      <point x="516" y="42"/>
      <point x="576" y="-17"/>
      <point x="654" y="-17" type="curve" smooth="yes"/>
      <point x="774" y="-17"/>
      <point x="887" y="83"/>
      <point x="919" y="120" type="curve"/>
    </contour>
    <contour>
      <point x="516" y="216" type="line"/>
      <point x="479" y="176"/>
      <point x="434" y="143"/>
      <point x="395" y="143" type="curve" smooth="yes"/>
      <point x="347" y="143"/>
      <point x="320" y="187"/>
      <point x="320" y="239" type="curve" smooth="yes"/>
      <point x="320" y="320"/>
      <point x="362" y="394"/>
      <point x="516" y="462" type="curve"/>
    </contour>
  </outline>
</glyph>
<glyph name="b" format="2">
  <advance width="1027"/>
  <unicode hex="0062"/>
  <outline>
    <contour>
      <point x="976" y="484" type="curve" smooth="yes"/>
      <point x="976" y="709"/>
      <point x="838" y="853"/>
      <point x="674" y="853" type="curve" smooth="yes"/>
      <point x="586" y="853"/>
      <point x="488" y="804"/>
      <point x="403" y="685" type="curve"/>
      <point x="403" y="1285" type="line"/>
      <point x="331" y="1285" type="line"/>
      <point x="-5" y="1184" type="line"/>
      <point x="17" y="1117" type="line"/>
      <point x="37" y="1124"/>
      <point x="73" y="1130"/>
      <point x="95" y="1130" type="curve" smooth="yes"/>
      <point x="133" y="1130"/>
      <point x="145" y="1104"/>
      <point x="145" y="1008" type="curve" smooth="yes"/>
      <point x="145" y="106" type="line"/>
      <point x="233" y="43"/>
      <point x="377" y="-28"/>
      <point x="516" y="-28" type="curve" smooth="yes"/>
      <point x="775" y="-28"/>
      <point x="976" y="211"/>
    </contour>
    <contour>
      <point x="547" y="66" type="curve" smooth="yes"/>
      <point x="496" y="66"/>
      <point x="442" y="100"/>
      <point x="403" y="157" type="curve"/>
      <point x="403" y="577" type="line"/>
      <point x="450" y="636"/>
      <point x="514" y="672"/>
      <point x="557" y="672" type="curve" smooth="yes"/>
      <point x="670" y="672"/>
      <point x="709" y="535"/>
      <point x="709" y="392" type="curve" smooth="yes"/>
      <point x="709" y="234"/>
      <point x="671" y="66"/>
    </contour>
  </outline>
</glyph>
<glyph name="c" format="2">
  <advance width="862"/>
  <unicode hex="0063"/>
  <anchor x="458" y="-78" name="below"/>
  <outline>
    <contour>
      <point x="755" y="329" type="line"/>
      <point x="697" y="187"/>
      <point x="620" y="166"/>
      <point x="562" y="166" type="curve" smooth="yes"/>
      <point x="401" y="166"/>
      <point x="288" y="337"/>
      <point x="288" y="557" type="curve" smooth="yes"/>
      <point x="288" y="691"/>
      <point x="340" y="764"/>
      <point x="427" y="764" type="curve" smooth="yes"/>
      <point x="613" y="764"/>
      <point x="496" y="521"/>
      <point x="679" y="521" type="curve" smooth="yes" name="hr01"/>
      <point x="752" y="521"/>
      <point x="788" y="568"/>
      <point x="788" y="634" type="curve" smooth="yes"/>
      <point x="788" y="718"/>
      <point x="698" y="853"/>
      <point x="466" y="853" type="curve" smooth="yes"/>
      <point x="268" y="853"/>
      <point x="82" y="668"/>
      <point x="82" y="382" type="curve" smooth="yes"/>
      <point x="82" y="154"/>
      <point x="228" y="-28"/>
      <point x="452" y="-28" type="curve" smooth="yes"/>
      <point x="665" y="-28"/>
      <point x="773" y="139"/>
      <point x="808" y="306" type="curve"/>
    </contour>
  </outline>
</glyph>
<glyph name="d" format="2">
  <advance width="1021"/>
  <unicode hex="0064"/>
  <outline>
    <contour>
      <point x="1040" y="73" type="line"/>
      <point x="1019" y="140" type="line"/>
      <point x="997" y="133"/>
      <point x="960" y="127"/>
      <point x="941" y="127" type="curve" smooth="yes"/>
      <point x="902" y="127"/>
      <point x="890" y="155"/>
      <point x="890" y="250" type="curve" smooth="yes"/>
      <point x="890" y="1285" type="line"/>
      <point x="818" y="1285" type="line"/>
      <point x="482" y="1184" type="line"/>
      <point x="504" y="1117" type="line"/>
      <point x="524" y="1124"/>
      <point x="560" y="1130"/>
      <point x="582" y="1130" type="curve" smooth="yes"/>
      <point x="620" y="1130"/>
      <point x="632" y="1104"/>
      <point x="632" y="1009" type="curve" smooth="yes"/>
      <point x="632" y="781" type="line"/>
      <point x="577" y="832"/>
      <point x="512" y="853"/>
      <point x="444" y="853" type="curve" smooth="yes"/>
      <point x="253" y="853"/>
      <point x="49" y="672"/>
      <point x="49" y="390" type="curve" smooth="yes"/>
      <point x="49" y="110"/>
      <point x="233" y="-28"/>
      <point x="391" y="-28" type="curve" smooth="yes"/>
      <point x="487" y="-28"/>
      <point x="558" y="7"/>
      <point x="632" y="82" type="curve"/>
      <point x="632" y="-28" type="line"/>
      <point x="704" y="-28" type="line"/>
    </contour>
    <contour>
      <point x="632" y="199" type="line"/>
      <point x="590" y="152"/>
      <point x="546" y="109"/>
      <point x="493" y="109" type="curve" smooth="yes"/>
      <point x="401" y="109"/>
      <point x="312" y="232"/>
      <point x="312" y="472" type="curve" smooth="yes"/>
      <point x="312" y="695"/>
      <point x="388" y="770"/>
      <point x="468" y="770" type="curve" smooth="yes"/>
      <point x="550" y="770"/>
      <point x="632" y="682"/>
      <point x="632" y="572" type="curve" smooth="yes"/>
    </contour>
  </outline>
</glyph>
<glyph name="e" format="2">
  <advance width="850"/>
  <unicode hex="0065"/>
  <anchor x="466" y="912" name="above"/>
  <outline>
    <contour>
      <point x="734" y="329" type="line"/>
      <point x="685" y="208"/>
      <point x="620" y="166"/>
      <point x="541" y="166" type="curve" smooth="yes"/>
      <point x="368" y="166"/>
      <point x="269" y="335"/>
      <point x="269" y="490" type="curve"/>
      <point x="787" y="490" type="line"/>
      <point x="788" y="754"/>
      <point x="637" y="854"/>
      <point x="464" y="854" type="curve" smooth="yes"/>
      <point x="268" y="854"/>
      <point x="61" y="685"/>
      <point x="61" y="415" type="curve" smooth="yes"/>
      <point x="61" y="151"/>
      <point x="197" y="-28"/>
      <point x="434" y="-28" type="curve" smooth="yes"/>
      <point x="644" y="-28"/>
      <point x="752" y="139"/>
      <point x="787" y="306" type="curve"/>
    </contour>
    <contour>
      <point x="268" y="568" type="line"/>
      <point x="266" y="686"/>
      <point x="332" y="764"/>
      <point x="397" y="764" type="curve" smooth="yes"/>
      <point x="510" y="764"/>
      <point x="545" y="642"/>
      <point x="545" y="568" type="curve"/>
    </contour>
  </outline>
</glyph>
<glyph name="f" format="2">
  <advance width="658"/>
  <unicode hex="0066"/>
  <outline>
    <contour>
      <point x="865" y="1127" type="curve" smooth="yes"/>
      <point x="865" y="1207"/>
      <point x="779" y="1285"/>
      <point x="607" y="1285" type="curve" smooth="yes"/>
      <point x="305" y="1285"/>
      <point x="198" y="976"/>
      <point x="198" y="834" type="curve" smooth="yes"/>
      <point x="198" y="828" type="line"/>
      <point x="32" y="828" type="line"/>
      <point x="32" y="726" type="line"/>
      <point x="198" y="726" type="line"/>
      <point x="198" y="200" type="line" smooth="yes"/>
      <point x="198" y="100"/>
      <point x="155" y="72"/>
      <point x="68" y="72" type="curve"/>
      <point x="68" y="0" type="line"/>
      <point x="601" y="0" type="line"/>
      <point x="601" y="72" type="line"/>
      <point x="524" y="72"/>
      <point x="456" y="90"/>
      <point x="456" y="200" type="curve" smooth="yes"/>
      <point x="456" y="726" type="line"/>
      <point x="665" y="726" type="line"/>
      <point x="665" y="828" type="line"/>
      <point x="456" y="828" type="line"/>
      <point x="456" y="960" type="line" smooth="yes"/>
      <point x="456" y="1068"/>
      <point x="456" y="1187"/>
      <point x="526" y="1187" type="curve" smooth="yes"/>
      <point x="625" y="1187"/>
      <point x="623" y="1020"/>
      <point x="754" y="1020" type="curve" smooth="yes" name="hr01"/>
      <point x="820" y="1020"/>
      <point x="865" y="1074"/>
    </contour>
  </outline>
</glyph>
<glyph name="h" format="2">
  <advance width="1044"/>
  <unicode hex="0068"/>
  <outline>
    <contour>
      <point x="1038" y="0" type="line"/>
      <point x="1038" y="72" type="line"/>
      <point x="966" y="72"/>
      <point x="944" y="94"/>
      <point x="944" y="200" type="curve" smooth="yes"/>
      <point x="944" y="541" type="line" smooth="yes"/>
      <point x="944" y="690"/>
      <point x="899" y="853"/>
      <point x="722" y="853" type="curve" smooth="yes"/>
      <point x="583" y="853"/>
      <point x="520" y="776"/>
      <point x="414" y="680" type="curve"/>
      <point x="414" y="1285" type="line"/>
      <point x="342" y="1285" type="line"/>
      <point x="6" y="1178" type="line"/>
      <point x="37" y="1117" type="line"/>
      <point x="60" y="1126"/>
      <point x="79" y="1130"/>
      <point x="102" y="1130" type="curve" smooth="yes"/>
      <point x="138" y="1130"/>
      <point x="156" y="1103"/>
      <point x="156" y="1008" type="curve" smooth="yes"/>
      <point x="156" y="200" type="line" smooth="yes"/>
      <point x="156" y="100"/>
      <point x="139" y="72"/>
      <point x="53" y="72" type="curve"/>
      <point x="53" y="0" type="line"/>
      <point x="512" y="0" type="line"/>
      <point x="512" y="72" type="line"/>
      <point x="436" y="72"/>
      <point x="414" y="90"/>
      <point x="414" y="200" type="curve" smooth="yes"/>
      <point x="414" y="578" type="line"/>
      <point x="468" y="637"/>
      <point x="533" y="694"/>
      <point x="583" y="694" type="curve" smooth="yes"/>
      <point x="659" y="694"/>
      <point x="686" y="646"/>
      <point x="686" y="526" type="curve" smooth="yes"/>
      <point x="686" y="199" type="line" smooth="yes"/>
      <point x="686" y="80"/>
      <point x="664" y="72"/>
      <point x="587" y="72" type="curve"/>
      <point x="587" y="0" type="line"/>
    </contour>
  </outline>
</glyph>
<glyph name="k" format="2">
  <advance width="1054"/>
  <unicode hex="006B"/>
  <outline>
    <contour>
      <point x="1060" y="0" type="line"/>
      <point x="1060" y="72" type="line"/>
      <point x="1003" y="72"/>
      <point x="964" y="72"/>
      <point x="894" y="178" type="curve" smooth="yes"/>
      <point x="641" y="521" type="line"/>
      <point x="782" y="658" type="line" smooth="yes"/>
      <point x="856" y="728"/>
      <point x="898" y="751"/>
      <point x="1001" y="756" type="curve"/>
      <point x="1001" y="828" type="line"/>
      <point x="582" y="828" type="line"/>
      <point x="582" y="756" type="line"/>
      <point x="610" y="754"/>
      <point x="647" y="740"/>
      <point x="647" y="709" type="curve" smooth="yes"/>
      <point x="647" y="688"/>
      <point x="628" y="666"/>
      <point x="608" y="649" type="curve" smooth="yes"/>
      <point x="412" y="476" type="line"/>
      <point x="412" y="1285" type="line"/>
      <point x="340" y="1285" type="line"/>
      <point x="4" y="1178" type="line"/>
      <point x="35" y="1117" type="line"/>
      <point x="54" y="1124"/>
      <point x="79" y="1130"/>
      <point x="100" y="1130" type="curve" smooth="yes"/>
      <point x="136" y="1130"/>
      <point x="154" y="1103"/>
      <point x="154" y="1008" type="curve" smooth="yes" name="hr01"/>
      <point x="154" y="200" type="line" smooth="yes"/>
      <point x="154" y="100"/>
      <point x="137" y="72"/>
      <point x="50" y="72" type="curve"/>
      <point x="50" y="0" type="line"/>
      <point x="510" y="0" type="line"/>
      <point x="510" y="72" type="line"/>
      <point x="433" y="72"/>
      <point x="412" y="84"/>
      <point x="412" y="200" type="curve" smooth="yes"/>
      <point x="412" y="421" type="line"/>
      <point x="605" y="164" type="line" smooth="yes"/>
      <point x="619" y="144"/>
      <point x="635" y="116"/>
      <point x="635" y="103" type="curve" smooth="yes"/>
      <point x="635" y="76"/>
      <point x="605" y="72"/>
      <point x="570" y="72" type="curve"/>
      <point x="570" y="0" type="line"/>
    </contour>
  </outline>
</glyph>
<glyph name="m" format="2">
  <advance width="1586"/>
  <unicode hex="006D"/>
  <outline>
    <contour>
      <point x="1574" y="0" type="line"/>
      <point x="1574" y="72" type="line"/>
      <point x="1502" y="72"/>
      <point x="1482" y="94"/>
      <point x="1482" y="200" type="curve" smooth="yes"/>
      <point x="1482" y="541" type="line" smooth="yes"/>
      <point x="1482" y="691"/>
      <point x="1436" y="853"/>
      <point x="1258" y="853" type="curve" smooth="yes"/>
      <point x="1120" y="853"/>
      <point x="1009" y="779"/>
      <point x="931" y="690" type="curve"/>
      <point x="901" y="785"/>
      <point x="845" y="853"/>
      <point x="727" y="853" type="curve" smooth="yes"/>
      <point x="589" y="853"/>
      <point x="524" y="774"/>
      <point x="420" y="702" type="curve"/>
      <point x="420" y="853" type="line"/>
      <point x="348" y="853" type="line"/>
      <point x="12" y="752" type="line"/>
      <point x="34" y="685" type="line"/>
      <point x="53" y="692"/>
      <point x="91" y="698"/>
      <point x="112" y="698" type="curve" smooth="yes"/>
      <point x="150" y="698"/>
      <point x="162" y="672"/>
      <point x="162" y="576" type="curve" smooth="yes"/>
      <point x="162" y="200" type="line" smooth="yes"/>
      <point x="162" y="95"/>
      <point x="144" y="72"/>
      <point x="60" y="72" type="curve"/>
      <point x="60" y="0" type="line"/>
      <point x="518" y="0" type="line"/>
      <point x="518" y="72" type="line"/>
      <point x="442" y="72"/>
      <point x="420" y="95"/>
      <point x="420" y="200" type="curve" smooth="yes"/>
      <point x="420" y="600" type="line"/>
      <point x="474" y="659"/>
      <point x="539" y="694"/>
      <point x="589" y="694" type="curve" smooth="yes"/>
      <point x="665" y="694"/>
      <point x="692" y="646"/>
      <point x="692" y="527" type="curve" smooth="yes"/>
      <point x="692" y="200" type="line" smooth="yes"/>
      <point x="692" y="80"/>
      <point x="670" y="72"/>
      <point x="593" y="72" type="curve"/>
      <point x="593" y="0" type="line"/>
      <point x="1044" y="0" type="line"/>
      <point x="1044" y="72" type="line"/>
      <point x="971" y="72"/>
      <point x="950" y="92"/>
      <point x="950" y="199" type="curve" smooth="yes"/>
      <point x="950" y="600" type="line"/>
      <point x="1004" y="659"/>
      <point x="1069" y="694"/>
      <point x="1120" y="694" type="curve" smooth="yes"/>
      <point x="1195" y="694"/>
      <point x="1223" y="646"/>
      <point x="1223" y="526" type="curve" smooth="yes"/>
      <point x="1223" y="200" type="line" smooth="yes"/>
      <point x="1223" y="80"/>
      <point x="1200" y="72"/>
      <point x="1123" y="72" type="curve"/>
      <point x="1123" y="0" type="line"/>
    </contour>
  </outline>
</glyph>
<glyph name="n" format="2">
  <advance width="1044"/>
  <unicode hex="006E"/>
  <anchor x="550" y="912" name="above"/>
  <outline>
    <contour>
      <point x="1038" y="0" type="line"/>
      <point x="1038" y="72" type="line"/>
      <point x="966" y="72"/>
      <point x="944" y="94"/>
      <point x="944" y="199" type="curve" smooth="yes"/>
      <point x="944" y="541" type="line" smooth="yes"/>
      <point x="944" y="690"/>
      <point x="900" y="853"/>
      <point x="721" y="853" type="curve" smooth="yes"/>
      <point x="583" y="853"/>
      <point x="518" y="774"/>
      <point x="414" y="702" type="curve"/>
      <point x="414" y="853" type="line"/>
      <point x="342" y="853" type="line"/>
      <point x="6" y="752" type="line"/>
      <point x="28" y="685" type="line"/>
      <point x="48" y="692"/>
      <point x="85" y="698"/>
      <point x="106" y="698" type="curve" smooth="yes"/>
      <point x="144" y="698"/>
      <point x="156" y="672"/>
      <point x="156" y="576" type="curve" smooth="yes"/>
      <point x="156" y="199" type="line" smooth="yes"/>
      <point x="156" y="94"/>
      <point x="139" y="72"/>
      <point x="54" y="72" type="curve"/>
      <point x="54" y="0" type="line"/>
      <point x="512" y="0" type="line"/>
      <point x="512" y="72" type="line"/>
      <point x="436" y="72"/>
      <point x="414" y="95"/>
      <point x="414" y="199" type="curve" smooth="yes"/>
      <point x="414" y="600" type="line"/>
      <point x="468" y="659"/>
      <point x="533" y="694"/>
      <point x="583" y="694" type="curve" smooth="yes"/>
      <point x="659" y="694"/>
      <point x="686" y="646"/>
      <point x="686" y="526" type="curve" smooth="yes"/>
      <point x="686" y="199" type="line" smooth="yes"/>
      <point x="686" y="80"/>
      <point x="664" y="72"/>
      <point x="587" y="72" type="curve"/>
      <point x="587" y="0" type="line"/>
    </contour>
  </outline>
</glyph>
<glyph name="o" format="2">
  <advance width="938"/>
  <unicode hex="006F"/>
  <anchor x="469" y="912" name="above"/>
  <outline>
    <contour>
      <point x="887" y="431" type="curve" smooth="yes"/>
      <point x="887" y="664"/>
      <point x="716" y="853"/>
      <point x="466" y="853" type="curve" smooth="yes"/>
      <point x="208" y="853"/>
      <point x="49" y="637"/>
      <point x="49" y="406" type="curve" smooth="yes"/>
      <point x="49" y="181"/>
      <point x="210" y="-28"/>
      <point x="475" y="-28" type="curve" smooth="yes"/>
      <point x="732" y="-28"/>
      <point x="887" y="186"/>
    </contour>
    <contour>
      <point x="625" y="359" type="curve" smooth="yes"/>
      <point x="625" y="146"/>
      <point x="588" y="64"/>
      <point x="517" y="64" type="curve" smooth="yes"/>
      <point x="415" y="64"/>
      <point x="313" y="256"/>
      <point x="313" y="481" type="curve" smooth="yes"/>
      <point x="313" y="698"/>
      <point x="373" y="763"/>
      <point x="428" y="763" type="curve" smooth="yes"/>
      <point x="557" y="763"/>
      <point x="625" y="554"/>
    </contour>
  </outline>
</glyph>
<glyph name="p" format="2">
  <advance width="1034"/>
  <unicode hex="0070"/>
  <outline>
    <contour>
      <point x="978" y="484" type="curve" smooth="yes"/>
      <point x="978" y="712"/>
      <point x="832" y="853"/>
      <point x="674" y="853" type="curve" smooth="yes"/>
      <point x="580" y="853"/>
      <point x="487" y="804"/>
      <point x="402" y="685" type="curve"/>
      <point x="402" y="851" type="line" name="hr01"/>
      <point x="330" y="851" type="line"/>
      <point x="-6" y="744" type="line"/>
      <point x="25" y="683" type="line"/>
      <point x="48" y="691"/>
      <point x="68" y="696"/>
      <point x="90" y="696" type="curve" smooth="yes"/>
      <point x="126" y="696"/>
      <point x="144" y="668"/>
      <point x="144" y="574" type="curve" smooth="yes"/>
      <point x="144" y="-198" type="line" smooth="yes"/>
      <point x="144" y="-299"/>
      <point x="127" y="-326"/>
      <point x="41" y="-326" type="curve"/>
      <point x="41" y="-398" type="line"/>
      <point x="500" y="-398" type="line"/>
      <point x="500" y="-326" type="line"/>
      <point x="424" y="-326"/>
      <point x="402" y="-308"/>
      <point x="402" y="-198" type="curve" smooth="yes"/>
      <point x="402" y="25" type="line"/>
      <point x="437" y="-7"/>
      <point x="509" y="-28"/>
      <point x="563" y="-28" type="curve" smooth="yes"/>
      <point x="847" y="-28"/>
      <point x="978" y="196"/>
    </contour>
    <contour>
      <point x="712" y="392" type="curve" smooth="yes"/>
      <point x="712" y="132"/>
      <point x="632" y="55"/>
      <point x="548" y="55" type="curve" smooth="yes"/>
      <point x="456" y="55"/>
      <point x="402" y="110"/>
      <point x="402" y="215" type="curve" smooth="yes"/>
      <point x="402" y="595" type="line"/>
      <point x="461" y="658"/>
      <point x="512" y="684"/>
      <point x="556" y="684" type="curve" smooth="yes" name="hr02"/>
      <point x="668" y="684"/>
      <point x="712" y="535"/>
    </contour>
  </outline>
</glyph>
<glyph name="q" format="2">
  <advance width="1024"/>
  <unicode hex="0071"/>
  <outline>
    <contour>
      <point x="1036" y="-398" type="line"/>
      <point x="1036" y="-326" type="line"/>
      <point x="916" y="-326"/>
      <point x="900" y="-290"/>
      <point x="900" y="-214" type="curve" smooth="yes"/>
      <point x="900" y="853" type="line"/>
      <point x="845" y="853" type="line"/>
      <point x="808" y="836"/>
      <point x="760" y="787"/>
      <point x="722" y="770" type="curve"/>
      <point x="673" y="810"/>
      <point x="590" y="853"/>
      <point x="493" y="853" type="curve" smooth="yes"/>
      <point x="245" y="853"/>
      <point x="60" y="635"/>
      <point x="60" y="377" type="curve" smooth="yes"/>
      <point x="60" y="97"/>
      <point x="244" y="-28"/>
      <point x="402" y="-28" type="curve" smooth="yes"/>
      <point x="498" y="-28"/>
      <point x="569" y="7"/>
      <point x="647" y="89" type="curve"/>
      <point x="647" y="-214" type="line" smooth="yes"/>
      <point x="647" y="-293"/>
      <point x="644" y="-326"/>
      <point x="524" y="-326" type="curve"/>
      <point x="524" y="-398" type="line"/>
    </contour>
    <contour>
      <point x="647" y="187" type="line"/>
      <point x="601" y="140"/>
      <point x="557" y="109"/>
      <point x="504" y="109" type="curve" smooth="yes"/>
      <point x="413" y="109"/>
      <point x="311" y="228"/>
      <point x="311" y="456" type="curve" smooth="yes"/>
      <point x="311" y="692"/>
      <point x="390" y="776"/>
      <point x="499" y="776" type="curve" smooth="yes"/>
      <point x="599" y="776"/>
      <point x="647" y="691"/>
      <point x="647" y="614" type="curve" smooth="yes"/>
    </contour>
  </outline>
</glyph>
<glyph name="r" format="2">
  <advance width="810"/>
  <unicode hex="0072"/>
  <outline>
    <contour>
      <point x="804" y="727" type="curve" smooth="yes"/>
      <point x="804" y="805"/>
      <point x="738" y="853"/>
      <point x="660" y="853" type="curve" smooth="yes"/>
      <point x="562" y="853"/>
      <point x="469" y="766"/>
      <point x="414" y="678" type="curve"/>
      <point x="414" y="853" type="line"/>
      <point x="342" y="853" type="line"/>
      <point x="6" y="752" type="line"/>
      <point x="28" y="685" type="line"/>
      <point x="46" y="692"/>
      <point x="86" y="698"/>
      <point x="106" y="698" type="curve" smooth="yes" name="hr01"/>
      <point x="144" y="698"/>
      <point x="156" y="672"/>
      <point x="156" y="576" type="curve" smooth="yes"/>
      <point x="156" y="199" type="line" smooth="yes"/>
      <point x="156" y="94"/>
      <point x="139" y="72"/>
      <point x="54" y="72" type="curve"/>
      <point x="54" y="0" type="line"/>
      <point x="512" y="0" type="line"/>
      <point x="512" y="72" type="line"/>
      <point x="436" y="72"/>
      <point x="414" y="95"/>
      <point x="414" y="199" type="curve" smooth="yes"/>
      <point x="414" y="540" type="line"/>
      <point x="452" y="617"/>
      <point x="499" y="688"/>
      <point x="534" y="688" type="curve" smooth="yes"/>
      <point x="580" y="688"/>
      <point x="601" y="608"/>
      <point x="697" y="608" type="curve" smooth="yes" name="hr02"/>
      <point x="770" y="608"/>
      <point x="804" y="665"/>
    </contour>
  </outline>
</glyph>
<glyph name="s" format="2">
  <advance width="804"/>
  <unicode hex="0073"/>
  <anchor x="396" y="912" name="above"/>
  <outline>
    <contour>
      <point x="726" y="238" type="curve" smooth="yes"/>
      <point x="726" y="516"/>
      <point x="275" y="518"/>
      <point x="275" y="692" type="curve" smooth="yes"/>
      <point x="275" y="742"/>
      <point x="312" y="778"/>
      <point x="377" y="778" type="curve" smooth="yes"/>
      <point x="488" y="778"/>
      <point x="583" y="676"/>
      <point x="622" y="546" type="curve"/>
      <point x="691" y="546" type="line"/>
      <point x="691" y="865" type="line" name="hr01"/>
      <point x="631" y="865" type="line"/>
      <point x="624" y="847"/>
      <point x="611" y="821"/>
      <point x="588" y="821" type="curve" smooth="yes"/>
      <point x="528" y="821"/>
      <point x="461" y="853"/>
      <point x="361" y="853" type="curve" smooth="yes" name="hr02"/>
      <point x="222" y="853"/>
      <point x="94" y="760"/>
      <point x="94" y="607" type="curve" smooth="yes"/>
      <point x="94" y="320"/>
      <point x="511" y="323"/>
      <point x="511" y="152" type="curve" smooth="yes"/>
      <point x="511" y="97"/>
      <point x="482" y="54"/>
      <point x="404" y="54" type="curve" smooth="yes"/>
      <point x="274" y="54"/>
      <point x="186" y="188"/>
      <point x="161" y="319" type="curve"/>
      <point x="91" y="319" type="line"/>
      <point x="91" y="-24" type="line" name="hr03"/>
      <point x="161" y="-24" type="line"/>
      <point x="167" y="-14"/>
      <point x="179" y="30"/>
      <point x="193" y="30" type="curve" smooth="yes"/>
      <point x="226" y="30"/>
      <point x="314" y="-28"/>
      <point x="428" y="-28" type="curve" smooth="yes" name="hr04"/>
      <point x="595" y="-28"/>
      <point x="726" y="71"/>
    </contour>
  </outline>
</glyph>
<glyph name="t" format="2">
  <advance width="653"/>
  <unicode hex="0074"/>
  <outline>
    <contour>
      <point x="582" y="236" type="line"/>
      <point x="558" y="176"/>
      <point x="522" y="137"/>
      <point x="482" y="137" type="curve" smooth="yes"/>
      <point x="434" y="137"/>
      <point x="410" y="178"/>
      <point x="410" y="286" type="curve" smooth="yes"/>
      <point x="410" y="739" type="line"/>
      <point x="629" y="739" type="line"/>
      <point x="629" y="828" type="line"/>
      <point x="410" y="828" type="line"/>
      <point x="410" y="1102" type="line"/>
      <point x="350" y="1102" type="line"/>
      <point x="272" y="954"/>
      <point x="142" y="817"/>
      <point x="10" y="794" type="curve"/>
      <point x="10" y="739" type="line"/>
      <point x="152" y="739" type="line"/>
      <point x="152" y="252" type="line" smooth="yes"/>
      <point x="152" y="74"/>
      <point x="223" y="-28"/>
      <point x="353" y="-28" type="curve" smooth="yes"/>
      <point x="550" y="-28"/>
      <point x="626" y="145"/>
      <point x="641" y="236" type="curve"/>
    </contour>
  </outline>
</glyph>
<glyph name="u" format="2">
  <advance width="1044"/>
  <unicode hex="0075"/>
  <anchor x="520" y="912" name="above"/>
  <outline>
    <contour>
      <point x="1044" y="73" type="line"/>
      <point x="1022" y="140" type="line"/>
      <point x="1002" y="133"/>
      <point x="965" y="127"/>
      <point x="944" y="127" type="curve" smooth="yes"/>
      <point x="906" y="127"/>
      <point x="894" y="154"/>
      <point x="894" y="250" type="curve" smooth="yes"/>
      <point x="894" y="828" type="line"/>
      <point x="514" y="828" type="line"/>
      <point x="514" y="754" type="line"/>
      <point x="614" y="754"/>
      <point x="636" y="732"/>
      <point x="636" y="626" type="curve" smooth="yes"/>
      <point x="636" y="238" type="line"/>
      <point x="582" y="175"/>
      <point x="517" y="132"/>
      <point x="467" y="132" type="curve" smooth="yes"/>
      <point x="391" y="132"/>
      <point x="364" y="180"/>
      <point x="364" y="300" type="curve" smooth="yes"/>
      <point x="364" y="828" type="line"/>
      <point x="-12" y="828" type="line"/>
      <point x="-12" y="754" type="line"/>
      <point x="84" y="754"/>
      <point x="106" y="732"/>
      <point x="106" y="626" type="curve" smooth="yes"/>
      <point x="106" y="284" type="line" smooth="yes"/>
      <point x="106" y="115"/>
      <point x="150" y="-28"/>
      <point x="329" y="-28" type="curve" smooth="yes"/>
      <point x="467" y="-28"/>
      <point x="575" y="68"/>
      <point x="636" y="136" type="curve"/>
      <point x="636" y="-28" type="line"/>
      <point x="708" y="-28" type="line"/>
    </contour>
  </outline>
</glyph>
<glyph name="v" format="2">
  <advance width="942"/>
  <unicode hex="0076"/>
  <outline>
    <contour>
      <point x="940" y="828" type="line"/>
      <point x="608" y="828" type="line"/>
      <point x="608" y="756" type="line"/>
      <point x="677" y="756"/>
      <point x="707" y="733"/>
      <point x="707" y="694" type="curve" smooth="yes"/>
      <point x="707" y="678"/>
      <point x="702" y="659"/>
      <point x="692" y="637" type="curve" smooth="yes"/>
      <point x="556" y="314" type="line"/>
      <point x="425" y="614" type="line" smooth="yes"/>
      <point x="412" y="643"/>
      <point x="406" y="671"/>
      <point x="406" y="691" type="curve" smooth="yes"/>
      <point x="406" y="734"/>
      <point x="431" y="756"/>
      <point x="499" y="756" type="curve"/>
      <point x="499" y="828" type="line"/>
      <point x="-2" y="828" type="line"/>
      <point x="-2" y="756" type="line"/>
      <point x="79" y="743"/>
      <point x="108" y="732"/>
      <point x="150" y="637" type="curve" smooth="yes"/>
      <point x="440" y="-28" type="line"/>
      <point x="512" y="-28" type="line"/>
      <point x="802" y="647" type="line" smooth="yes"/>
      <point x="830" y="714"/>
      <point x="863" y="752"/>
      <point x="940" y="756" type="curve"/>
    </contour>
  </outline>
</glyph>
<glyph name="w" format="2">
  <advance width="1374"/>
  <unicode hex="0077"/>
  <outline>
    <contour>
      <point x="1372" y="828" type="line"/>
      <point x="1051" y="828" type="line"/>
      <point x="1051" y="756" type="line"/>
      <point x="1115" y="756"/>
      <point x="1142" y="732"/>
      <point x="1142" y="697" type="curve" smooth="yes"/>
      <point x="1142" y="678"/>
      <point x="1135" y="655"/>
      <point x="1126" y="632" type="curve" smooth="yes"/>
      <point x="1004" y="332" type="line"/>
      <point x="977" y="396"/>
      <point x="864" y="661"/>
      <point x="864" y="701" type="curve" smooth="yes"/>
      <point x="864" y="739"/>
      <point x="894" y="756"/>
      <point x="959" y="756" type="curve"/>
      <point x="959" y="828" type="line"/>
      <point x="503" y="828" type="line"/>
      <point x="503" y="756" type="line"/>
      <point x="592" y="754"/>
      <point x="601" y="695"/>
      <point x="656" y="552" type="curve"/>
      <point x="533" y="299" type="line"/>
      <point x="391" y="632" type="line" smooth="yes"/>
      <point x="383" y="653"/>
      <point x="372" y="683"/>
      <point x="372" y="701" type="curve" smooth="yes"/>
      <point x="372" y="739"/>
      <point x="390" y="756"/>
      <point x="442" y="756" type="curve"/>
      <point x="442" y="828" type="line"/>
      <point x="-2" y="828" type="line"/>
      <point x="-2" y="756" type="line"/>
      <point x="70" y="744"/>
      <point x="100" y="712"/>
      <point x="133" y="632" type="curve" smooth="yes"/>
      <point x="410" y="-28" type="line"/>
      <point x="480" y="-28" type="line"/>
      <point x="703" y="430" type="line"/>
      <point x="892" y="-28" type="line"/>
      <point x="962" y="-28" type="line"/>
      <point x="1238" y="652" type="line" smooth="yes"/>
      <point x="1273" y="737"/>
      <point x="1313" y="748"/>
      <point x="1372" y="756" type="curve"/>
    </contour>
  </outline>
</glyph>
<glyph name="x" format="2">
  <advance width="962"/>
  <unicode hex="0078"/>
  <outline>
    <contour>
      <point x="953" y="0" type="line"/>
      <point x="953" y="72" type="line"/>
      <point x="889" y="72"/>
      <point x="874" y="95"/>
      <point x="814" y="182" type="curve" smooth="yes"/>
      <point x="594" y="503" type="line"/>
      <point x="689" y="618"/>
      <point x="763" y="752"/>
      <point x="888" y="756" type="curve"/>
      <point x="888" y="828" type="line"/>
      <point x="583" y="828" type="line"/>
      <point x="583" y="756" type="line"/>
      <point x="607" y="756"/>
      <point x="634" y="743"/>
      <point x="634" y="724" type="curve" smooth="yes"/>
      <point x="634" y="706"/>
      <point x="552" y="605"/>
      <point x="536" y="586" type="curve"/>
      <point x="525" y="602"/>
      <point x="446" y="703"/>
      <point x="446" y="716" type="curve" smooth="yes"/>
      <point x="446" y="738"/>
      <point x="457" y="755"/>
      <point x="499" y="756" type="curve"/>
      <point x="499" y="828" type="line"/>
      <point x="12" y="828" type="line"/>
      <point x="12" y="756" type="line"/>
      <point x="70" y="756"/>
      <point x="106" y="746"/>
      <point x="167" y="664" type="curve" smooth="yes"/>
      <point x="372" y="386" type="line"/>
      <point x="224" y="190" type="line" smooth="yes"/>
      <point x="156" y="100"/>
      <point x="100" y="72"/>
      <point x="32" y="72" type="curve"/>
      <point x="32" y="0" type="line"/>
      <point x="374" y="0" type="line"/>
      <point x="374" y="72" type="line"/>
      <point x="340" y="72"/>
      <point x="313" y="90"/>
      <point x="313" y="112" type="curve" smooth="yes"/>
      <point x="313" y="142"/>
      <point x="360" y="214"/>
      <point x="431" y="299" type="curve"/>
      <point x="456" y="260"/>
      <point x="545" y="130"/>
      <point x="545" y="115" type="curve" smooth="yes"/>
      <point x="545" y="83"/>
      <point x="514" y="72"/>
      <point x="466" y="72" type="curve"/>
      <point x="466" y="0" type="line"/>
    </contour>
  </outline>
</glyph>
<glyph name="braceright" format="2">
  <advance width="790"/>
  <unicode hex="007D"/>
  <outline>
    <contour>
      <point x="138" y="-330" type="curve"/>
      <point x="138" y="-372" type="line"/>
      <point x="258" y="-372"/>
      <point x="511" y="-326"/>
      <point x="511" y="-89" type="curve" smooth="yes"/>
      <point x="511" y="32"/>
      <point x="463" y="97"/>
      <point x="463" y="220" type="curve" smooth="yes" name="hr04"/>
      <point x="463" y="318"/>
      <point x="544" y="410"/>
      <point x="640" y="410" type="curve"/>
      <point x="640" y="468" type="line"/>
      <point x="544" y="468"/>
      <point x="463" y="563"/>
      <point x="463" y="661" type="curve" smooth="yes"/>
      <point x="463" y="785"/>
      <point x="511" y="848"/>
      <point x="511" y="970" type="curve" smooth="yes" name="hr01"/>
      <point x="511" y="1211"/>
      <point x="258" y="1253"/>
      <point x="138" y="1253" type="curve"/>
      <point x="138" y="1211" type="line"/>
      <point x="217" y="1211"/>
      <point x="313" y="1134"/>
      <point x="313" y="1042" type="curve" smooth="yes"/>
      <point x="313" y="920"/>
      <point x="269" y="851"/>
      <point x="269" y="737" type="curve" smooth="yes" name="hr02"/>
      <point x="269" y="578"/>
      <point x="402" y="468"/>
      <point x="544" y="439" type="curve"/>
      <point x="402" y="410"/>
      <point x="269" y="302"/>
      <point x="269" y="144" type="curve" smooth="yes"/>
      <point x="269" y="30"/>
      <point x="313" y="-40"/>
      <point x="313" y="-160" type="curve" smooth="yes" name="hr03"/>
      <point x="313" y="-253"/>
      <point x="217" y="-330"/>
    </contour>
  </outline>
</glyph>
<glyph name="asciitilde" format="2">
  <advance width="1018"/>
  <unicode hex="007E"/>
  <outline>
    <contour>
      <point x="922" y="674" type="line"/>
      <point x="882" y="596"/>
      <point x="821" y="512"/>
      <point x="727" y="512" type="curve" smooth="yes" name="hr01"/>
      <point x="610" y="512"/>
      <point x="452" y="674"/>
      <point x="293" y="674" type="curve" smooth="yes" name="hr02"/>
      <point x="160" y="674"/>
      <point x="76" y="520"/>
      <point x="22" y="416" type="curve"/>
      <point x="86" y="335" type="line"/>
      <point x="131" y="410"/>
      <point x="185" y="506"/>
      <point x="283" y="506" type="curve" smooth="yes"/>
      <point x="430" y="506"/>
      <point x="568" y="349"/>
      <point x="718" y="349" type="curve" smooth="yes" name="hr03"/>
      <point x="840" y="349"/>
      <point x="946" y="482"/>
      <point x="990" y="598" type="curve"/>
    </contour>
  </outline>
</glyph>
<glyph name="cent" format="2">
  <advance width="944"/>
  <unicode hex="00A2"/>
  <outline>
    <contour>
      <point x="782" y="329" type="line"/>
      <point x="725" y="187"/>
      <point x="648" y="166"/>
      <point x="589" y="166" type="curve" smooth="yes"/>
      <point x="524" y="166"/>
      <point x="468" y="193"/>
      <point x="422" y="240" type="curve"/>
      <point x="576" y="661" type="line"/>
      <point x="589" y="595"/>
      <point x="605" y="521"/>
      <point x="707" y="521" type="curve" smooth="yes"/>
      <point x="780" y="521"/>
      <point x="816" y="568"/>
      <point x="816" y="634" type="curve" smooth="yes"/>
      <point x="816" y="697"/>
      <point x="764" y="791"/>
      <point x="637" y="832" type="curve"/>
      <point x="772" y="1199" type="line"/>
      <point x="684" y="1199" type="line"/>
      <point x="557" y="850" type="line"/>
      <point x="536" y="852"/>
      <point x="516" y="853"/>
      <point x="493" y="853" type="curve" smooth="yes"/>
      <point x="295" y="853"/>
      <point x="109" y="668"/>
      <point x="109" y="382" type="curve" smooth="yes"/>
      <point x="109" y="239"/>
      <point x="166" y="115"/>
      <point x="263" y="42" type="curve"/>
      <point x="124" y="-342" type="line"/>
      <point x="211" y="-342" type="line"/>
      <point x="336" y="0" type="line"/>
      <point x="379" y="-17"/>
      <point x="427" y="-28"/>
      <point x="480" y="-28" type="curve" smooth="yes"/>
      <point x="692" y="-28"/>
      <point x="800" y="139"/>
      <point x="835" y="306" type="curve"/>
    </contour>
    <contour>
      <point x="365" y="323" type="line"/>
      <point x="334" y="388"/>
      <point x="316" y="468"/>
      <point x="316" y="557" type="curve" smooth="yes"/>
      <point x="316" y="691"/>
      <point x="367" y="764"/>
      <point x="455" y="764" type="curve" smooth="yes" name="hr01"/>
      <point x="482" y="764"/>
      <point x="504" y="758"/>
      <point x="520" y="749" type="curve"/>
    </contour>
  </outline>
</glyph>
<glyph name="currency" format="2">
  <advance width="1069"/>
  <unicode hex="00A4"/>
  <outline>
    <contour>
      <point x="1031" y="365" type="line"/>
      <point x="847" y="551" type="line"/>
      <point x="889" y="607"/>
      <point x="912" y="684"/>
      <point x="912" y="762" type="curve" smooth="yes"/>
      <point x="912" y="839"/>
      <point x="890" y="917"/>
      <point x="842" y="978" type="curve"/>
      <point x="1031" y="1166" type="line"/>
      <point x="935" y="1265" type="line"/>
      <point x="744" y="1074" type="line"/>
      <point x="691" y="1116"/>
      <point x="612" y="1138"/>
      <point x="533" y="1138" type="curve" smooth="yes"/>
      <point x="456" y="1138"/>
      <point x="379" y="1117"/>
      <point x="324" y="1074" type="curve"/>
      <point x="133" y="1265" type="line"/>
      <point x="37" y="1166" type="line"/>
      <point x="227" y="976" type="line"/>
      <point x="181" y="913"/>
      <point x="160" y="835"/>
      <point x="160" y="758" type="curve" smooth="yes"/>
      <point x="160" y="682"/>
      <point x="181" y="607"/>
      <point x="223" y="553" type="curve"/>
      <point x="36" y="366" type="line"/>
      <point x="133" y="269" type="line"/>
      <point x="320" y="455" type="line"/>
      <point x="384" y="410"/>
      <point x="460" y="386"/>
      <point x="536" y="386" type="curve" smooth="yes"/>
      <point x="611" y="386"/>
      <point x="686" y="408"/>
      <point x="750" y="452" type="curve"/>
      <point x="935" y="269" type="line"/>
    </contour>
    <contour>
      <point x="763" y="763" type="curve" smooth="yes"/>
      <point x="763" y="638"/>
      <point x="664" y="532"/>
      <point x="538" y="532" type="curve" smooth="yes"/>
      <point x="409" y="532"/>
      <point x="306" y="634"/>
      <point x="306" y="761" type="curve" smooth="yes"/>
      <point x="306" y="890"/>
      <point x="408" y="991"/>
      <point x="538" y="991" type="curve" smooth="yes"/>
      <point x="662" y="991"/>
      <point x="763" y="886"/>
    </contour>
  </outline>
</glyph>
<glyph name="yen" format="2">
  <advance width="944"/>
  <unicode hex="00A5"/>
  <outline>
    <contour>
      <point x="930" y="287" type="line"/>
      <point x="930" y="386" type="line"/>
      <point x="604" y="386" type="line"/>
      <point x="604" y="494" type="line"/>
      <point x="610" y="512" type="line"/>
      <point x="930" y="512" type="line"/>
      <point x="930" y="608" type="line"/>
      <point x="646" y="608" type="line"/>
      <point x="785" y="1013" type="line" smooth="yes"/>
      <point x="820" y="1084"/>
      <point x="853" y="1154"/>
      <point x="944" y="1154" type="curve"/>
      <point x="944" y="1226" type="line"/>
      <point x="624" y="1226" type="line"/>
      <point x="624" y="1154" type="line"/>
      <point x="664" y="1152"/>
      <point x="701" y="1147"/>
      <point x="701" y="1098" type="curve" smooth="yes"/>
      <point x="701" y="1074"/>
      <point x="695" y="1050"/>
      <point x="684" y="1030" type="curve" smooth="yes"/>
      <point x="552" y="647" type="line"/>
      <point x="538" y="686"/>
      <point x="396" y="1079"/>
      <point x="396" y="1098" type="curve" smooth="yes"/>
      <point x="396" y="1140"/>
      <point x="452" y="1152"/>
      <point x="485" y="1154" type="curve"/>
      <point x="485" y="1226" type="line"/>
      <point x="0" y="1226" type="line"/>
      <point x="0" y="1154" type="line"/>
      <point x="91" y="1145"/>
      <point x="119" y="1098"/>
      <point x="148" y="1022" type="curve" smooth="yes"/>
      <point x="301" y="608" type="line"/>
      <point x="14" y="608" type="line"/>
      <point x="14" y="512" type="line"/>
      <point x="336" y="512" type="line"/>
      <point x="350" y="480" type="line"/>
      <point x="350" y="386" type="line"/>
      <point x="14" y="386" type="line"/>
      <point x="14" y="287" type="line"/>
      <point x="350" y="287" type="line"/>
      <point x="350" y="221" type="line" smooth="yes"/>
      <point x="350" y="124"/>
      <point x="350" y="72"/>
      <point x="192" y="72" type="curve"/>
      <point x="192" y="0" type="line"/>
      <point x="758" y="0" type="line"/>
      <point x="758" y="72" type="line"/>
      <point x="606" y="72"/>
      <point x="604" y="118"/>
      <point x="604" y="221" type="curve" smooth="yes"/>
      <point x="604" y="287" type="line"/>
    </contour>
  </outline>
</glyph>
<glyph name="brokenbar" format="2">
  <advance width="408"/>
  <unicode hex="00A6"/>
  <outline>
    <contour>
      <point x="250" y="599" type="line"/>
      <point x="250" y="1312" type="line"/>
      <point x="158" y="1312" type="line"/>
      <point x="158" y="599" type="line"/>
    </contour>
    <contour>
      <point x="250" y="-353" type="line"/>
      <point x="250" y="360" type="line"/>
      <point x="158" y="360" type="line"/>
      <point x="158" y="-353" type="line"/>
    </contour>
  </outline>
</glyph>
<glyph name="section" format="2">
  <advance width="925"/>
  <unicode hex="00A7"/>
  <outline>
    <contour>
      <point x="844" y="410" type="curve" smooth="yes"/>
      <point x="844" y="737"/>
      <point x="312" y="847"/>
      <point x="312" y="1048" type="curve" smooth="yes"/>
      <point x="312" y="1138"/>
      <point x="389" y="1200"/>
      <point x="468" y="1200" type="curve" smooth="yes"/>
      <point x="529" y="1200"/>
      <point x="583" y="1157"/>
      <point x="583" y="1105" type="curve" smooth="yes" name="hr01"/>
      <point x="583" y="1075"/>
      <point x="570" y="1050"/>
      <point x="570" y="1019" type="curve" smooth="yes"/>
      <point x="570" y="966"/>
      <point x="616" y="926"/>
      <point x="668" y="926" type="curve" smooth="yes"/>
      <point x="736" y="926"/>
      <point x="775" y="971"/>
      <point x="775" y="1031" type="curve" smooth="yes"/>
      <point x="775" y="1165"/>
      <point x="620" y="1259"/>
      <point x="473" y="1259" type="curve" smooth="yes"/>
      <point x="302" y="1259"/>
      <point x="142" y="1148"/>
      <point x="142" y="978" type="curve" smooth="yes"/>
      <point x="142" y="859"/>
      <point x="212" y="794"/>
      <point x="274" y="730" type="curve"/>
      <point x="188" y="665"/>
      <point x="84" y="562"/>
      <point x="84" y="419" type="curve" smooth="yes" name="hr02"/>
      <point x="84" y="128"/>
      <point x="623" y="-1"/>
      <point x="623" y="-188" type="curve" smooth="yes"/>
      <point x="623" y="-281"/>
      <point x="554" y="-337"/>
      <point x="456" y="-337" type="curve" smooth="yes"/>
      <point x="378" y="-337"/>
      <point x="342" y="-306"/>
      <point x="342" y="-271" type="curve" smooth="yes" name="hr03"/>
      <point x="342" y="-233"/>
      <point x="366" y="-202"/>
      <point x="366" y="-166" type="curve" smooth="yes"/>
      <point x="366" y="-113"/>
      <point x="322" y="-71"/>
      <point x="260" y="-71" type="curve" smooth="yes"/>
      <point x="203" y="-71"/>
      <point x="157" y="-119"/>
      <point x="157" y="-176" type="curve" smooth="yes"/>
      <point x="157" y="-322"/>
      <point x="290" y="-401"/>
      <point x="451" y="-401" type="curve" smooth="yes"/>
      <point x="647" y="-401"/>
      <point x="786" y="-289"/>
      <point x="786" y="-136" type="curve" smooth="yes"/>
      <point x="786" y="-7"/>
      <point x="715" y="53"/>
      <point x="648" y="126" type="curve"/>
      <point x="745" y="191"/>
      <point x="844" y="277"/>
    </contour>
    <contour>
      <point x="690" y="318" type="curve" smooth="yes"/>
      <point x="690" y="252"/>
      <point x="652" y="208"/>
      <point x="602" y="163" type="curve"/>
      <point x="326" y="370"/>
      <point x="240" y="419"/>
      <point x="240" y="526" type="curve" smooth="yes" name="hr04"/>
      <point x="240" y="598"/>
      <point x="272" y="643"/>
      <point x="326" y="690" type="curve"/>
      <point x="583" y="503"/>
      <point x="690" y="445"/>
    </contour>
  </outline>
</glyph>
<glyph name="dieresis" format="2">
  <advance width="584"/>
  <unicode hex="00A8"/>
  <anchor x="294" y="912" name="_above"/>
  <outline>
    <contour>
      <point x="584" y="1139" type="curve" smooth="yes"/>
      <point x="584" y="1206"/>
      <point x="530" y="1260"/>
      <point x="463" y="1260" type="curve" smooth="yes"/>
      <point x="396" y="1260"/>
      <point x="342" y="1206"/>
      <point x="342" y="1139" type="curve" smooth="yes"/>
      <point x="342" y="1072"/>
      <point x="396" y="1018"/>
      <point x="463" y="1018" type="curve" smooth="yes"/>
      <point x="530" y="1018"/>
      <point x="584" y="1072"/>
    </contour>
    <contour>
      <point x="242" y="1139" type="curve" smooth="yes"/>
      <point x="242" y="1206"/>
      <point x="188" y="1260"/>
      <point x="121" y="1260" type="curve" smooth="yes"/>
      <point x="53" y="1260"/>
      <point x="0" y="1206"/>
      <point x="0" y="1139" type="curve" smooth="yes"/>
      <point x="0" y="1072"/>
      <point x="53" y="1018"/>
      <point x="121" y="1018" type="curve" smooth="yes"/>
      <point x="188" y="1018"/>
      <point x="242" y="1072"/>
    </contour>
  </outline>
</glyph>
<glyph name="copyright" format="2">
  <advance width="1384"/>
  <unicode hex="00A9"/>
  <outline>
    <contour>
      <point x="1346" y="612" type="curve" smooth="yes"/>
      <point x="1346" y="976"/>
      <point x="1067" y="1253"/>
      <point x="703" y="1253" type="curve" smooth="yes"/>
      <point x="342" y="1253"/>
      <point x="61" y="976"/>
      <point x="61" y="612" type="curve" smooth="yes"/>
      <point x="61" y="251"/>
      <point x="342" y="-30"/>
      <point x="703" y="-30" type="curve" smooth="yes"/>
      <point x="1064" y="-30"/>
      <point x="1346" y="253"/>
    </contour>
    <contour>
      <point x="1259" y="612" type="curve" smooth="yes"/>
      <point x="1259" y="304"/>
      <point x="1014" y="61"/>
      <point x="703" y="61" type="curve" smooth="yes"/>
      <point x="394" y="61"/>
      <point x="151" y="304"/>
      <point x="151" y="612" type="curve" smooth="yes"/>
      <point x="151" y="922"/>
      <point x="394" y="1166"/>
      <point x="703" y="1166" type="curve" smooth="yes"/>
      <point x="1014" y="1166"/>
      <point x="1259" y="923"/>
    </contour>
    <contour>
      <point x="1006" y="449" type="line"/>
      <point x="955" y="372"/>
      <point x="876" y="288"/>
      <point x="761" y="288" type="curve" smooth="yes"/>
      <point x="619" y="288"/>
      <point x="523" y="407"/>
      <point x="523" y="593" type="curve" smooth="yes"/>
      <point x="523" y="781"/>
      <point x="590" y="930"/>
      <point x="740" y="930" type="curve" smooth="yes"/>
      <point x="839" y="930"/>
      <point x="946" y="848"/>
      <point x="977" y="709" type="curve"/>
      <point x="1021" y="709" type="line"/>
      <point x="1003" y="994" type="line"/>
      <point x="962" y="994" type="line"/>
      <point x="953" y="964"/>
      <point x="952" y="940"/>
      <point x="920" y="940" type="curve"/>
      <point x="899" y="940"/>
      <point x="827" y="992"/>
      <point x="714" y="992" type="curve" smooth="yes"/>
      <point x="463" y="992"/>
      <point x="335" y="786"/>
      <point x="335" y="593" type="curve" smooth="yes"/>
      <point x="335" y="401"/>
      <point x="461" y="223"/>
      <point x="725" y="223" type="curve" smooth="yes"/>
      <point x="910" y="223"/>
      <point x="1000" y="342"/>
      <point x="1044" y="419" type="curve"/>
    </contour>
  </outline>
</glyph>
<glyph name="ordfeminine" format="2">
  <advance width="661"/>
  <unicode hex="00AA"/>
  <outline>
    <contour>
      <point x="661" y="857" type="line"/>
      <point x="649" y="846"/>
      <point x="610" y="821"/>
      <point x="590" y="821" type="curve" smooth="yes"/>
      <point x="571" y="821"/>
      <point x="564" y="834"/>
      <point x="562" y="847" type="curve" smooth="yes"/>
      <point x="558" y="865"/>
      <point x="558" y="899"/>
      <point x="558" y="926" type="curve" smooth="yes"/>
      <point x="558" y="1074" type="line" smooth="yes"/>
      <point x="558" y="1196"/>
      <point x="490" y="1242"/>
      <point x="305" y="1242" type="curve" smooth="yes"/>
      <point x="202" y="1242"/>
      <point x="60" y="1195"/>
      <point x="60" y="1111" type="curve" smooth="yes"/>
      <point x="60" y="1069"/>
      <point x="92" y="1044"/>
      <point x="140" y="1044" type="curve" smooth="yes"/>
      <point x="208" y="1044"/>
      <point x="227" y="1086"/>
      <point x="227" y="1118" type="curve" smooth="yes"/>
      <point x="227" y="1130"/>
      <point x="223" y="1140"/>
      <point x="221" y="1151" type="curve"/>
      <point x="227" y="1187"/>
      <point x="254" y="1196"/>
      <point x="290" y="1196" type="curve" smooth="yes"/>
      <point x="346" y="1196"/>
      <point x="370" y="1147"/>
      <point x="370" y="1081" type="curve" smooth="yes"/>
      <point x="370" y="1061" type="line"/>
      <point x="252" y="1026"/>
      <point x="46" y="960"/>
      <point x="46" y="851" type="curve" smooth="yes"/>
      <point x="46" y="772"/>
      <point x="96" y="724"/>
      <point x="184" y="724" type="curve" smooth="yes"/>
      <point x="258" y="724"/>
      <point x="313" y="757"/>
      <point x="370" y="798" type="curve"/>
      <point x="370" y="758"/>
      <point x="414" y="724"/>
      <point x="469" y="724" type="curve" smooth="yes"/>
      <point x="557" y="724"/>
      <point x="638" y="782"/>
      <point x="661" y="805" type="curve"/>
    </contour>
    <contour>
      <point x="654" y="559" type="line"/>
      <point x="654" y="631" type="line"/>
      <point x="53" y="631" type="line"/>
      <point x="53" y="559" type="line"/>
    </contour>
    <contour>
      <point x="370" y="862" type="line"/>
      <point x="343" y="839"/>
      <point x="311" y="818"/>
      <point x="283" y="818" type="curve" smooth="yes"/>
      <point x="248" y="818"/>
      <point x="229" y="845"/>
      <point x="229" y="876" type="curve" smooth="yes"/>
      <point x="229" y="924"/>
      <point x="259" y="968"/>
      <point x="370" y="1009" type="curve"/>
    </contour>
  </outline>
</glyph>
<glyph name="logicalnot" format="2">
  <advance width="1752"/>
  <unicode hex="00AC"/>
  <outline>
    <contour>
      <point x="1284" y="637" type="line"/>
      <point x="356" y="637" type="line"/>
      <point x="356" y="749" type="line"/>
      <point x="1396" y="749" type="line"/>
      <point x="1396" y="267" type="line"/>
      <point x="1284" y="267" type="line"/>
    </contour>
  </outline>
</glyph>
<glyph name="softhyphen" format="2">
  <advance width="635"/>
  <unicode hex="00AD"/>
  <outline>
    <contour>
      <point x="599" y="335" type="line"/>
      <point x="599" y="515" type="line"/>
      <point x="36" y="515" type="line"/>
      <point x="36" y="335" type="line"/>
    </contour>
  </outline>
</glyph>
<glyph name="registered" format="2">
  <advance width="1384"/>
  <unicode hex="00AE"/>
  <outline>
    <contour>
      <point x="1346" y="612" type="curve" smooth="yes"/>
      <point x="1346" y="976"/>
      <point x="1067" y="1253"/>
      <point x="703" y="1253" type="curve" smooth="yes"/>
      <point x="342" y="1253"/>
      <point x="61" y="976"/>
      <point x="61" y="612" type="curve" smooth="yes"/>
      <point x="61" y="251"/>
      <point x="342" y="-30"/>
      <point x="703" y="-30" type="curve" smooth="yes"/>
      <point x="1064" y="-30"/>
      <point x="1346" y="253"/>
    </contour>
    <contour>
      <point x="1259" y="612" type="curve" smooth="yes"/>
      <point x="1259" y="304"/>
      <point x="1014" y="61"/>
      <point x="703" y="61" type="curve" smooth="yes"/>
      <point x="394" y="61"/>
      <point x="151" y="304"/>
      <point x="151" y="612" type="curve" smooth="yes"/>
      <point x="151" y="922"/>
      <point x="394" y="1166"/>
      <point x="703" y="1166" type="curve" smooth="yes"/>
      <point x="1014" y="1166"/>
      <point x="1259" y="923"/>
    </contour>
    <contour>
      <point x="1092" y="253" type="line"/>
      <point x="1092" y="296" type="line" name="hr01"/>
      <point x="1026" y="298"/>
      <point x="951" y="375"/>
      <point x="925" y="413" type="curve" smooth="yes"/>
      <point x="798" y="594" type="line"/>
      <point x="878" y="611"/>
      <point x="972" y="674"/>
      <point x="972" y="791" type="curve" smooth="yes"/>
      <point x="972" y="960"/>
      <point x="784" y="978"/>
      <point x="617" y="978" type="curve" smooth="yes"/>
      <point x="326" y="978" type="line"/>
      <point x="326" y="935" type="line"/>
      <point x="391" y="935"/>
      <point x="414" y="917"/>
      <point x="414" y="850" type="curve" smooth="yes"/>
      <point x="414" y="395" type="line" smooth="yes"/>
      <point x="414" y="320"/>
      <point x="391" y="296"/>
      <point x="326" y="296" type="curve"/>
      <point x="326" y="253" type="line"/>
      <point x="673" y="253" type="line"/>
      <point x="673" y="296" type="line"/>
      <point x="612" y="296"/>
      <point x="583" y="320"/>
      <point x="583" y="390" type="curve" smooth="yes"/>
      <point x="583" y="577" type="line"/>
      <point x="604" y="577" type="line"/>
      <point x="840" y="253" type="line"/>
    </contour>
    <contour>
      <point x="794" y="780" type="curve" smooth="yes"/>
      <point x="794" y="665"/>
      <point x="689" y="641"/>
      <point x="583" y="641" type="curve"/>
      <point x="583" y="912" type="line"/>
      <point x="594" y="915"/>
      <point x="608" y="918"/>
      <point x="636" y="918" type="curve" smooth="yes"/>
      <point x="744" y="918"/>
      <point x="794" y="846"/>
    </contour>
  </outline>
</glyph>
<glyph name="degree" format="2">
  <advance width="570"/>
  <unicode hex="00B0"/>
  <outline>
    <contour>
      <point x="490" y="1087" type="curve" smooth="yes"/>
      <point x="490" y="1201"/>
      <point x="400" y="1292"/>
      <point x="286" y="1292" type="curve" smooth="yes"/>
      <point x="172" y="1292"/>
      <point x="80" y="1201"/>
      <point x="80" y="1087" type="curve" smooth="yes"/>
      <point x="80" y="973"/>
      <point x="172" y="883"/>
      <point x="286" y="883" type="curve" smooth="yes"/>
      <point x="400" y="883"/>
      <point x="490" y="973"/>
    </contour>
    <contour>
      <point x="400" y="1087" type="curve" smooth="yes"/>
      <point x="400" y="1024"/>
      <point x="349" y="973"/>
      <point x="286" y="973" type="curve" smooth="yes"/>
      <point x="222" y="973"/>
      <point x="170" y="1024"/>
      <point x="170" y="1087" type="curve" smooth="yes"/>
      <point x="170" y="1151"/>
      <point x="222" y="1201"/>
      <point x="286" y="1201" type="curve" smooth="yes"/>
      <point x="349" y="1201"/>
      <point x="400" y="1151"/>
    </contour>
  </outline>
</glyph>
<glyph name="plusminus" format="2">
  <advance width="1782"/>
  <unicode hex="00B1"/>
  <outline>
    <contour>
      <point x="1426" y="638" type="line"/>
      <point x="1426" y="749" type="line"/>
      <point x="946" y="749" type="line"/>
      <point x="946" y="1069" type="line"/>
      <point x="836" y="1069" type="line"/>
      <point x="836" y="749" type="line"/>
      <point x="356" y="749" type="line"/>
      <point x="356" y="638" type="line"/>
      <point x="836" y="638" type="line"/>
      <point x="836" y="318" type="line"/>
      <point x="946" y="318" type="line"/>
      <point x="946" y="638" type="line"/>
    </contour>
    <contour>
      <point x="1426" y="0" type="line"/>
      <point x="1426" y="110" type="line"/>
      <point x="356" y="110" type="line"/>
      <point x="356" y="0" type="line"/>
    </contour>
  </outline>
</glyph>
<glyph name="twosuperior" format="2">
  <advance width="629"/>
  <unicode hex="00B2"/>
  <outline>
    <contour>
      <point x="623" y="678" type="line"/>
      <point x="570" y="678" type="line"/>
      <point x="536" y="616"/>
      <point x="466" y="606"/>
      <point x="382" y="606" type="curve" smooth="yes"/>
      <point x="221" y="606" type="line"/>
      <point x="347" y="714"/>
      <point x="556" y="826"/>
      <point x="556" y="1024" type="curve" smooth="yes"/>
      <point x="556" y="1126"/>
      <point x="460" y="1217"/>
      <point x="306" y="1217" type="curve" smooth="yes"/>
      <point x="164" y="1217"/>
      <point x="76" y="1111"/>
      <point x="48" y="989" type="curve"/>
      <point x="101" y="989" type="line"/>
      <point x="128" y="1063"/>
      <point x="187" y="1096"/>
      <point x="241" y="1096" type="curve" smooth="yes"/>
      <point x="318" y="1096"/>
      <point x="377" y="1049"/>
      <point x="377" y="972" type="curve" smooth="yes"/>
      <point x="377" y="839"/>
      <point x="257" y="722"/>
      <point x="28" y="508" type="curve"/>
      <point x="28" y="464" type="line"/>
      <point x="530" y="464" type="line"/>
    </contour>
  </outline>
</glyph>
<glyph name="threesuperior" format="2">
  <advance width="629"/>
  <unicode hex="00B3"/>
  <outline>
    <contour>
      <point x="574" y="716" type="curve" smooth="yes"/>
      <point x="574" y="821"/>
      <point x="500" y="878"/>
      <point x="417" y="908" type="curve"/>
      <point x="479" y="949"/>
      <point x="531" y="1016"/>
      <point x="531" y="1072" type="curve" smooth="yes" name="hr01"/>
      <point x="531" y="1168"/>
      <point x="447" y="1222"/>
      <point x="314" y="1222" type="curve" smooth="yes"/>
      <point x="158" y="1222"/>
      <point x="92" y="1120"/>
      <point x="43" y="1026" type="curve"/>
      <point x="83" y="1012" type="line"/>
      <point x="129" y="1079"/>
      <point x="187" y="1116"/>
      <point x="249" y="1116" type="curve" smooth="yes"/>
      <point x="311" y="1116"/>
      <point x="355" y="1080"/>
      <point x="355" y="1030" type="curve" smooth="yes"/>
      <point x="355" y="947"/>
      <point x="256" y="872"/>
      <point x="147" y="865" type="curve"/>
      <point x="147" y="822" type="line" name="hr02"/>
      <point x="308" y="811"/>
      <point x="410" y="750"/>
      <point x="410" y="646" type="curve" smooth="yes"/>
      <point x="410" y="588"/>
      <point x="362" y="529"/>
      <point x="293" y="529" type="curve" smooth="yes"/>
      <point x="217" y="529"/>
      <point x="170" y="606"/>
      <point x="115" y="606" type="curve" smooth="yes" name="hr03"/>
      <point x="65" y="606"/>
      <point x="43" y="576"/>
      <point x="43" y="542" type="curve" smooth="yes"/>
      <point x="43" y="475"/>
      <point x="123" y="458"/>
      <point x="213" y="458" type="curve" smooth="yes"/>
      <point x="419" y="458"/>
      <point x="574" y="558"/>
    </contour>
  </outline>
</glyph>
<glyph name="acute" format="2">
  <advance width="635"/>
  <unicode hex="00B4"/>
  <anchor x="318" y="912" name="_above"/>
  <outline>
    <contour>
      <point x="635" y="1222" type="curve" smooth="yes"/>
      <point x="635" y="1274"/>
      <point x="592" y="1316"/>
      <point x="538" y="1316" type="curve" smooth="yes"/>
      <point x="511" y="1316"/>
      <point x="485" y="1307"/>
      <point x="470" y="1289" type="curve" smooth="yes"/>
      <point x="203" y="961" type="line"/>
      <point x="296" y="961" type="line"/>
      <point x="606" y="1153" type="line"/>
      <point x="628" y="1165"/>
      <point x="635" y="1194"/>
    </contour>
  </outline>
</glyph>
<glyph name="micro" format="2">
  <advance width="1067"/>
  <unicode hex="00B5"/>
  <outline>
    <contour>
      <point x="986" y="259" type="line"/>
      <point x="982" y="210"/>
      <point x="967" y="145"/>
      <point x="930" y="145" type="curve" smooth="yes"/>
      <point x="886" y="145"/>
      <point x="881" y="234"/>
      <point x="881" y="300" type="curve" smooth="yes"/>
      <point x="881" y="826" type="line"/>
      <point x="637" y="826" type="line"/>
      <point x="637" y="238" type="line"/>
      <point x="583" y="175"/>
      <point x="518" y="132"/>
      <point x="468" y="132" type="curve" smooth="yes"/>
      <point x="392" y="132"/>
      <point x="365" y="180"/>
      <point x="365" y="300" type="curve" smooth="yes"/>
      <point x="365" y="826" type="line"/>
      <point x="108" y="826" type="line"/>
      <point x="108" y="172" type="line" smooth="yes"/>
      <point x="108" y="64"/>
      <point x="97" y="-41"/>
      <point x="79" y="-148" type="curve" smooth="yes"/>
      <point x="72" y="-190"/>
      <point x="56" y="-242"/>
      <point x="56" y="-289" type="curve" smooth="yes" name="hr01"/>
      <point x="56" y="-348"/>
      <point x="103" y="-401"/>
      <point x="166" y="-401" type="curve" smooth="yes"/>
      <point x="223" y="-401"/>
      <point x="276" y="-356"/>
      <point x="276" y="-281" type="curve" smooth="yes"/>
      <point x="276" y="-167"/>
      <point x="198" y="-136"/>
      <point x="198" y="-30" type="curve" smooth="yes" name="hr02"/>
      <point x="198" y="12" type="line"/>
      <point x="226" y="-11"/>
      <point x="271" y="-28"/>
      <point x="330" y="-28" type="curve" smooth="yes"/>
      <point x="490" y="-28"/>
      <point x="576" y="68"/>
      <point x="637" y="136" type="curve"/>
      <point x="647" y="54"/>
      <point x="709" y="-28"/>
      <point x="828" y="-28" type="curve" smooth="yes"/>
      <point x="991" y="-28"/>
      <point x="1048" y="85"/>
      <point x="1052" y="259" type="curve"/>
    </contour>
  </outline>
</glyph>
<glyph name="periodcentered" format="2">
  <advance width="517"/>
  <unicode hex="00B7"/>
  <outline>
    <contour>
      <point x="412" y="616" type="curve" smooth="yes"/>
      <point x="412" y="698"/>
      <point x="342" y="768"/>
      <point x="258" y="768" type="curve" smooth="yes"/>
      <point x="175" y="768"/>
      <point x="106" y="698"/>
      <point x="106" y="616" type="curve" smooth="yes"/>
      <point x="106" y="530"/>
      <point x="175" y="461"/>
      <point x="258" y="461" type="curve" smooth="yes"/>
      <point x="342" y="461"/>
      <point x="412" y="530"/>
    </contour>
  </outline>
</glyph>
<glyph name="cedilla" format="2">
  <advance width="445"/>
  <unicode hex="00B8"/>
  <anchor x="185" y="-60" name="_below"/>
  <outline>
    <contour>
      <point x="440" y="-240" type="curve" smooth="yes"/>
      <point x="440" y="-146"/>
      <point x="337" y="-118"/>
      <point x="253" y="-118" type="curve" smooth="yes"/>
      <point x="245" y="-118"/>
      <point x="220" y="-118"/>
      <point x="211" y="-118" type="curve"/>
      <point x="262" y="0" type="line"/>
      <point x="184" y="0" type="line"/>
      <point x="97" y="-191" type="line"/>
      <point x="128" y="-212" type="line"/>
      <point x="146" y="-208"/>
      <point x="163" y="-203"/>
      <point x="185" y="-203" type="curve" smooth="yes"/>
      <point x="217" y="-203"/>
      <point x="248" y="-216"/>
      <point x="248" y="-257" type="curve" smooth="yes"/>
      <point x="248" y="-290"/>
      <point x="229" y="-330"/>
      <point x="166" y="-330" type="curve" smooth="yes"/>
      <point x="138" y="-330"/>
      <point x="89" y="-319"/>
      <point x="43" y="-302" type="curve"/>
      <point x="0" y="-376" type="line"/>
      <point x="66" y="-397"/>
      <point x="121" y="-408"/>
      <point x="175" y="-408" type="curve" smooth="yes"/>
      <point x="293" y="-408"/>
      <point x="440" y="-347"/>
    </contour>
  </outline>
</glyph>
<glyph name="onesuperior" format="2">
  <advance width="629"/>
  <unicode hex="00B9"/>
  <outline>
    <contour>
      <point x="556" y="464" type="line"/>
      <point x="556" y="507" type="line"/>
      <point x="450" y="507"/>
      <point x="427" y="526"/>
      <point x="427" y="602" type="curve" smooth="yes"/>
      <point x="427" y="1216" type="line"/>
      <point x="375" y="1216" type="line"/>
      <point x="72" y="1092" type="line"/>
      <point x="92" y="1052" type="line"/>
      <point x="126" y="1065"/>
      <point x="152" y="1070"/>
      <point x="171" y="1070" type="curve" smooth="yes"/>
      <point x="236" y="1070"/>
      <point x="236" y="1030"/>
      <point x="236" y="982" type="curve" smooth="yes"/>
      <point x="236" y="602" type="line" smooth="yes"/>
      <point x="236" y="526"/>
      <point x="199" y="507"/>
      <point x="92" y="507" type="curve"/>
      <point x="92" y="464" type="line"/>
    </contour>
  </outline>
</glyph>
<glyph name="ordmasculine" format="2">
  <advance width="696"/>
  <unicode hex="00BA"/>
  <outline>
    <contour>
      <point x="652" y="986" type="curve" smooth="yes"/>
      <point x="652" y="1126"/>
      <point x="528" y="1238"/>
      <point x="347" y="1238" type="curve" smooth="yes"/>
      <point x="161" y="1238"/>
      <point x="47" y="1110"/>
      <point x="47" y="972" type="curve" smooth="yes"/>
      <point x="47" y="838"/>
      <point x="162" y="713"/>
      <point x="354" y="713" type="curve" smooth="yes"/>
      <point x="539" y="713"/>
      <point x="652" y="841"/>
    </contour>
    <contour>
      <point x="462" y="944" type="curve" smooth="yes"/>
      <point x="462" y="817"/>
      <point x="436" y="768"/>
      <point x="384" y="768" type="curve" smooth="yes"/>
      <point x="311" y="768"/>
      <point x="236" y="882"/>
      <point x="236" y="1016" type="curve" smooth="yes"/>
      <point x="236" y="1146"/>
      <point x="281" y="1186"/>
      <point x="320" y="1186" type="curve" smooth="yes"/>
      <point x="413" y="1186"/>
      <point x="462" y="1061"/>
    </contour>
    <contour>
      <point x="647" y="559" type="line"/>
      <point x="647" y="631" type="line"/>
      <point x="58" y="631" type="line"/>
      <point x="58" y="559" type="line"/>
    </contour>
  </outline>
</glyph>
<glyph name="guillemetright" format="2">
  <advance width="926"/>
  <unicode hex="00BB"/>
  <outline>
    <contour>
      <point x="122" y="-7" type="line"/>
      <point x="503" y="420" type="line"/>
      <point x="122" y="846" type="line"/>
      <point x="35" y="846" type="line"/>
      <point x="256" y="420" type="line"/>
      <point x="35" y="-7" type="line"/>
    </contour>
    <contour>
      <point x="494" y="-7" type="line"/>
      <point x="870" y="420" type="line"/>
      <point x="494" y="846" type="line"/>
      <point x="409" y="846" type="line"/>
      <point x="630" y="420" type="line"/>
      <point x="409" y="-7" type="line"/>
    </contour>
  </outline>
</glyph>
<glyph name="onequarter" format="2">
  <advance width="1574"/>
  <unicode hex="00BC"/>
  <outline>
    <contour>
      <point x="1418" y="158" type="line"/>
      <point x="1418" y="271" type="line"/>
      <point x="1322" y="271" type="line"/>
      <point x="1322" y="745" type="line"/>
      <point x="1184" y="745" type="line"/>
      <point x="788" y="271" type="line"/>
      <point x="788" y="158" type="line"/>
      <point x="1144" y="158" type="line"/>
      <point x="1144" y="-7" type="line"/>
      <point x="1322" y="-7" type="line"/>
      <point x="1322" y="158" type="line"/>
    </contour>
    <contour>
      <point x="1340" y="1248" type="line"/>
      <point x="1224" y="1248" type="line"/>
      <point x="342" y="-14" type="line" name="hr01"/>
      <point x="458" y="-14" type="line"/>
    </contour>
    <contour>
      <point x="641" y="474" type="line"/>
      <point x="641" y="517" type="line"/>
      <point x="534" y="517"/>
      <point x="511" y="536"/>
      <point x="511" y="612" type="curve" smooth="yes"/>
      <point x="511" y="1234" type="line" name="hr02"/>
      <point x="460" y="1234" type="line"/>
      <point x="156" y="1110" type="line"/>
      <point x="176" y="1069" type="line"/>
      <point x="210" y="1082"/>
      <point x="236" y="1087"/>
      <point x="256" y="1087" type="curve" smooth="yes"/>
      <point x="320" y="1087"/>
      <point x="320" y="1040"/>
      <point x="320" y="992" type="curve" smooth="yes"/>
      <point x="320" y="612" type="line" smooth="yes"/>
      <point x="320" y="536"/>
      <point x="283" y="517"/>
      <point x="176" y="517" type="curve"/>
      <point x="176" y="474" type="line"/>
    </contour>
    <contour>
      <point x="1144" y="271" type="line"/>
      <point x="886" y="271" type="line"/>
      <point x="1144" y="576" type="line"/>
    </contour>
  </outline>
</glyph>
<glyph name="onehalf" format="2">
  <advance width="1574"/>
  <unicode hex="00BD"/>
  <outline>
    <contour>
      <point x="1480" y="206" type="line"/>
      <point x="1427" y="206" type="line"/>
      <point x="1393" y="144"/>
      <point x="1322" y="134"/>
      <point x="1238" y="134" type="curve" smooth="yes"/>
      <point x="1078" y="134" type="line"/>
      <point x="1205" y="242"/>
      <point x="1412" y="354"/>
      <point x="1412" y="552" type="curve" smooth="yes"/>
      <point x="1412" y="654"/>
      <point x="1309" y="752"/>
      <point x="1156" y="752" type="curve" smooth="yes"/>
      <point x="1014" y="752"/>
      <point x="932" y="640"/>
      <point x="905" y="517" type="curve"/>
      <point x="958" y="517" type="line"/>
      <point x="985" y="592"/>
      <point x="1040" y="624"/>
      <point x="1094" y="624" type="curve" smooth="yes"/>
      <point x="1171" y="624"/>
      <point x="1234" y="583"/>
      <point x="1234" y="506" type="curve" smooth="yes"/>
      <point x="1234" y="359"/>
      <point x="1114" y="251"/>
      <point x="884" y="36" type="curve"/>
      <point x="884" y="-7" type="line"/>
      <point x="1387" y="-7" type="line"/>
    </contour>
    <contour>
      <point x="1280" y="1248" type="line"/>
      <point x="1164" y="1248" type="line"/>
      <point x="282" y="-14" type="line" name="hr01"/>
      <point x="398" y="-14" type="line"/>
    </contour>
    <contour>
      <point x="581" y="474" type="line"/>
      <point x="581" y="517" type="line"/>
      <point x="474" y="517"/>
      <point x="451" y="536"/>
      <point x="451" y="612" type="curve" smooth="yes"/>
      <point x="451" y="1234" type="line" name="hr02"/>
      <point x="400" y="1234" type="line"/>
      <point x="96" y="1110" type="line"/>
      <point x="116" y="1069" type="line"/>
      <point x="150" y="1082"/>
      <point x="176" y="1087"/>
      <point x="196" y="1087" type="curve" smooth="yes"/>
      <point x="260" y="1087"/>
      <point x="260" y="1040"/>
      <point x="260" y="992" type="curve" smooth="yes"/>
      <point x="260" y="612" type="line" smooth="yes"/>
      <point x="260" y="536"/>
      <point x="223" y="517"/>
      <point x="116" y="517" type="curve"/>
      <point x="116" y="474" type="line"/>
    </contour>
  </outline>
</glyph>
<glyph name="threequarters" format="2">
  <advance width="1574"/>
  <unicode hex="00BE"/>
  <outline>
    <contour>
      <point x="1418" y="158" type="line"/>
      <point x="1418" y="271" type="line"/>
      <point x="1322" y="271" type="line"/>
      <point x="1322" y="745" type="line"/>
      <point x="1184" y="745" type="line"/>
      <point x="788" y="271" type="line"/>
      <point x="788" y="158" type="line"/>
      <point x="1144" y="158" type="line"/>
      <point x="1144" y="-7" type="line"/>
      <point x="1322" y="-7" type="line"/>
      <point x="1322" y="158" type="line"/>
    </contour>
    <contour>
      <point x="1340" y="1248" type="line"/>
      <point x="1224" y="1248" type="line"/>
      <point x="342" y="-14" type="line" name="hr01"/>
      <point x="458" y="-14" type="line"/>
    </contour>
    <contour>
      <point x="682" y="733" type="curve" smooth="yes"/>
      <point x="682" y="838"/>
      <point x="607" y="895"/>
      <point x="524" y="925" type="curve"/>
      <point x="575" y="950"/>
      <point x="638" y="1026"/>
      <point x="638" y="1081" type="curve" smooth="yes" name="hr02"/>
      <point x="638" y="1177"/>
      <point x="550" y="1234"/>
      <point x="416" y="1234" type="curve" smooth="yes"/>
      <point x="260" y="1234"/>
      <point x="199" y="1132"/>
      <point x="150" y="1038" type="curve"/>
      <point x="191" y="1024" type="line"/>
      <point x="236" y="1091"/>
      <point x="294" y="1128"/>
      <point x="356" y="1128" type="curve" smooth="yes"/>
      <point x="419" y="1128"/>
      <point x="462" y="1091"/>
      <point x="462" y="1028" type="curve" smooth="yes"/>
      <point x="462" y="946"/>
      <point x="364" y="886"/>
      <point x="254" y="878" type="curve"/>
      <point x="254" y="835" type="line" name="hr03"/>
      <point x="415" y="824"/>
      <point x="517" y="745"/>
      <point x="517" y="641" type="curve" smooth="yes"/>
      <point x="517" y="583"/>
      <point x="469" y="530"/>
      <point x="401" y="530" type="curve" smooth="yes"/>
      <point x="324" y="530"/>
      <point x="277" y="607"/>
      <point x="222" y="607" type="curve" smooth="yes" name="hr04"/>
      <point x="173" y="607"/>
      <point x="150" y="577"/>
      <point x="150" y="544" type="curve" smooth="yes"/>
      <point x="150" y="476"/>
      <point x="230" y="460"/>
      <point x="320" y="460" type="curve" smooth="yes"/>
      <point x="527" y="460"/>
      <point x="682" y="575"/>
    </contour>
    <contour>
      <point x="1144" y="271" type="line"/>
      <point x="886" y="271" type="line"/>
      <point x="1144" y="576" type="line"/>
    </contour>
  </outline>
</glyph>
<glyph name="questiondown" format="2">
  <advance width="906"/>
  <unicode hex="00BF"/>
  <outline>
    <contour>
      <point x="342" y="745" type="curve" smooth="yes"/>
      <point x="342" y="668"/>
      <point x="406" y="606"/>
      <point x="481" y="606" type="curve" smooth="yes"/>
      <point x="557" y="606"/>
      <point x="618" y="668"/>
      <point x="618" y="745" type="curve" smooth="yes"/>
      <point x="618" y="820"/>
      <point x="557" y="882"/>
      <point x="481" y="882" type="curve" smooth="yes"/>
      <point x="406" y="882"/>
      <point x="342" y="820"/>
    </contour>
    <contour>
      <point x="100" y="-110" type="curve" smooth="yes" name="hr01"/>
      <point x="100" y="-308"/>
      <point x="254" y="-397"/>
      <point x="444" y="-397" type="curve" smooth="yes"/>
      <point x="714" y="-397"/>
      <point x="806" y="-233"/>
      <point x="806" y="-104" type="curve" smooth="yes"/>
      <point x="806" y="-25"/>
      <point x="750" y="32"/>
      <point x="667" y="32" type="curve" smooth="yes"/>
      <point x="607" y="32"/>
      <point x="569" y="-16"/>
      <point x="569" y="-71" type="curve" smooth="yes"/>
      <point x="569" y="-136"/>
      <point x="624" y="-209"/>
      <point x="624" y="-245" type="curve" smooth="yes" name="hr02"/>
      <point x="624" y="-286"/>
      <point x="566" y="-314"/>
      <point x="509" y="-314" type="curve" smooth="yes"/>
      <point x="409" y="-314"/>
      <point x="358" y="-242"/>
      <point x="358" y="-101" type="curve" smooth="yes"/>
      <point x="358" y="-18"/>
      <point x="373" y="61"/>
      <point x="422" y="162" type="curve" smooth="yes"/>
      <point x="486" y="292"/>
      <point x="515" y="374"/>
      <point x="515" y="491" type="curve"/>
      <point x="443" y="491" type="line"/>
      <point x="443" y="382"/>
      <point x="355" y="284"/>
      <point x="269" y="187" type="curve" smooth="yes"/>
      <point x="184" y="92"/>
      <point x="100" y="-4"/>
    </contour>
  </outline>
</glyph>
<glyph name="AE" format="2">
  <advance width="1858"/>
  <unicode hex="00C6"/>
  <outline>
    <contour>
      <point x="1782" y="355" type="line"/>
      <point x="1708" y="355" type="line"/>
      <point x="1609" y="181"/>
      <point x="1559" y="103"/>
      <point x="1345" y="103" type="curve" smooth="yes"/>
      <point x="1249" y="103" type="line" smooth="yes"/>
      <point x="1180" y="103"/>
      <point x="1169" y="128"/>
      <point x="1158" y="144" type="curve" smooth="yes"/>
      <point x="1151" y="155"/>
      <point x="1145" y="192"/>
      <point x="1145" y="240" type="curve" smooth="yes"/>
      <point x="1145" y="572" type="line"/>
      <point x="1255" y="572" type="line" smooth="yes"/>
      <point x="1408" y="572"/>
      <point x="1429" y="520"/>
      <point x="1450" y="377" type="curve"/>
      <point x="1522" y="377" type="line"/>
      <point x="1522" y="889" type="line"/>
      <point x="1450" y="889" type="line"/>
      <point x="1429" y="746"/>
      <point x="1405" y="677"/>
      <point x="1255" y="677" type="curve" smooth="yes"/>
      <point x="1145" y="677" type="line"/>
      <point x="1145" y="1120" type="line"/>
      <point x="1374" y="1120" type="line" smooth="yes"/>
      <point x="1556" y="1120"/>
      <point x="1571" y="1054"/>
      <point x="1613" y="896" type="curve"/>
      <point x="1682" y="896" type="line"/>
      <point x="1668" y="1226" type="line"/>
      <point x="587" y="1226" type="line"/>
      <point x="587" y="1154" type="line"/>
      <point x="697" y="1147"/>
      <point x="713" y="1121"/>
      <point x="713" y="1080" type="curve" smooth="yes"/>
      <point x="713" y="1051"/>
      <point x="695" y="1014"/>
      <point x="659" y="944" type="curve" smooth="yes"/>
      <point x="299" y="248" type="line" smooth="yes"/>
      <point x="235" y="126"/>
      <point x="188" y="109"/>
      <point x="152" y="88" type="curve" smooth="yes"/>
      <point x="136" y="78"/>
      <point x="112" y="72"/>
      <point x="85" y="72" type="curve"/>
      <point x="85" y="0" type="line" name="hr01"/>
      <point x="515" y="0" type="line"/>
      <point x="515" y="72" type="line"/>
      <point x="431" y="80"/>
      <point x="372" y="96"/>
      <point x="372" y="145" type="curve" smooth="yes"/>
      <point x="372" y="163"/>
      <point x="380" y="186"/>
      <point x="422" y="264" type="curve" smooth="yes"/>
      <point x="515" y="438" type="line"/>
      <point x="863" y="438" type="line"/>
      <point x="863" y="256" type="line" smooth="yes"/>
      <point x="863" y="181"/>
      <point x="851" y="136"/>
      <point x="836" y="116" type="curve" smooth="yes"/>
      <point x="811" y="86"/>
      <point x="774" y="72"/>
      <point x="724" y="72" type="curve" smooth="yes"/>
      <point x="689" y="72" type="line"/>
      <point x="689" y="0" type="line"/>
      <point x="1657" y="4" type="line"/>
    </contour>
    <contour>
      <point x="863" y="542" type="line"/>
      <point x="569" y="542" type="line"/>
      <point x="863" y="1121" type="line"/>
    </contour>
  </outline>
</glyph>
<glyph name="Eth" format="2">
  <advance width="1326"/>
  <unicode hex="00D0"/>
  <outline>
    <contour>
      <point x="1250" y="613" type="curve" smooth="yes"/>
      <point x="1250" y="846"/>
      <point x="1142" y="1049"/>
      <point x="949" y="1153" type="curve" smooth="yes"/>
      <point x="863" y="1200"/>
      <point x="758" y="1226"/>
      <point x="638" y="1226" type="curve" smooth="yes"/>
      <point x="25" y="1226" type="line"/>
      <point x="25" y="1154" type="line"/>
      <point x="83" y="1154" type="line" smooth="yes"/>
      <point x="128" y="1154"/>
      <point x="157" y="1141"/>
      <point x="174" y="1115" type="curve" smooth="yes"/>
      <point x="193" y="1086"/>
      <point x="198" y="1040"/>
      <point x="198" y="984" type="curve" smooth="yes"/>
      <point x="198" y="712" type="line"/>
      <point x="25" y="712" type="line"/>
      <point x="25" y="587" type="line"/>
      <point x="198" y="587" type="line"/>
      <point x="198" y="242" type="line" smooth="yes"/>
      <point x="198" y="132"/>
      <point x="182" y="72"/>
      <point x="74" y="72" type="curve" smooth="yes"/>
      <point x="25" y="72" type="line"/>
      <point x="25" y="0" type="line"/>
      <point x="638" y="0" type="line" smooth="yes"/>
      <point x="1024" y="0"/>
      <point x="1250" y="264"/>
    </contour>
    <contour>
      <point x="924" y="613" type="curve"/>
      <point x="924" y="370"/>
      <point x="851" y="104"/>
      <point x="599" y="104" type="curve" smooth="yes" name="hr01"/>
      <point x="547" y="104"/>
      <point x="504" y="110"/>
      <point x="484" y="122" type="curve"/>
      <point x="484" y="587" type="line"/>
      <point x="762" y="587" type="line"/>
      <point x="762" y="712" type="line"/>
      <point x="484" y="712" type="line"/>
      <point x="484" y="1115" type="line"/>
      <point x="502" y="1119"/>
      <point x="521" y="1120"/>
      <point x="554" y="1120" type="curve" smooth="yes"/>
      <point x="844" y="1120"/>
      <point x="924" y="847"/>
    </contour>
  </outline>
</glyph>
<glyph name="Oslash" format="2">
  <advance width="1442"/>
  <unicode hex="00D8"/>
  <outline>
    <contour>
      <point x="1373" y="613" type="curve" smooth="yes"/>
      <point x="1373" y="790"/>
      <point x="1301" y="949"/>
      <point x="1183" y="1064" type="curve"/>
      <point x="1303" y="1201" type="line"/>
      <point x="1231" y="1266" type="line"/>
      <point x="1111" y="1127" type="line"/>
      <point x="1002" y="1206"/>
      <point x="864" y="1253"/>
      <point x="720" y="1253" type="curve" smooth="yes" name="hr01"/>
      <point x="364" y="1253"/>
      <point x="70" y="970"/>
      <point x="70" y="613" type="curve" smooth="yes"/>
      <point x="70" y="432"/>
      <point x="146" y="269"/>
      <point x="269" y="154" type="curve"/>
      <point x="156" y="20" type="line"/>
      <point x="227" y="-43" type="line"/>
      <point x="342" y="92" type="line"/>
      <point x="449" y="18"/>
      <point x="580" y="-26"/>
      <point x="720" y="-26" type="curve" smooth="yes" name="hr02"/>
      <point x="1076" y="-26"/>
      <point x="1373" y="257"/>
    </contour>
    <contour>
      <point x="986" y="982" type="curve"/>
      <point x="426" y="335" type="line"/>
      <point x="403" y="424"/>
      <point x="396" y="522"/>
      <point x="396" y="613" type="curve" smooth="yes"/>
      <point x="396" y="870"/>
      <point x="463" y="1186"/>
      <point x="720" y="1186" type="curve" smooth="yes"/>
      <point x="854" y="1186"/>
      <point x="937" y="1100"/>
    </contour>
    <contour>
      <point x="1046" y="613" type="curve" smooth="yes"/>
      <point x="1046" y="356"/>
      <point x="977" y="41"/>
      <point x="720" y="41" type="curve" smooth="yes"/>
      <point x="592" y="41"/>
      <point x="511" y="119"/>
      <point x="461" y="229" type="curve"/>
      <point x="1019" y="874" type="line"/>
      <point x="1039" y="790"/>
      <point x="1046" y="698"/>
    </contour>
  </outline>
</glyph>
<glyph name="eth" format="2">
  <advance width="938"/>
  <unicode hex="00F0"/>
  <outline>
    <contour>
      <point x="175" y="986" type="line"/>
      <point x="218" y="898" type="line"/>
      <point x="421" y="1009" type="line"/>
      <point x="456" y="960"/>
      <point x="485" y="906"/>
      <point x="508" y="851" type="curve"/>
      <point x="496" y="852"/>
      <point x="481" y="853"/>
      <point x="466" y="853" type="curve" smooth="yes"/>
      <point x="208" y="853"/>
      <point x="49" y="637"/>
      <point x="49" y="406" type="curve" smooth="yes"/>
      <point x="49" y="181"/>
      <point x="210" y="-28"/>
      <point x="475" y="-28" type="curve" smooth="yes"/>
      <point x="732" y="-28"/>
      <point x="887" y="186"/>
      <point x="887" y="431" type="curve" smooth="yes"/>
      <point x="887" y="646"/>
      <point x="773" y="905"/>
      <point x="568" y="1090" type="curve"/>
      <point x="739" y="1184" type="line"/>
      <point x="689" y="1273" type="line"/>
      <point x="482" y="1158" type="line"/>
      <point x="406" y="1210"/>
      <point x="300" y="1265"/>
      <point x="239" y="1288" type="curve"/>
      <point x="203" y="1228" type="line"/>
      <point x="257" y="1189"/>
      <point x="310" y="1142"/>
      <point x="358" y="1088" type="curve"/>
    </contour>
    <contour>
      <point x="625" y="359" type="curve" smooth="yes"/>
      <point x="625" y="146"/>
      <point x="588" y="64"/>
      <point x="517" y="64" type="curve" smooth="yes"/>
      <point x="415" y="64"/>
      <point x="313" y="256"/>
      <point x="313" y="481" type="curve" smooth="yes"/>
      <point x="313" y="698"/>
      <point x="373" y="763"/>
      <point x="428" y="763" type="curve" smooth="yes"/>
      <point x="557" y="763"/>
      <point x="625" y="634"/>
    </contour>
  </outline>
</glyph>
<glyph name="oslash" format="2">
  <advance width="926"/>
  <unicode hex="00F8"/>
  <outline>
    <contour>
      <point x="925" y="824" type="line"/>
      <point x="851" y="886" type="line"/>
      <point x="733" y="763" type="line"/>
      <point x="662" y="820"/>
      <point x="571" y="853"/>
      <point x="466" y="853" type="curve" smooth="yes"/>
      <point x="208" y="853"/>
      <point x="49" y="637"/>
      <point x="49" y="406" type="curve" smooth="yes"/>
      <point x="49" y="308"/>
      <point x="79" y="214"/>
      <point x="136" y="138" type="curve"/>
      <point x="6" y="2" type="line"/>
      <point x="78" y="-61" type="line"/>
      <point x="202" y="67" type="line"/>
      <point x="271" y="8"/>
      <point x="364" y="-28"/>
      <point x="475" y="-28" type="curve" smooth="yes"/>
      <point x="732" y="-28"/>
      <point x="887" y="186"/>
      <point x="887" y="431" type="curve" smooth="yes"/>
      <point x="887" y="530"/>
      <point x="856" y="622"/>
      <point x="800" y="694" type="curve"/>
    </contour>
    <contour>
      <point x="584" y="608" type="curve"/>
      <point x="326" y="338" type="line"/>
      <point x="318" y="383"/>
      <point x="313" y="431"/>
      <point x="313" y="481" type="curve" smooth="yes"/>
      <point x="313" y="698"/>
      <point x="373" y="763"/>
      <point x="428" y="763" type="curve" smooth="yes"/>
      <point x="499" y="763"/>
      <point x="552" y="698"/>
    </contour>
    <contour>
      <point x="625" y="359" type="curve" smooth="yes"/>
      <point x="625" y="146"/>
      <point x="588" y="64"/>
      <point x="517" y="64" type="curve" smooth="yes"/>
      <point x="457" y="64"/>
      <point x="396" y="130"/>
      <point x="358" y="230" type="curve"/>
      <point x="613" y="498" type="line"/>
      <point x="622" y="452"/>
      <point x="625" y="406"/>
    </contour>
  </outline>
</glyph>
<glyph name="thorn" format="2">
  <advance width="1034"/>
  <unicode hex="00FE"/>
  <outline>
    <contour>
      <point x="978" y="484" type="curve" smooth="yes"/>
      <point x="978" y="712"/>
      <point x="832" y="853"/>
      <point x="674" y="853" type="curve" smooth="yes"/>
      <point x="580" y="853"/>
      <point x="487" y="804"/>
      <point x="402" y="685" type="curve"/>
      <point x="402" y="1288" type="line"/>
      <point x="330" y="1288" type="line"/>
      <point x="-6" y="1181" type="line"/>
      <point x="25" y="1120" type="line"/>
      <point x="48" y="1128"/>
      <point x="68" y="1133"/>
      <point x="90" y="1133" type="curve" smooth="yes"/>
      <point x="126" y="1133"/>
      <point x="144" y="1105"/>
      <point x="144" y="1010" type="curve" smooth="yes"/>
      <point x="144" y="-198" type="line" smooth="yes"/>
      <point x="144" y="-299"/>
      <point x="127" y="-326"/>
      <point x="41" y="-326" type="curve"/>
      <point x="41" y="-398" type="line"/>
      <point x="500" y="-398" type="line"/>
      <point x="500" y="-326" type="line"/>
      <point x="424" y="-326"/>
      <point x="402" y="-308"/>
      <point x="402" y="-198" type="curve" smooth="yes"/>
      <point x="402" y="25" type="line"/>
      <point x="437" y="-7"/>
      <point x="509" y="-28"/>
      <point x="563" y="-28" type="curve" smooth="yes"/>
      <point x="847" y="-28"/>
      <point x="978" y="196"/>
    </contour>
    <contour>
      <point x="712" y="392" type="curve" smooth="yes"/>
      <point x="712" y="132"/>
      <point x="632" y="55"/>
      <point x="548" y="55" type="curve" smooth="yes"/>
      <point x="479" y="55"/>
      <point x="431" y="86"/>
      <point x="412" y="148" type="curve" smooth="yes"/>
      <point x="406" y="167"/>
      <point x="402" y="190"/>
      <point x="402" y="215" type="curve" smooth="yes"/>
      <point x="402" y="595" type="line"/>
      <point x="461" y="658"/>
      <point x="512" y="684"/>
      <point x="556" y="684" type="curve" smooth="yes"/>
      <point x="668" y="684"/>
      <point x="712" y="535"/>
    </contour>
  </outline>
</glyph>
<glyph name="OE" format="2">
  <advance width="1820"/>
  <unicode hex="0152"/>
  <outline>
    <contour>
      <point x="1784" y="355" type="line"/>
      <point x="1710" y="355" type="line"/>
      <point x="1612" y="181"/>
      <point x="1561" y="103"/>
      <point x="1348" y="103" type="curve" smooth="yes"/>
      <point x="1158" y="103"/>
      <point x="1147" y="109"/>
      <point x="1147" y="254" type="curve" smooth="yes"/>
      <point x="1147" y="572" type="line"/>
      <point x="1258" y="572" type="line" smooth="yes"/>
      <point x="1410" y="572"/>
      <point x="1432" y="520"/>
      <point x="1452" y="377" type="curve"/>
      <point x="1524" y="377" type="line"/>
      <point x="1524" y="889" type="line"/>
      <point x="1452" y="889" type="line"/>
      <point x="1432" y="746"/>
      <point x="1408" y="677"/>
      <point x="1258" y="677" type="curve" smooth="yes"/>
      <point x="1147" y="677" type="line"/>
      <point x="1147" y="1120" type="line"/>
      <point x="1376" y="1120" type="line" smooth="yes"/>
      <point x="1559" y="1120"/>
      <point x="1573" y="1054"/>
      <point x="1615" y="896" type="curve"/>
      <point x="1685" y="896" type="line"/>
      <point x="1670" y="1226" type="line"/>
      <point x="978" y="1226" type="line" smooth="yes"/>
      <point x="865" y="1226"/>
      <point x="775" y="1238"/>
      <point x="713" y="1238" type="curve" smooth="yes" name="hr01"/>
      <point x="346" y="1238"/>
      <point x="66" y="970"/>
      <point x="66" y="613" type="curve" smooth="yes"/>
      <point x="66" y="266"/>
      <point x="318" y="-14"/>
      <point x="690" y="-14" type="curve" smooth="yes"/>
      <point x="784" y="-14"/>
      <point x="880" y="0"/>
      <point x="973" y="0" type="curve" smooth="yes" name="hr02"/>
      <point x="1658" y="0" type="line"/>
    </contour>
    <contour>
      <point x="865" y="307" type="line"/>
      <point x="865" y="148"/>
      <point x="870" y="77"/>
      <point x="710" y="77" type="curve" smooth="yes"/>
      <point x="457" y="77"/>
      <point x="392" y="407"/>
      <point x="392" y="620" type="curve" smooth="yes"/>
      <point x="392" y="853"/>
      <point x="460" y="1162"/>
      <point x="713" y="1162" type="curve" smooth="yes"/>
      <point x="817" y="1162"/>
      <point x="865" y="1151"/>
      <point x="865" y="965" type="curve" smooth="yes"/>
    </contour>
  </outline>
</glyph>
<glyph name="oe" format="2">
  <advance width="1416"/>
  <unicode hex="0153"/>
  <outline>
    <contour>
      <point x="1302" y="329" type="line"/>
      <point x="1253" y="208"/>
      <point x="1188" y="166"/>
      <point x="1109" y="166" type="curve" smooth="yes"/>
      <point x="936" y="166"/>
      <point x="836" y="335"/>
      <point x="836" y="464" type="curve" smooth="yes"/>
      <point x="836" y="490" type="line"/>
      <point x="1355" y="490" type="line"/>
      <point x="1355" y="503" type="line" smooth="yes"/>
      <point x="1355" y="750"/>
      <point x="1205" y="854"/>
      <point x="1032" y="854" type="curve" smooth="yes"/>
      <point x="971" y="854"/>
      <point x="858" y="835"/>
      <point x="758" y="738" type="curve"/>
      <point x="703" y="805"/>
      <point x="581" y="853"/>
      <point x="466" y="853" type="curve" smooth="yes" name="hr01"/>
      <point x="208" y="853"/>
      <point x="49" y="637"/>
      <point x="49" y="406" type="curve" smooth="yes"/>
      <point x="49" y="181"/>
      <point x="210" y="-28"/>
      <point x="475" y="-28" type="curve" smooth="yes"/>
      <point x="599" y="-28"/>
      <point x="689" y="23"/>
      <point x="744" y="76" type="curve"/>
      <point x="808" y="7"/>
      <point x="899" y="-28"/>
      <point x="1002" y="-28" type="curve" smooth="yes"/>
      <point x="1212" y="-28"/>
      <point x="1322" y="139"/>
      <point x="1355" y="306" type="curve"/>
    </contour>
    <contour>
      <point x="835" y="568" type="line"/>
      <point x="835" y="686"/>
      <point x="900" y="764"/>
      <point x="965" y="764" type="curve" smooth="yes" name="hr02"/>
      <point x="1078" y="764"/>
      <point x="1112" y="642"/>
      <point x="1112" y="568" type="curve"/>
    </contour>
    <contour>
      <point x="625" y="359" type="curve" smooth="yes"/>
      <point x="625" y="146"/>
      <point x="588" y="64"/>
      <point x="517" y="64" type="curve" smooth="yes"/>
      <point x="415" y="64"/>
      <point x="313" y="256"/>
      <point x="313" y="481" type="curve" smooth="yes"/>
      <point x="313" y="698"/>
      <point x="373" y="763"/>
      <point x="428" y="763" type="curve" smooth="yes"/>
      <point x="556" y="763"/>
      <point x="625" y="554"/>
    </contour>
  </outline>
</glyph>
<glyph name="circumflex" format="2">
  <advance width="584"/>
  <unicode hex="02C6"/>
  <anchor x="290" y="924" name="_above"/>
  <outline>
    <contour>
      <point x="608" y="959" type="line"/>
      <point x="379" y="1300" type="line"/>
      <point x="206" y="1300" type="line"/>
      <point x="-24" y="959" type="line"/>
      <point x="53" y="959" type="line"/>
      <point x="293" y="1139" type="line"/>
      <point x="533" y="959" type="line"/>
    </contour>
  </outline>
</glyph>
<glyph name="colontriangularmod" format="2">
  <advance width="659"/>
  <unicode hex="02D0"/>
  <outline>
    <contour>
      <point x="503" y="871" type="line"/>
      <point x="156" y="871" type="line"/>
      <point x="260" y="517" type="line"/>
      <point x="400" y="517" type="line"/>
    </contour>
    <contour>
      <point x="503" y="0" type="line"/>
      <point x="400" y="355" type="line"/>
      <point x="260" y="355" type="line"/>
      <point x="156" y="0" type="line"/>
    </contour>
  </outline>
</glyph>
<glyph name="dotaccent" format="2">
  <advance width="396"/>
  <unicode hex="02D9"/>
  <outline>
    <contour>
      <point x="198" y="710" type="curve" smooth="yes"/>
      <point x="278" y="710"/>
      <point x="337" y="769"/>
      <point x="337" y="849" type="curve" smooth="yes"/>
      <point x="337" y="929"/>
      <point x="278" y="988"/>
      <point x="198" y="988" type="curve" smooth="yes"/>
      <point x="118" y="988"/>
      <point x="59" y="929"/>
      <point x="59" y="849" type="curve" smooth="yes"/>
      <point x="59" y="770"/>
      <point x="118" y="710"/>
    </contour>
  </outline>
</glyph>
<glyph name="ring" format="2">
  <advance width="382"/>
  <unicode hex="02DA"/>
  <anchor x="193" y="912" name="_above"/>
  <outline>
    <contour>
      <point x="382" y="1152" type="curve" smooth="yes"/>
      <point x="382" y="1256"/>
      <point x="296" y="1342"/>
      <point x="191" y="1342" type="curve" smooth="yes"/>
      <point x="85" y="1342"/>
      <point x="0" y="1256"/>
      <point x="0" y="1152" type="curve" smooth="yes"/>
      <point x="0" y="1046"/>
      <point x="85" y="961"/>
      <point x="191" y="961" type="curve" smooth="yes"/>
      <point x="296" y="961"/>
      <point x="382" y="1046"/>
    </contour>
    <contour>
      <point x="290" y="1152" type="curve" smooth="yes"/>
      <point x="290" y="1096"/>
      <point x="246" y="1051"/>
      <point x="191" y="1051" type="curve" smooth="yes"/>
      <point x="136" y="1051"/>
      <point x="91" y="1096"/>
      <point x="91" y="1152" type="curve" smooth="yes"/>
      <point x="91" y="1206"/>
      <point x="136" y="1252"/>
      <point x="191" y="1252" type="curve" smooth="yes"/>
      <point x="246" y="1252"/>
      <point x="290" y="1206"/>
    </contour>
  </outline>
</glyph>
<glyph name="ogonek" format="2">
  <advance width="456"/>
  <unicode hex="02DB"/>
  <outline>
    <contour>
      <point x="172" y="-2" type="line"/>
      <point x="110" y="-40"/>
      <point x="23" y="-143"/>
      <point x="24" y="-214" type="curve" smooth="yes"/>
      <point x="25" y="-301"/>
      <point x="86" y="-371"/>
      <point x="179" y="-371" type="curve" smooth="yes"/>
      <point x="250" y="-371"/>
      <point x="335" y="-325"/>
      <point x="434" y="-234" type="curve"/>
      <point x="380" y="-173" type="line"/>
      <point x="326" y="-228"/>
      <point x="281" y="-256"/>
      <point x="244" y="-256" type="curve" smooth="yes"/>
      <point x="206" y="-256"/>
      <point x="174" y="-220"/>
      <point x="174" y="-182" type="curve" smooth="yes"/>
      <point x="174" y="-114"/>
      <point x="206" y="-54"/>
      <point x="271" y="-2" type="curve"/>
    </contour>
  </outline>
</glyph>
<glyph name="number-ar" format="2">
  <advance width="2033"/>
  <unicode hex="0600"/>
  <anchor x="190" y="0" name="digitR"/>
  <outline>
    <contour>
      <point x="930" y="-140" type="curve" smooth="yes"/>
      <point x="1073" y="-134"/>
      <point x="1249" y="-53"/>
      <point x="1408" y="15" type="curve" smooth="yes"/>
      <point x="1539" y="74"/>
      <point x="1787" y="189"/>
      <point x="1885" y="227" type="curve" smooth="yes"/>
      <point x="1906" y="235"/>
      <point x="1931" y="360"/>
      <point x="1936" y="387" type="curve" smooth="yes"/>
      <point x="1945" y="429"/>
      <point x="1949" y="477"/>
      <point x="1949" y="483" type="curve" smooth="yes"/>
      <point x="1949" y="492"/>
      <point x="1946" y="495"/>
      <point x="1940" y="495" type="curve" smooth="yes"/>
      <point x="1901" y="495"/>
      <point x="1606" y="309"/>
      <point x="1471" y="309" type="curve" smooth="yes"/>
      <point x="1372" y="309"/>
      <point x="1197" y="425"/>
      <point x="1197" y="472" type="curve" smooth="yes"/>
      <point x="1197" y="505"/>
      <point x="1253" y="552"/>
      <point x="1341" y="581" type="curve" smooth="yes"/>
      <point x="1419" y="607"/>
      <point x="1513" y="631"/>
      <point x="1588" y="631" type="curve" smooth="yes"/>
      <point x="1658" y="631"/>
      <point x="1761" y="573"/>
      <point x="1772" y="573" type="curve" smooth="yes"/>
      <point x="1780" y="573"/>
      <point x="1791" y="593"/>
      <point x="1791" y="603" type="curve" smooth="yes"/>
      <point x="1791" y="645"/>
      <point x="1626" y="833"/>
      <point x="1501" y="833" type="curve" smooth="yes"/>
      <point x="1455" y="833"/>
      <point x="1390" y="814"/>
      <point x="1328" y="771" type="curve" smooth="yes"/>
      <point x="1210" y="689"/>
      <point x="1013" y="492"/>
      <point x="1013" y="359" type="curve" smooth="yes"/>
      <point x="1013" y="258"/>
      <point x="1089" y="215"/>
      <point x="1136" y="176" type="curve"/>
      <point x="1073" y="142"/>
      <point x="999" y="128"/>
      <point x="930" y="125" type="curve" smooth="yes"/>
      <point x="756" y="117"/>
      <point x="258" y="115"/>
      <point x="158" y="99" type="curve" smooth="yes"/>
      <point x="122" y="93"/>
      <point x="74" y="74"/>
      <point x="74" y="0" type="curve" smooth="yes"/>
      <point x="74" y="-103"/>
      <point x="152" y="-145"/>
      <point x="645" y="-145" type="curve" smooth="yes"/>
      <point x="685" y="-145"/>
      <point x="821" y="-145"/>
    </contour>
  </outline>
</glyph>
<glyph name="year-ar" format="2">
  <advance width="1871"/>
  <unicode hex="0601"/>
  <anchor x="806" y="0" name="digitR"/>
  <outline>
    <contour>
      <point x="1827" y="218" type="curve" smooth="yes"/>
      <point x="1827" y="241"/>
      <point x="1813" y="257"/>
      <point x="1792" y="257" type="curve" smooth="yes"/>
      <point x="1766" y="257"/>
      <point x="1740" y="238"/>
      <point x="1640" y="183" type="curve" smooth="yes"/>
      <point x="1505" y="109"/>
      <point x="1285" y="88"/>
      <point x="1114" y="88" type="curve" smooth="yes"/>
      <point x="934" y="88"/>
      <point x="719" y="164"/>
      <point x="671" y="164" type="curve" smooth="yes" name="hr01"/>
      <point x="618" y="164"/>
      <point x="597" y="129"/>
      <point x="568" y="57" type="curve" smooth="yes"/>
      <point x="532" y="-32"/>
      <point x="515" y="-59"/>
      <point x="452" y="-59" type="curve" smooth="yes" name="hr02"/>
      <point x="429" y="-59"/>
      <point x="341" y="-49"/>
      <point x="276" y="-49" type="curve" smooth="yes"/>
      <point x="212" y="-49"/>
      <point x="90" y="-283"/>
      <point x="44" y="-365" type="curve"/>
      <point x="49" y="-403"/>
      <point x="77" y="-434"/>
      <point x="96" y="-434" type="curve"/>
      <point x="141" y="-392"/>
      <point x="209" y="-307"/>
      <point x="267" y="-307" type="curve" smooth="yes"/>
      <point x="296" y="-307"/>
      <point x="402" y="-319"/>
      <point x="431" y="-319" type="curve" smooth="yes"/>
      <point x="503" y="-319"/>
      <point x="581" y="-238"/>
      <point x="629" y="-125" type="curve"/>
      <point x="740" y="-160"/>
      <point x="885" y="-171"/>
      <point x="1034" y="-171" type="curve" smooth="yes" name="hr03"/>
      <point x="1309" y="-171"/>
      <point x="1560" y="-52"/>
      <point x="1727" y="83" type="curve" smooth="yes"/>
      <point x="1753" y="103"/>
      <point x="1827" y="178"/>
    </contour>
  </outline>
</glyph>
<glyph name="footnotemarker-ar" format="2">
  <advance width="1756"/>
  <unicode hex="0602"/>
  <anchor x="838" y="0" name="digitR"/>
  <outline>
    <contour>
      <point x="570" y="232" type="curve" smooth="yes"/>
      <point x="570" y="203"/>
      <point x="547" y="167"/>
      <point x="538" y="158" type="curve"/>
      <point x="394" y="189"/>
      <point x="367" y="236"/>
      <point x="367" y="260" type="curve" smooth="yes"/>
      <point x="367" y="302"/>
      <point x="402" y="349"/>
      <point x="465" y="349" type="curve" smooth="yes"/>
      <point x="487" y="349"/>
      <point x="526" y="338"/>
      <point x="550" y="303" type="curve" smooth="yes"/>
      <point x="561" y="286"/>
      <point x="570" y="262"/>
    </contour>
    <contour>
      <point x="1669" y="146" type="curve"/>
      <point x="1527" y="102"/>
      <point x="1272" y="78"/>
      <point x="1117" y="78" type="curve" smooth="yes"/>
      <point x="983" y="78"/>
      <point x="863" y="78"/>
      <point x="732" y="104" type="curve"/>
      <point x="777" y="177"/>
      <point x="796" y="258"/>
      <point x="796" y="328" type="curve" smooth="yes"/>
      <point x="796" y="394"/>
      <point x="789" y="457"/>
      <point x="754" y="506" type="curve" smooth="yes"/>
      <point x="708" y="571"/>
      <point x="637" y="616"/>
      <point x="551" y="616" type="curve" smooth="yes"/>
      <point x="457" y="616"/>
      <point x="360" y="570"/>
      <point x="271" y="489" type="curve" smooth="yes"/>
      <point x="194" y="418"/>
      <point x="86" y="307"/>
      <point x="86" y="183" type="curve" smooth="yes"/>
      <point x="86" y="-41"/>
      <point x="483" y="-145"/>
      <point x="915" y="-145" type="curve" smooth="yes"/>
      <point x="1118" y="-145"/>
      <point x="1482" y="-102"/>
      <point x="1643" y="-7" type="curve"/>
      <point x="1665" y="26"/>
      <point x="1669" y="109"/>
    </contour>
  </outline>
</glyph>
<glyph name="pagenumber-ar" format="2">
  <advance width="2105"/>
  <unicode hex="0603"/>
  <anchor x="228" y="0" name="digitR"/>
  <outline>
    <contour>
      <point x="2023" y="628" type="curve" smooth="yes"/>
      <point x="2023" y="718"/>
      <point x="1978" y="848"/>
      <point x="1815" y="848" type="curve" smooth="yes"/>
      <point x="1621" y="848"/>
      <point x="1391" y="532"/>
      <point x="1286" y="320" type="curve"/>
      <point x="1270" y="319"/>
      <point x="1259" y="319"/>
      <point x="1256" y="319" type="curve"/>
      <point x="1179" y="319"/>
      <point x="1095" y="384"/>
      <point x="1066" y="428" type="curve"/>
      <point x="1040" y="428"/>
      <point x="1025" y="323"/>
      <point x="998" y="280" type="curve" smooth="yes"/>
      <point x="898" y="117"/>
      <point x="451" y="54"/>
      <point x="261" y="54" type="curve" smooth="yes"/>
      <point x="229" y="54"/>
      <point x="113" y="58"/>
      <point x="99" y="58" type="curve" smooth="yes"/>
      <point x="77" y="58"/>
      <point x="74" y="48"/>
      <point x="74" y="33" type="curve" smooth="yes"/>
      <point x="74" y="-13"/>
      <point x="341" y="-78"/>
      <point x="531" y="-78" type="curve" smooth="yes"/>
      <point x="658" y="-78"/>
      <point x="1022" y="-78"/>
      <point x="1143" y="70" type="curve"/>
      <point x="1154" y="62"/>
      <point x="1177" y="57"/>
      <point x="1190" y="57" type="curve"/>
      <point x="1177" y="26"/>
      <point x="1167" y="1"/>
      <point x="1167" y="-16" type="curve" smooth="yes"/>
      <point x="1167" y="-39"/>
      <point x="1240" y="-109"/>
      <point x="1251" y="-109" type="curve" name="hr01"/>
      <point x="1254" y="-94"/>
      <point x="1280" y="7"/>
      <point x="1306" y="57" type="curve"/>
      <point x="1666" y="57"/>
      <point x="2023" y="265"/>
    </contour>
    <contour>
      <point x="1857" y="483" type="curve" smooth="yes"/>
      <point x="1857" y="422"/>
      <point x="1730" y="320"/>
      <point x="1414" y="320" type="curve"/>
      <point x="1504" y="505"/>
      <point x="1618" y="570"/>
      <point x="1698" y="570" type="curve" smooth="yes"/>
      <point x="1768" y="570"/>
      <point x="1857" y="539"/>
    </contour>
  </outline>
</glyph>
<glyph name="samvat-ar" format="2">
  <advance width="2629"/>
  <unicode hex="0604"/>
  <anchor x="457" y="0" name="digitR"/>
  <outline>
    <contour>
      <point x="2542" y="898" type="curve" smooth="yes"/>
      <point x="2542" y="1019"/>
      <point x="2472" y="1153"/>
      <point x="2440" y="1153" type="curve" smooth="yes"/>
      <point x="2400" y="1153"/>
      <point x="2300" y="861"/>
      <point x="2300" y="850" type="curve" smooth="yes"/>
      <point x="2300" y="841"/>
      <point x="2442" y="818"/>
      <point x="2442" y="763" type="curve" smooth="yes"/>
      <point x="2442" y="737"/>
      <point x="2427" y="712"/>
      <point x="2385" y="712" type="curve" smooth="yes"/>
      <point x="2291" y="712"/>
      <point x="2211" y="782"/>
      <point x="2166" y="924" type="curve" smooth="yes"/>
      <point x="2161" y="943"/>
      <point x="2146" y="960"/>
      <point x="2134" y="960" type="curve" smooth="yes"/>
      <point x="2113" y="960"/>
      <point x="2105" y="944"/>
      <point x="2104" y="929" type="curve" smooth="yes"/>
      <point x="2089" y="780"/>
      <point x="2026" y="648"/>
      <point x="1900" y="644" type="curve" smooth="yes" name="hr01"/>
      <point x="1781" y="639"/>
      <point x="1685" y="816"/>
      <point x="1582" y="816" type="curve" smooth="yes" name="hr02"/>
      <point x="1517" y="816"/>
      <point x="1459" y="722"/>
      <point x="1399" y="579" type="curve" smooth="yes"/>
      <point x="1375" y="519"/>
      <point x="1354" y="426"/>
      <point x="1354" y="360" type="curve" smooth="yes"/>
      <point x="1354" y="328"/>
      <point x="1354" y="255"/>
      <point x="1378" y="186" type="curve"/>
      <point x="1304" y="83"/>
      <point x="1150" y="41"/>
      <point x="822" y="41" type="curve" smooth="yes"/>
      <point x="555" y="41"/>
      <point x="161" y="99"/>
      <point x="99" y="113" type="curve" smooth="yes"/>
      <point x="93" y="115"/>
      <point x="73" y="77"/>
      <point x="73" y="19" type="curve" smooth="yes"/>
      <point x="73" y="-15"/>
      <point x="602" y="-228"/>
      <point x="1038" y="-228" type="curve" smooth="yes"/>
      <point x="1235" y="-228"/>
      <point x="1465" y="-154"/>
      <point x="1531" y="-65" type="curve"/>
      <point x="1583" y="-125"/>
      <point x="1695" y="-168"/>
      <point x="1770" y="-189" type="curve"/>
      <point x="1820" y="-189"/>
      <point x="1847" y="32"/>
      <point x="1847" y="61" type="curve" smooth="yes"/>
      <point x="1847" y="83"/>
      <point x="1843" y="90"/>
      <point x="1817" y="99" type="curve" smooth="yes"/>
      <point x="1625" y="162"/>
      <point x="1482" y="235"/>
      <point x="1482" y="412" type="curve" smooth="yes"/>
      <point x="1482" y="473"/>
      <point x="1521" y="502"/>
      <point x="1537" y="502" type="curve" smooth="yes"/>
      <point x="1592" y="502"/>
      <point x="1708" y="334"/>
      <point x="1831" y="334" type="curve" smooth="yes"/>
      <point x="1972" y="334"/>
      <point x="2030" y="486"/>
      <point x="2095" y="603" type="curve"/>
      <point x="2142" y="513"/>
      <point x="2204" y="422"/>
      <point x="2301" y="422" type="curve" smooth="yes" name="hr03"/>
      <point x="2498" y="422"/>
      <point x="2542" y="782"/>
    </contour>
  </outline>
</glyph>
<glyph name="numbermark-ar" format="2">
  <advance width="1246"/>
  <unicode hex="0605"/>
  <anchor x="296" y="0" name="digitR"/>
  <outline>
    <contour>
      <point x="1189" y="1542" type="curve" smooth="yes"/>
      <point x="1189" y="1573"/>
      <point x="1170" y="1587"/>
      <point x="1150" y="1587" type="curve" smooth="yes"/>
      <point x="1121" y="1587"/>
      <point x="1030" y="1496"/>
      <point x="747" y="1496" type="curve" smooth="yes"/>
      <point x="527" y="1496"/>
      <point x="473" y="1583"/>
      <point x="431" y="1583" type="curve" smooth="yes"/>
      <point x="373" y="1583"/>
      <point x="101" y="1347"/>
      <point x="54" y="1267" type="curve"/>
      <point x="56" y="1250"/>
      <point x="87" y="1207"/>
      <point x="98" y="1203" type="curve"/>
      <point x="115" y="1220"/>
      <point x="249" y="1324"/>
      <point x="282" y="1324" type="curve" smooth="yes"/>
      <point x="328" y="1324"/>
      <point x="468" y="1225"/>
      <point x="630" y="1225" type="curve" smooth="yes"/>
      <point x="892" y="1225"/>
      <point x="1189" y="1513"/>
    </contour>
  </outline>
</glyph>
<glyph name="ray-ar" format="2">
  <advance width="1454"/>
  <unicode hex="0608"/>
  <outline>
    <contour>
      <point x="1099" y="229" type="curve"/>
      <point x="1089" y="228"/>
      <point x="1088" y="228"/>
      <point x="1076" y="228" type="curve" smooth="yes"/>
      <point x="1012" y="228"/>
      <point x="916" y="231"/>
      <point x="916" y="281" type="curve" smooth="yes"/>
      <point x="916" y="318"/>
      <point x="941" y="335"/>
      <point x="972" y="335" type="curve" smooth="yes"/>
      <point x="1025" y="335"/>
      <point x="1070" y="293"/>
    </contour>
    <contour>
      <point x="1428" y="267" type="curve"/>
      <point x="1362" y="354" type="line"/>
      <point x="1350" y="334"/>
      <point x="1335" y="316"/>
      <point x="1318" y="300" type="curve" smooth="yes"/>
      <point x="1302" y="286"/>
      <point x="1283" y="274"/>
      <point x="1260" y="264" type="curve"/>
      <point x="1247" y="363"/>
      <point x="1195" y="581"/>
      <point x="1067" y="581" type="curve" smooth="yes"/>
      <point x="931" y="581"/>
      <point x="777" y="271"/>
      <point x="777" y="139" type="curve" smooth="yes"/>
      <point x="777" y="35"/>
      <point x="873" y="-7"/>
      <point x="1012" y="-7" type="curve" smooth="yes"/>
      <point x="1074" y="-7"/>
      <point x="1119" y="12"/>
      <point x="1141" y="17" type="curve"/>
      <point x="1135" y="-41"/>
      <point x="1111" y="-151"/>
      <point x="1079" y="-193" type="curve" smooth="yes"/>
      <point x="980" y="-320"/>
      <point x="776" y="-351"/>
      <point x="647" y="-351" type="curve" smooth="yes"/>
      <point x="460" y="-351"/>
      <point x="309" y="-277"/>
      <point x="309" y="-93" type="curve" smooth="yes"/>
      <point x="309" y="58"/>
      <point x="423" y="202"/>
      <point x="423" y="213" type="curve" smooth="yes"/>
      <point x="423" y="228"/>
      <point x="406" y="261"/>
      <point x="383" y="261" type="curve"/>
      <point x="238" y="135"/>
      <point x="139" y="90"/>
      <point x="25" y="67" type="curve" smooth="yes"/>
      <point x="9" y="64"/>
      <point x="1" y="42"/>
      <point x="1" y="30" type="curve" smooth="yes"/>
      <point x="1" y="25"/>
      <point x="4" y="4"/>
      <point x="23" y="4" type="curve" smooth="yes"/>
      <point x="106" y="4"/>
      <point x="204" y="44"/>
      <point x="270" y="84" type="curve"/>
      <point x="212" y="-1"/>
      <point x="187" y="-109"/>
      <point x="187" y="-210" type="curve" smooth="yes" name="hr01"/>
      <point x="187" y="-435"/>
      <point x="328" y="-590"/>
      <point x="580" y="-590" type="curve" smooth="yes"/>
      <point x="883" y="-590"/>
      <point x="1057" y="-415"/>
      <point x="1167" y="-226" type="curve" smooth="yes"/>
      <point x="1217" y="-142"/>
      <point x="1250" y="1"/>
      <point x="1257" y="70" type="curve"/>
      <point x="1280" y="78"/>
      <point x="1327" y="115"/>
      <point x="1356" y="144" type="curve" smooth="yes"/>
      <point x="1382" y="170"/>
      <point x="1412" y="212"/>
    </contour>
  </outline>
</glyph>
<glyph name="perthousand-ar" format="2">
  <advance width="1615"/>
  <unicode hex="0609"/>
  <outline>
    <contour>
      <point x="1085" y="1479" type="line"/>
      <point x="925" y="1479" type="line"/>
      <point x="222" y="-365" type="line"/>
      <point x="384" y="-365" type="line"/>
    </contour>
    <contour>
      <point x="494" y="1266" type="curve" smooth="yes"/>
      <point x="494" y="1285"/>
      <point x="257" y="1463"/>
      <point x="226" y="1483" type="curve" name="hr01"/>
      <point x="215" y="1441"/>
      <point x="139" y="1179"/>
      <point x="139" y="1146" type="curve" smooth="yes"/>
      <point x="139" y="1117"/>
      <point x="394" y="966"/>
      <point x="431" y="950" type="curve"/>
      <point x="436" y="989"/>
      <point x="494" y="1251"/>
    </contour>
    <contour>
      <point x="1079" y="-6" type="curve" smooth="yes"/>
      <point x="1079" y="13"/>
      <point x="841" y="191"/>
      <point x="811" y="212" type="curve"/>
      <point x="798" y="170"/>
      <point x="724" y="-93"/>
      <point x="724" y="-126" type="curve" smooth="yes"/>
      <point x="724" y="-155"/>
      <point x="977" y="-305"/>
      <point x="1014" y="-320" type="curve"/>
      <point x="1019" y="-281"/>
      <point x="1079" y="-20"/>
    </contour>
    <contour>
      <point x="1492" y="-6" type="curve" smooth="yes"/>
      <point x="1492" y="13"/>
      <point x="1254" y="191"/>
      <point x="1224" y="212" type="curve"/>
      <point x="1211" y="170"/>
      <point x="1137" y="-93"/>
      <point x="1137" y="-126" type="curve" smooth="yes"/>
      <point x="1137" y="-155"/>
      <point x="1391" y="-305"/>
      <point x="1427" y="-320" type="curve"/>
      <point x="1433" y="-281"/>
      <point x="1492" y="-20"/>
    </contour>
  </outline>
</glyph>
<glyph name="afghani-ar" format="2">
  <advance width="915"/>
  <unicode hex="060B"/>
  <outline>
    <component base="_dot1" xOffset="464" yOffset="1415"/>
    <component base="alefbelow-ar" xOffset="305"/>
    <contour>
      <point x="832" y="542" type="curve" smooth="yes"/>
      <point x="832" y="786"/>
      <point x="658" y="1093"/>
      <point x="522" y="1093" type="curve" smooth="yes"/>
      <point x="380" y="1093"/>
      <point x="245" y="703"/>
      <point x="245" y="600" type="curve" smooth="yes"/>
      <point x="245" y="508"/>
      <point x="277" y="396"/>
      <point x="444" y="396" type="curve" smooth="yes"/>
      <point x="573" y="396"/>
      <point x="641" y="512"/>
      <point x="661" y="576" type="curve"/>
      <point x="687" y="547"/>
      <point x="718" y="502"/>
      <point x="718" y="470" type="curve" smooth="yes"/>
      <point x="718" y="403"/>
      <point x="508" y="294"/>
      <point x="264" y="294" type="curve" smooth="yes"/>
      <point x="184" y="294"/>
      <point x="119" y="299"/>
      <point x="104" y="299" type="curve" smooth="yes"/>
      <point x="84" y="299"/>
      <point x="49" y="46"/>
      <point x="49" y="23" type="curve" smooth="yes"/>
      <point x="49" y="12"/>
      <point x="162" y="0"/>
      <point x="245" y="0" type="curve" smooth="yes"/>
      <point x="450" y="0"/>
      <point x="647" y="88"/>
      <point x="734" y="203" type="curve" smooth="yes"/>
      <point x="812" y="306"/>
      <point x="832" y="436"/>
    </contour>
    <contour>
      <point x="548" y="726" type="curve" smooth="yes"/>
      <point x="548" y="715"/>
      <point x="497" y="673"/>
      <point x="457" y="673" type="curve" smooth="yes"/>
      <point x="413" y="673"/>
      <point x="394" y="715"/>
      <point x="394" y="738" type="curve" smooth="yes"/>
      <point x="394" y="760"/>
      <point x="418" y="789"/>
      <point x="439" y="789" type="curve" smooth="yes"/>
      <point x="492" y="789"/>
      <point x="548" y="738"/>
    </contour>
  </outline>
</glyph>
<glyph name="comma-ar" format="2">
  <advance width="990"/>
  <unicode hex="060C"/>
  <anchor x="422" y="957" name="diaA"/>
  <anchor x="422" y="-283" name="diaB"/>
  <outline>
    <contour>
      <point x="693" y="67" type="curve" smooth="yes"/>
      <point x="693" y="139"/>
      <point x="637" y="238"/>
      <point x="537" y="238" type="curve" smooth="yes"/>
      <point x="487" y="238"/>
      <point x="435" y="206"/>
      <point x="423" y="206" type="curve" smooth="yes"/>
      <point x="413" y="206"/>
      <point x="392" y="260"/>
      <point x="392" y="299" type="curve" smooth="yes" name="hr01"/>
      <point x="392" y="474"/>
      <point x="513" y="596"/>
      <point x="568" y="650" type="curve"/>
      <point x="525" y="715" type="line"/>
      <point x="434" y="655"/>
      <point x="332" y="545"/>
      <point x="283" y="421" type="curve" smooth="yes"/>
      <point x="262" y="368"/>
      <point x="252" y="312"/>
      <point x="252" y="251" type="curve" smooth="yes"/>
      <point x="252" y="109"/>
      <point x="332" y="-110"/>
      <point x="516" y="-110" type="curve" smooth="yes"/>
      <point x="628" y="-110"/>
      <point x="693" y="-16"/>
    </contour>
  </outline>
</glyph>
<glyph name="dateseparator-ar" format="2">
  <advance width="864"/>
  <unicode hex="060D"/>
  <outline>
    <contour>
      <point x="155" y="58" type="line"/>
      <point x="231" y="167"/>
      <point x="339" y="271"/>
      <point x="421" y="320" type="curve" smooth="yes"/>
      <point x="471" y="351"/>
      <point x="571" y="351"/>
      <point x="647" y="351" type="curve" smooth="yes"/>
      <point x="664" y="351"/>
      <point x="699" y="397"/>
      <point x="721" y="434" type="curve" smooth="yes"/>
      <point x="742" y="470"/>
      <point x="760" y="510"/>
      <point x="760" y="529" type="curve" smooth="yes"/>
      <point x="760" y="545"/>
      <point x="732" y="586"/>
      <point x="715" y="608" type="curve" smooth="yes"/>
      <point x="697" y="629"/>
      <point x="666" y="661"/>
      <point x="638" y="661" type="curve" smooth="yes"/>
      <point x="603" y="661"/>
      <point x="531" y="632"/>
      <point x="467" y="581" type="curve" smooth="yes"/>
      <point x="392" y="522"/>
      <point x="323" y="442"/>
      <point x="244" y="334" type="curve" smooth="yes"/>
      <point x="196" y="268"/>
      <point x="136" y="164"/>
      <point x="96" y="90" type="curve"/>
    </contour>
  </outline>
</glyph>
<glyph name="verseComma-ar" format="2">
  <advance width="2050"/>
  <unicode hex="060E"/>
  <outline>
    <contour>
      <point x="1942" y="541" type="curve"/>
      <point x="1849" y="489"/>
      <point x="1697" y="421"/>
      <point x="1552" y="384" type="curve" smooth="yes"/>
      <point x="1411" y="349"/>
      <point x="1241" y="328"/>
      <point x="1131" y="328" type="curve" smooth="yes"/>
      <point x="953" y="328"/>
      <point x="890" y="334"/>
      <point x="790" y="349" type="curve"/>
      <point x="786" y="415"/>
      <point x="777" y="544"/>
      <point x="763" y="606" type="curve" smooth="yes"/>
      <point x="728" y="757"/>
      <point x="653" y="832"/>
      <point x="531" y="832" type="curve" smooth="yes"/>
      <point x="444" y="832"/>
      <point x="307" y="755"/>
      <point x="218" y="664" type="curve" smooth="yes"/>
      <point x="145" y="592"/>
      <point x="83" y="496"/>
      <point x="83" y="403" type="curve" smooth="yes"/>
      <point x="83" y="290"/>
      <point x="190" y="215"/>
      <point x="307" y="168" type="curve" smooth="yes"/>
      <point x="441" y="116"/>
      <point x="637" y="74"/>
      <point x="992" y="74" type="curve" smooth="yes"/>
      <point x="1212" y="74"/>
      <point x="1386" y="117"/>
      <point x="1536" y="164" type="curve" smooth="yes"/>
      <point x="1681" y="209"/>
      <point x="1795" y="267"/>
      <point x="1892" y="318" type="curve"/>
      <point x="1915" y="355"/>
      <point x="1949" y="439"/>
      <point x="1949" y="494" type="curve" smooth="yes"/>
      <point x="1949" y="521"/>
      <point x="1943" y="537"/>
    </contour>
    <contour>
      <point x="592" y="383" type="curve"/>
      <point x="522" y="394"/>
      <point x="477" y="413"/>
      <point x="416" y="441" type="curve" smooth="yes"/>
      <point x="358" y="467"/>
      <point x="351" y="492"/>
      <point x="351" y="515" type="curve" smooth="yes"/>
      <point x="351" y="550"/>
      <point x="393" y="595"/>
      <point x="442" y="595" type="curve" smooth="yes"/>
      <point x="490" y="595"/>
      <point x="528" y="558"/>
      <point x="554" y="509" type="curve" smooth="yes"/>
      <point x="574" y="471"/>
      <point x="587" y="425"/>
    </contour>
  </outline>
</glyph>
<glyph name="misraComma-ar" format="2">
  <advance width="1420"/>
  <unicode hex="060F"/>
  <anchor x="145" y="1079" name="alef"/>
  <anchor x="513" y="1453" name="diaA"/>
  <anchor x="666" y="-1370" name="diaB"/>
  <outline>
    <contour>
      <point x="1311" y="-428" type="curve" smooth="yes"/>
      <point x="1311" y="-212"/>
      <point x="1177" y="-75"/>
      <point x="957" y="-75" type="curve" smooth="yes"/>
      <point x="741" y="-75"/>
      <point x="542" y="-281"/>
      <point x="347" y="-589" type="curve"/>
      <point x="280" y="-508"/>
      <point x="251" y="-390"/>
      <point x="251" y="-278" type="curve" smooth="yes"/>
      <point x="251" y="45"/>
      <point x="458" y="210"/>
      <point x="703" y="335" type="curve" smooth="yes"/>
      <point x="770" y="370"/>
      <point x="969" y="461"/>
      <point x="980" y="470" type="curve" smooth="yes"/>
      <point x="989" y="479"/>
      <point x="1182" y="744"/>
      <point x="1182" y="755" type="curve" smooth="yes"/>
      <point x="1182" y="761"/>
      <point x="1163" y="793"/>
      <point x="1160" y="793" type="curve"/>
      <point x="1154" y="792"/>
      <point x="861" y="647"/>
      <point x="750" y="597" type="curve" smooth="yes"/>
      <point x="722" y="586"/>
      <point x="703" y="579"/>
      <point x="690" y="579" type="curve" smooth="yes"/>
      <point x="606" y="579"/>
      <point x="347" y="635"/>
      <point x="347" y="709" type="curve" smooth="yes"/>
      <point x="347" y="725"/>
      <point x="378" y="827"/>
      <point x="519" y="885" type="curve" smooth="yes"/>
      <point x="596" y="916"/>
      <point x="790" y="919"/>
      <point x="834" y="919" type="curve" smooth="yes"/>
      <point x="842" y="919"/>
      <point x="851" y="945"/>
      <point x="851" y="945" type="curve"/>
      <point x="829" y="1009"/>
      <point x="761" y="1082"/>
      <point x="683" y="1118" type="curve"/>
      <point x="655" y="1131"/>
      <point x="626" y="1138"/>
      <point x="599" y="1138" type="curve" smooth="yes"/>
      <point x="564" y="1138"/>
      <point x="494" y="1132"/>
      <point x="412" y="1034" type="curve" smooth="yes"/>
      <point x="322" y="927"/>
      <point x="190" y="670"/>
      <point x="190" y="551" type="curve" smooth="yes"/>
      <point x="190" y="432"/>
      <point x="348" y="352"/>
      <point x="442" y="341" type="curve"/>
      <point x="290" y="170"/>
      <point x="113" y="-94"/>
      <point x="113" y="-400" type="curve" smooth="yes" name="hr01"/>
      <point x="113" y="-597"/>
      <point x="162" y="-703"/>
      <point x="220" y="-800" type="curve"/>
      <point x="167" y="-895"/>
      <point x="113" y="-999"/>
      <point x="65" y="-1093" type="curve" smooth="yes"/>
      <point x="61" y="-1102"/>
      <point x="55" y="-1115"/>
      <point x="55" y="-1130" type="curve" smooth="yes"/>
      <point x="55" y="-1153"/>
      <point x="81" y="-1159"/>
      <point x="87" y="-1159" type="curve" smooth="yes"/>
      <point x="102" y="-1159"/>
      <point x="110" y="-1154"/>
      <point x="117" y="-1144" type="curve" smooth="yes"/>
      <point x="162" y="-1079"/>
      <point x="222" y="-986"/>
      <point x="291" y="-882" type="curve"/>
      <point x="355" y="-954"/>
      <point x="518" y="-1067"/>
      <point x="750" y="-1067" type="curve" smooth="yes"/>
      <point x="1050" y="-1067"/>
      <point x="1311" y="-764"/>
    </contour>
    <contour>
      <point x="1185" y="-515" type="curve" smooth="yes"/>
      <point x="1185" y="-655"/>
      <point x="1051" y="-773"/>
      <point x="821" y="-773" type="curve" smooth="yes"/>
      <point x="658" y="-773"/>
      <point x="531" y="-725"/>
      <point x="441" y="-657" type="curve"/>
      <point x="590" y="-445"/>
      <point x="774" y="-345"/>
      <point x="947" y="-345" type="curve" smooth="yes"/>
      <point x="1077" y="-345"/>
      <point x="1185" y="-410"/>
    </contour>
  </outline>
</glyph>
<glyph name="sadabove-ar" format="2">
  <unicode hex="0610"/>
  <anchor x="783" y="1611" name="_diaA"/>
  <outline>
    <contour>
      <point x="1038" y="1992" type="curve" smooth="yes"/>
      <point x="1038" y="2066"/>
      <point x="1002" y="2130"/>
      <point x="918" y="2130" type="curve" smooth="yes"/>
      <point x="860" y="2130"/>
      <point x="808" y="2104"/>
      <point x="741" y="2052" type="curve" smooth="yes"/>
      <point x="680" y="2002"/>
      <point x="635" y="1934"/>
      <point x="606" y="1876" type="curve"/>
      <point x="599" y="1876"/>
      <point x="570" y="1878"/>
      <point x="519" y="1879" type="curve"/>
      <point x="512" y="1898"/>
      <point x="499" y="1944"/>
      <point x="489" y="1960" type="curve"/>
      <point x="483" y="1960"/>
      <point x="465" y="1937"/>
      <point x="448" y="1914" type="curve" smooth="yes"/>
      <point x="431" y="1891"/>
      <point x="418" y="1857"/>
      <point x="418" y="1850" type="curve"/>
      <point x="428" y="1834"/>
      <point x="436" y="1737"/>
      <point x="436" y="1683" type="curve" smooth="yes"/>
      <point x="436" y="1653"/>
      <point x="435" y="1596"/>
      <point x="431" y="1570" type="curve"/>
      <point x="519" y="1653" type="line"/>
      <point x="526" y="1694"/>
      <point x="531" y="1730"/>
      <point x="531" y="1760" type="curve"/>
      <point x="538" y="1759"/>
      <point x="545" y="1759"/>
      <point x="561" y="1759" type="curve"/>
      <point x="554" y="1734" type="line"/>
      <point x="554" y="1718"/>
      <point x="609" y="1685"/>
      <point x="625" y="1685" type="curve"/>
      <point x="632" y="1714"/>
      <point x="641" y="1749"/>
      <point x="648" y="1760" type="curve"/>
      <point x="735" y="1762"/>
      <point x="811" y="1770"/>
      <point x="885" y="1799" type="curve" smooth="yes"/>
      <point x="987" y="1840"/>
      <point x="1038" y="1918"/>
    </contour>
    <contour>
      <point x="940" y="1969" type="curve" smooth="yes"/>
      <point x="940" y="1958"/>
      <point x="935" y="1942"/>
      <point x="882" y="1920" type="curve" smooth="yes"/>
      <point x="819" y="1897"/>
      <point x="748" y="1884"/>
      <point x="700" y="1882" type="curve"/>
      <point x="751" y="1952"/>
      <point x="842" y="1995"/>
      <point x="890" y="1995" type="curve" smooth="yes"/>
      <point x="921" y="1995"/>
      <point x="940" y="1982"/>
    </contour>
  </outline>
</glyph>
